%TF.GenerationSoftware,KiCad,Pcbnew,5.1.12-5.1.12*%
%TF.CreationDate,2022-01-05T21:47:21+02:00*%
%TF.ProjectId,gb_1_0_pico,67625f31-5f30-45f7-9069-636f2e6b6963,rev?*%
%TF.SameCoordinates,Original*%
%TF.FileFunction,Legend,Top*%
%TF.FilePolarity,Positive*%
%FSLAX46Y46*%
G04 Gerber Fmt 4.6, Leading zero omitted, Abs format (unit mm)*
G04 Created by KiCad (PCBNEW 5.1.12-5.1.12) date 2022-01-05 21:47:21*
%MOMM*%
%LPD*%
G01*
G04 APERTURE LIST*
%ADD10C,0.120000*%
%ADD11C,0.150000*%
%ADD12C,0.100000*%
G04 APERTURE END LIST*
D10*
%TO.C,SW8*%
X187560000Y-96180000D02*
X187560000Y-94680000D01*
X186310000Y-92180000D02*
X181810000Y-92180000D01*
X180560000Y-94680000D02*
X180560000Y-96180000D01*
X181810000Y-98680000D02*
X186310000Y-98680000D01*
%TO.C,SW6*%
X81515000Y-86020000D02*
X81515000Y-84520000D01*
X80265000Y-82020000D02*
X75765000Y-82020000D01*
X74515000Y-84520000D02*
X74515000Y-86020000D01*
X75765000Y-88520000D02*
X80265000Y-88520000D01*
D11*
%TO.C,XS1*%
X99778000Y-64572000D02*
X96778000Y-64572000D01*
X100228000Y-63672000D02*
X100228000Y-63972000D01*
X100528000Y-63672000D02*
X100228000Y-63672000D01*
X100528000Y-63972000D02*
X100528000Y-63672000D01*
X100228000Y-63972000D02*
X100528000Y-63972000D01*
X95228000Y-63572000D02*
X95228000Y-56372000D01*
X95228000Y-50572000D02*
X95228000Y-53572000D01*
X97928000Y-50572000D02*
X95228000Y-50572000D01*
X109928000Y-53572000D02*
X109928000Y-51272000D01*
X109928000Y-56372000D02*
X109928000Y-63572000D01*
X99778000Y-64572000D02*
X99778000Y-65872000D01*
X98978000Y-50872000D02*
X97928000Y-50572000D01*
X100078000Y-51072000D02*
X98978000Y-50872000D01*
X101228000Y-51222000D02*
X100078000Y-51072000D01*
X102578000Y-51272000D02*
X101228000Y-51222000D01*
X109928000Y-51272000D02*
X102578000Y-51272000D01*
D10*
%TO.C,R5*%
X107168000Y-70031064D02*
X107168000Y-68576936D01*
X108988000Y-70031064D02*
X108988000Y-68576936D01*
%TO.C,R7*%
X100567000Y-70031064D02*
X100567000Y-68576936D01*
X98747000Y-70031064D02*
X98747000Y-68576936D01*
%TO.C,C9*%
X98154000Y-68592748D02*
X98154000Y-70015252D01*
X96334000Y-68592748D02*
X96334000Y-70015252D01*
%TO.C,R6*%
X102980000Y-70031064D02*
X102980000Y-68576936D01*
X101160000Y-70031064D02*
X101160000Y-68576936D01*
%TO.C,SW9*%
X102470000Y-111420000D02*
X102470000Y-109920000D01*
X101220000Y-107420000D02*
X96720000Y-107420000D01*
X95470000Y-109920000D02*
X95470000Y-111420000D01*
X96720000Y-113920000D02*
X101220000Y-113920000D01*
%TO.C,R3*%
X165930000Y-111941064D02*
X165930000Y-110486936D01*
X167750000Y-111941064D02*
X167750000Y-110486936D01*
%TO.C,D2*%
X163292000Y-109614000D02*
X163292000Y-113674000D01*
X163292000Y-113674000D02*
X165562000Y-113674000D01*
X165562000Y-113674000D02*
X165562000Y-109614000D01*
%TO.C,C2*%
X160094000Y-97134748D02*
X160094000Y-98557252D01*
X161914000Y-97134748D02*
X161914000Y-98557252D01*
%TO.C,C4*%
X139966748Y-66150000D02*
X141389252Y-66150000D01*
X139966748Y-64330000D02*
X141389252Y-64330000D01*
%TO.C,C5*%
X146245000Y-103543252D02*
X146245000Y-102120748D01*
X148065000Y-103543252D02*
X148065000Y-102120748D01*
%TO.C,D1*%
X159639000Y-100306000D02*
X159639000Y-96246000D01*
X157369000Y-100306000D02*
X159639000Y-100306000D01*
X157369000Y-96246000D02*
X157369000Y-100306000D01*
%TO.C,F1*%
X165856000Y-97243936D02*
X165856000Y-98448064D01*
X167676000Y-97243936D02*
X167676000Y-98448064D01*
%TO.C,Q1*%
X148115000Y-98131000D02*
X148115000Y-96671000D01*
X151275000Y-98131000D02*
X151275000Y-95971000D01*
X151275000Y-98131000D02*
X150345000Y-98131000D01*
X148115000Y-98131000D02*
X149045000Y-98131000D01*
%TO.C,R1*%
X152468000Y-98606064D02*
X152468000Y-97151936D01*
X154288000Y-98606064D02*
X154288000Y-97151936D01*
%TO.C,R2*%
X155094000Y-98573064D02*
X155094000Y-97118936D01*
X156914000Y-98573064D02*
X156914000Y-97118936D01*
%TO.C,R4*%
X145525000Y-103559064D02*
X145525000Y-102104936D01*
X143705000Y-103559064D02*
X143705000Y-102104936D01*
%TO.C,R11*%
X153978064Y-59694500D02*
X152523936Y-59694500D01*
X153978064Y-61514500D02*
X152523936Y-61514500D01*
%TO.C,R12*%
X158594536Y-64431600D02*
X160048664Y-64431600D01*
X158594536Y-66251600D02*
X160048664Y-66251600D01*
%TO.C,SW3*%
X65605000Y-78360000D02*
X70105000Y-78360000D01*
X64355000Y-74360000D02*
X64355000Y-75860000D01*
X70105000Y-71860000D02*
X65605000Y-71860000D01*
X71355000Y-75860000D02*
X71355000Y-74360000D01*
%TO.C,SW4*%
X71355000Y-96180000D02*
X71355000Y-94680000D01*
X70105000Y-92180000D02*
X65605000Y-92180000D01*
X64355000Y-94680000D02*
X64355000Y-96180000D01*
X65605000Y-98680000D02*
X70105000Y-98680000D01*
%TO.C,SW5*%
X55445000Y-88520000D02*
X59945000Y-88520000D01*
X54195000Y-84520000D02*
X54195000Y-86020000D01*
X59945000Y-82020000D02*
X55445000Y-82020000D01*
X61195000Y-86020000D02*
X61195000Y-84520000D01*
%TO.C,SW7*%
X191970000Y-88520000D02*
X196470000Y-88520000D01*
X190720000Y-84520000D02*
X190720000Y-86020000D01*
X196470000Y-82020000D02*
X191970000Y-82020000D01*
X197720000Y-86020000D02*
X197720000Y-84520000D01*
%TO.C,TP1*%
X171858000Y-96355000D02*
G75*
G03*
X171858000Y-96355000I-700000J0D01*
G01*
%TO.C,TP2*%
X171858000Y-101308000D02*
G75*
G03*
X171858000Y-101308000I-700000J0D01*
G01*
%TO.C,U1*%
X115700000Y-51170000D02*
X136700000Y-51170000D01*
X122500000Y-102170000D02*
X115700000Y-102170000D01*
X115700000Y-53837000D02*
X118707000Y-53837000D01*
X118707000Y-53837000D02*
X118707000Y-51170000D01*
X115700000Y-51170000D02*
X115700000Y-51470000D01*
X115700000Y-53570000D02*
X115700000Y-53970000D01*
X115700000Y-56170000D02*
X115700000Y-56570000D01*
X115700000Y-58670000D02*
X115700000Y-59070000D01*
X115700000Y-61270000D02*
X115700000Y-61670000D01*
X115700000Y-63770000D02*
X115700000Y-64170000D01*
X115700000Y-66270000D02*
X115700000Y-66670000D01*
X115700000Y-68870000D02*
X115700000Y-69270000D01*
X115700000Y-71370000D02*
X115700000Y-71770000D01*
X115700000Y-73970000D02*
X115700000Y-74370000D01*
X115700000Y-76470000D02*
X115700000Y-76870000D01*
X115700000Y-78970000D02*
X115700000Y-79370000D01*
X115700000Y-81570000D02*
X115700000Y-81970000D01*
X115700000Y-84070000D02*
X115700000Y-84470000D01*
X115700000Y-86670000D02*
X115700000Y-87070000D01*
X115700000Y-89170000D02*
X115700000Y-89570000D01*
X115700000Y-91770000D02*
X115700000Y-92170000D01*
X115700000Y-94270000D02*
X115700000Y-94670000D01*
X115700000Y-96770000D02*
X115700000Y-97170000D01*
X115700000Y-99370000D02*
X115700000Y-99770000D01*
X136700000Y-66270000D02*
X136700000Y-66670000D01*
X136700000Y-71370000D02*
X136700000Y-71770000D01*
X136700000Y-78970000D02*
X136700000Y-79370000D01*
X136700000Y-86670000D02*
X136700000Y-87070000D01*
X136700000Y-56170000D02*
X136700000Y-56570000D01*
X136700000Y-53570000D02*
X136700000Y-53970000D01*
X136700000Y-61270000D02*
X136700000Y-61670000D01*
X136700000Y-94270000D02*
X136700000Y-94670000D01*
X136700000Y-99370000D02*
X136700000Y-99770000D01*
X136700000Y-96770000D02*
X136700000Y-97170000D01*
X136700000Y-81570000D02*
X136700000Y-81970000D01*
X136700000Y-76470000D02*
X136700000Y-76870000D01*
X136700000Y-63770000D02*
X136700000Y-64170000D01*
X136700000Y-68870000D02*
X136700000Y-69270000D01*
X136700000Y-89170000D02*
X136700000Y-89570000D01*
X136700000Y-73970000D02*
X136700000Y-74370000D01*
X136700000Y-51170000D02*
X136700000Y-51470000D01*
X136700000Y-58670000D02*
X136700000Y-59070000D01*
X136700000Y-84070000D02*
X136700000Y-84470000D01*
X136700000Y-91770000D02*
X136700000Y-92170000D01*
X136700000Y-102170000D02*
X129900000Y-102170000D01*
X124700000Y-102170000D02*
X125100000Y-102170000D01*
X127300000Y-102170000D02*
X127700000Y-102170000D01*
%TO.C,J3*%
X88040000Y-69050000D02*
X90700000Y-69050000D01*
X88040000Y-69050000D02*
X88040000Y-94510000D01*
X88040000Y-94510000D02*
X90700000Y-94510000D01*
X90700000Y-69050000D02*
X90700000Y-94510000D01*
X90700000Y-66450000D02*
X90700000Y-67780000D01*
X89370000Y-66450000D02*
X90700000Y-66450000D01*
%TO.C,JP1*%
X146885000Y-112741000D02*
X144885000Y-112741000D01*
X146885000Y-109941000D02*
X146885000Y-112741000D01*
X144885000Y-109941000D02*
X146885000Y-109941000D01*
X144885000Y-112741000D02*
X144885000Y-109941000D01*
%TO.C,SW1*%
X150700000Y-109113000D02*
X149500000Y-109113000D01*
X149500000Y-109113000D02*
X149500000Y-113313000D01*
X149500000Y-113313000D02*
X150700000Y-113313000D01*
X157500000Y-109113000D02*
X158700000Y-109113000D01*
X158700000Y-109113000D02*
X158700000Y-113313000D01*
X158700000Y-113313000D02*
X157500000Y-113313000D01*
X150400000Y-108813000D02*
X149200000Y-108813000D01*
X149200000Y-108813000D02*
X149200000Y-110013000D01*
%TO.C,C3*%
X144175000Y-95828748D02*
X144175000Y-98151252D01*
X147595000Y-95828748D02*
X147595000Y-98151252D01*
%TO.C,R8*%
X68648000Y-84451936D02*
X68648000Y-85906064D01*
X70468000Y-84451936D02*
X70468000Y-85906064D01*
%TO.C,R13*%
X65219000Y-85906064D02*
X65219000Y-84451936D01*
X67039000Y-85906064D02*
X67039000Y-84451936D01*
%TO.C,R14*%
X64626000Y-85906064D02*
X64626000Y-84451936D01*
X62806000Y-85906064D02*
X62806000Y-84451936D01*
%TO.C,R15*%
X71061000Y-85906064D02*
X71061000Y-84451936D01*
X72881000Y-85906064D02*
X72881000Y-84451936D01*
%TO.C,R16*%
X191584000Y-94738936D02*
X191584000Y-96193064D01*
X193404000Y-94738936D02*
X193404000Y-96193064D01*
%TO.C,R17*%
X190991000Y-94738936D02*
X190991000Y-96193064D01*
X189171000Y-94738936D02*
X189171000Y-96193064D01*
%TO.C,R18*%
X104081000Y-111179064D02*
X104081000Y-109724936D01*
X105901000Y-111179064D02*
X105901000Y-109724936D01*
%TO.C,R19*%
X111362000Y-70031064D02*
X111362000Y-68576936D01*
X109542000Y-70031064D02*
X109542000Y-68576936D01*
%TO.C,R20*%
X170163000Y-110486936D02*
X170163000Y-111941064D01*
X168343000Y-110486936D02*
X168343000Y-111941064D01*
D11*
%TO.C,J4*%
X185636000Y-62750800D02*
X173444000Y-62750800D01*
X185636000Y-50558800D02*
X185636000Y-62750800D01*
X173444000Y-62750800D02*
X173444000Y-50558800D01*
X177000000Y-48526800D02*
X182080000Y-48526800D01*
X184620000Y-50050800D02*
X184620000Y-50558800D01*
X174460000Y-50050800D02*
X184620000Y-50050800D01*
X174460000Y-50304800D02*
X174460000Y-50050800D01*
X174460000Y-50558800D02*
X174460000Y-50304800D01*
X177000000Y-49288800D02*
X182080000Y-49288800D01*
X182080000Y-50050800D02*
X182080000Y-48526800D01*
X177000000Y-48526800D02*
X177000000Y-50050800D01*
X185636000Y-50558800D02*
X184620000Y-50558800D01*
X174460000Y-50558800D02*
X173444000Y-50558800D01*
X183350000Y-55130800D02*
X181318000Y-55130800D01*
X183350000Y-51574800D02*
X183350000Y-55130800D01*
X175730000Y-51574800D02*
X183350000Y-51574800D01*
X175730000Y-55130800D02*
X175730000Y-51574800D01*
X177762000Y-55130800D02*
X175730000Y-55130800D01*
D10*
%TO.C,C10*%
X141325752Y-69346500D02*
X139903248Y-69346500D01*
X141325752Y-71166500D02*
X139903248Y-71166500D01*
%TO.C,C11*%
X152539748Y-76826800D02*
X153962252Y-76826800D01*
X152539748Y-78646800D02*
X153962252Y-78646800D01*
%TO.C,C12*%
X152539748Y-66213500D02*
X153962252Y-66213500D01*
X152539748Y-64393500D02*
X153962252Y-64393500D01*
%TO.C,C13*%
X152539748Y-66806500D02*
X153962252Y-66806500D01*
X152539748Y-68626500D02*
X153962252Y-68626500D01*
%TO.C,C14*%
X171513548Y-71848400D02*
X172936052Y-71848400D01*
X171513548Y-73668400D02*
X172936052Y-73668400D01*
%TO.C,C15*%
X188125252Y-71848400D02*
X186702748Y-71848400D01*
X188125252Y-73668400D02*
X186702748Y-73668400D01*
%TO.C,Q3*%
X152356800Y-72451600D02*
X152356800Y-70991600D01*
X155516800Y-72451600D02*
X155516800Y-70291600D01*
X155516800Y-72451600D02*
X154586800Y-72451600D01*
X152356800Y-72451600D02*
X153286800Y-72451600D01*
%TO.C,Q5*%
X178122800Y-68340800D02*
X178122800Y-69800800D01*
X174962800Y-68340800D02*
X174962800Y-70500800D01*
X174962800Y-68340800D02*
X175892800Y-68340800D01*
X178122800Y-68340800D02*
X177192800Y-68340800D01*
%TO.C,Q6*%
X178021200Y-75808400D02*
X177091200Y-75808400D01*
X174861200Y-75808400D02*
X175791200Y-75808400D01*
X174861200Y-75808400D02*
X174861200Y-77968400D01*
X178021200Y-75808400D02*
X178021200Y-77268400D01*
%TO.C,Q7*%
X184726800Y-68340800D02*
X183796800Y-68340800D01*
X181566800Y-68340800D02*
X182496800Y-68340800D01*
X181566800Y-68340800D02*
X181566800Y-70500800D01*
X184726800Y-68340800D02*
X184726800Y-69800800D01*
%TO.C,Q8*%
X184676000Y-75859200D02*
X183746000Y-75859200D01*
X181516000Y-75859200D02*
X182446000Y-75859200D01*
X181516000Y-75859200D02*
X181516000Y-78019200D01*
X184676000Y-75859200D02*
X184676000Y-77319200D01*
%TO.C,R9*%
X139887436Y-74490000D02*
X141341564Y-74490000D01*
X139887436Y-76310000D02*
X141341564Y-76310000D01*
%TO.C,R10*%
X139887436Y-71696000D02*
X141341564Y-71696000D01*
X139887436Y-73516000D02*
X141341564Y-73516000D01*
%TO.C,R22*%
X152523936Y-76310000D02*
X153978064Y-76310000D01*
X152523936Y-74490000D02*
X153978064Y-74490000D01*
%TO.C,R24*%
X171459636Y-66806500D02*
X172913764Y-66806500D01*
X171459636Y-68626500D02*
X172913764Y-68626500D01*
%TO.C,R25*%
X171459636Y-69105200D02*
X172913764Y-69105200D01*
X171459636Y-70925200D02*
X172913764Y-70925200D01*
%TO.C,R26*%
X172913764Y-74680500D02*
X171459636Y-74680500D01*
X172913764Y-76500500D02*
X171459636Y-76500500D01*
%TO.C,R27*%
X172913764Y-78850000D02*
X171459636Y-78850000D01*
X172913764Y-77030000D02*
X171459636Y-77030000D01*
%TO.C,R28*%
X188141064Y-66857300D02*
X186686936Y-66857300D01*
X188141064Y-68677300D02*
X186686936Y-68677300D01*
%TO.C,R29*%
X188141064Y-69156000D02*
X186686936Y-69156000D01*
X188141064Y-70976000D02*
X186686936Y-70976000D01*
%TO.C,R30*%
X186686936Y-76551300D02*
X188141064Y-76551300D01*
X186686936Y-74731300D02*
X188141064Y-74731300D01*
%TO.C,R31*%
X186686936Y-77080800D02*
X188141064Y-77080800D01*
X186686936Y-78900800D02*
X188141064Y-78900800D01*
%TO.C,U3*%
X146964500Y-74404000D02*
X148914500Y-74404000D01*
X146964500Y-74404000D02*
X145014500Y-74404000D01*
X146964500Y-69284000D02*
X148914500Y-69284000D01*
X146964500Y-69284000D02*
X143514500Y-69284000D01*
%TO.C,Q2*%
X144363000Y-76156800D02*
X145823000Y-76156800D01*
X144363000Y-79316800D02*
X146523000Y-79316800D01*
X144363000Y-79316800D02*
X144363000Y-78386800D01*
X144363000Y-76156800D02*
X144363000Y-77086800D01*
%TO.C,Q4*%
X159319600Y-63111600D02*
X159319600Y-62181600D01*
X159319600Y-59951600D02*
X159319600Y-60881600D01*
X159319600Y-59951600D02*
X157159600Y-59951600D01*
X159319600Y-63111600D02*
X157859600Y-63111600D01*
%TO.C,C16*%
X176542748Y-71449200D02*
X177965252Y-71449200D01*
X176542748Y-74169200D02*
X177965252Y-74169200D01*
%TO.C,C17*%
X183096052Y-74169200D02*
X181673548Y-74169200D01*
X183096052Y-71449200D02*
X181673548Y-71449200D01*
%TO.C,D3*%
X196337400Y-66691600D02*
X196337400Y-70751600D01*
X198607400Y-66691600D02*
X196337400Y-66691600D01*
X198607400Y-70751600D02*
X198607400Y-66691600D01*
%TO.C,R21*%
X194174800Y-68424536D02*
X194174800Y-69878664D01*
X195994800Y-68424536D02*
X195994800Y-69878664D01*
%TO.C,R32*%
X176301337Y-63224600D02*
X174853863Y-63224600D01*
X176301337Y-65934600D02*
X174853863Y-65934600D01*
%TO.C,R33*%
X182778663Y-63275400D02*
X184226137Y-63275400D01*
X182778663Y-65985400D02*
X184226137Y-65985400D01*
%TO.C,C1*%
X165253600Y-98564852D02*
X165253600Y-97142348D01*
X162533600Y-98564852D02*
X162533600Y-97142348D01*
%TO.C,C7*%
X94540000Y-91503548D02*
X94540000Y-92926052D01*
X91820000Y-91503548D02*
X91820000Y-92926052D01*
%TO.C,C8*%
X91820000Y-68592748D02*
X91820000Y-70015252D01*
X94540000Y-68592748D02*
X94540000Y-70015252D01*
%TO.C,C18*%
X169368400Y-68389548D02*
X169368400Y-69812052D01*
X166648400Y-68389548D02*
X166648400Y-69812052D01*
%TO.C,C19*%
X190219600Y-68440348D02*
X190219600Y-69862852D01*
X192939600Y-68440348D02*
X192939600Y-69862852D01*
%TO.C,SW8*%
D11*
X182778666Y-95997761D02*
X182921523Y-96045380D01*
X183159619Y-96045380D01*
X183254857Y-95997761D01*
X183302476Y-95950142D01*
X183350095Y-95854904D01*
X183350095Y-95759666D01*
X183302476Y-95664428D01*
X183254857Y-95616809D01*
X183159619Y-95569190D01*
X182969142Y-95521571D01*
X182873904Y-95473952D01*
X182826285Y-95426333D01*
X182778666Y-95331095D01*
X182778666Y-95235857D01*
X182826285Y-95140619D01*
X182873904Y-95093000D01*
X182969142Y-95045380D01*
X183207238Y-95045380D01*
X183350095Y-95093000D01*
X183683428Y-95045380D02*
X183921523Y-96045380D01*
X184112000Y-95331095D01*
X184302476Y-96045380D01*
X184540571Y-95045380D01*
X185064380Y-95473952D02*
X184969142Y-95426333D01*
X184921523Y-95378714D01*
X184873904Y-95283476D01*
X184873904Y-95235857D01*
X184921523Y-95140619D01*
X184969142Y-95093000D01*
X185064380Y-95045380D01*
X185254857Y-95045380D01*
X185350095Y-95093000D01*
X185397714Y-95140619D01*
X185445333Y-95235857D01*
X185445333Y-95283476D01*
X185397714Y-95378714D01*
X185350095Y-95426333D01*
X185254857Y-95473952D01*
X185064380Y-95473952D01*
X184969142Y-95521571D01*
X184921523Y-95569190D01*
X184873904Y-95664428D01*
X184873904Y-95854904D01*
X184921523Y-95950142D01*
X184969142Y-95997761D01*
X185064380Y-96045380D01*
X185254857Y-96045380D01*
X185350095Y-95997761D01*
X185397714Y-95950142D01*
X185445333Y-95854904D01*
X185445333Y-95664428D01*
X185397714Y-95569190D01*
X185350095Y-95521571D01*
X185254857Y-95473952D01*
%TO.C,SW6*%
X76681666Y-81424761D02*
X76824523Y-81472380D01*
X77062619Y-81472380D01*
X77157857Y-81424761D01*
X77205476Y-81377142D01*
X77253095Y-81281904D01*
X77253095Y-81186666D01*
X77205476Y-81091428D01*
X77157857Y-81043809D01*
X77062619Y-80996190D01*
X76872142Y-80948571D01*
X76776904Y-80900952D01*
X76729285Y-80853333D01*
X76681666Y-80758095D01*
X76681666Y-80662857D01*
X76729285Y-80567619D01*
X76776904Y-80520000D01*
X76872142Y-80472380D01*
X77110238Y-80472380D01*
X77253095Y-80520000D01*
X77586428Y-80472380D02*
X77824523Y-81472380D01*
X78015000Y-80758095D01*
X78205476Y-81472380D01*
X78443571Y-80472380D01*
X79253095Y-80472380D02*
X79062619Y-80472380D01*
X78967380Y-80520000D01*
X78919761Y-80567619D01*
X78824523Y-80710476D01*
X78776904Y-80900952D01*
X78776904Y-81281904D01*
X78824523Y-81377142D01*
X78872142Y-81424761D01*
X78967380Y-81472380D01*
X79157857Y-81472380D01*
X79253095Y-81424761D01*
X79300714Y-81377142D01*
X79348333Y-81281904D01*
X79348333Y-81043809D01*
X79300714Y-80948571D01*
X79253095Y-80900952D01*
X79157857Y-80853333D01*
X78967380Y-80853333D01*
X78872142Y-80900952D01*
X78824523Y-80948571D01*
X78776904Y-81043809D01*
%TO.C,R5*%
X108530380Y-69470666D02*
X108054190Y-69804000D01*
X108530380Y-70042095D02*
X107530380Y-70042095D01*
X107530380Y-69661142D01*
X107578000Y-69565904D01*
X107625619Y-69518285D01*
X107720857Y-69470666D01*
X107863714Y-69470666D01*
X107958952Y-69518285D01*
X108006571Y-69565904D01*
X108054190Y-69661142D01*
X108054190Y-70042095D01*
X107530380Y-68565904D02*
X107530380Y-69042095D01*
X108006571Y-69089714D01*
X107958952Y-69042095D01*
X107911333Y-68946857D01*
X107911333Y-68708761D01*
X107958952Y-68613523D01*
X108006571Y-68565904D01*
X108101809Y-68518285D01*
X108339904Y-68518285D01*
X108435142Y-68565904D01*
X108482761Y-68613523D01*
X108530380Y-68708761D01*
X108530380Y-68946857D01*
X108482761Y-69042095D01*
X108435142Y-69089714D01*
%TO.C,H9*%
X88608095Y-53602380D02*
X88608095Y-52602380D01*
X88608095Y-53078571D02*
X89179523Y-53078571D01*
X89179523Y-53602380D02*
X89179523Y-52602380D01*
X89703333Y-53602380D02*
X89893809Y-53602380D01*
X89989047Y-53554761D01*
X90036666Y-53507142D01*
X90131904Y-53364285D01*
X90179523Y-53173809D01*
X90179523Y-52792857D01*
X90131904Y-52697619D01*
X90084285Y-52650000D01*
X89989047Y-52602380D01*
X89798571Y-52602380D01*
X89703333Y-52650000D01*
X89655714Y-52697619D01*
X89608095Y-52792857D01*
X89608095Y-53030952D01*
X89655714Y-53126190D01*
X89703333Y-53173809D01*
X89798571Y-53221428D01*
X89989047Y-53221428D01*
X90084285Y-53173809D01*
X90131904Y-53126190D01*
X90179523Y-53030952D01*
%TO.C,R7*%
X100109380Y-69470666D02*
X99633190Y-69804000D01*
X100109380Y-70042095D02*
X99109380Y-70042095D01*
X99109380Y-69661142D01*
X99157000Y-69565904D01*
X99204619Y-69518285D01*
X99299857Y-69470666D01*
X99442714Y-69470666D01*
X99537952Y-69518285D01*
X99585571Y-69565904D01*
X99633190Y-69661142D01*
X99633190Y-70042095D01*
X99109380Y-69137333D02*
X99109380Y-68470666D01*
X100109380Y-68899238D01*
%TO.C,C9*%
X97601142Y-69470666D02*
X97648761Y-69518285D01*
X97696380Y-69661142D01*
X97696380Y-69756380D01*
X97648761Y-69899238D01*
X97553523Y-69994476D01*
X97458285Y-70042095D01*
X97267809Y-70089714D01*
X97124952Y-70089714D01*
X96934476Y-70042095D01*
X96839238Y-69994476D01*
X96744000Y-69899238D01*
X96696380Y-69756380D01*
X96696380Y-69661142D01*
X96744000Y-69518285D01*
X96791619Y-69470666D01*
X97696380Y-68994476D02*
X97696380Y-68804000D01*
X97648761Y-68708761D01*
X97601142Y-68661142D01*
X97458285Y-68565904D01*
X97267809Y-68518285D01*
X96886857Y-68518285D01*
X96791619Y-68565904D01*
X96744000Y-68613523D01*
X96696380Y-68708761D01*
X96696380Y-68899238D01*
X96744000Y-68994476D01*
X96791619Y-69042095D01*
X96886857Y-69089714D01*
X97124952Y-69089714D01*
X97220190Y-69042095D01*
X97267809Y-68994476D01*
X97315428Y-68899238D01*
X97315428Y-68708761D01*
X97267809Y-68613523D01*
X97220190Y-68565904D01*
X97124952Y-68518285D01*
%TO.C,R6*%
X102522380Y-69470666D02*
X102046190Y-69804000D01*
X102522380Y-70042095D02*
X101522380Y-70042095D01*
X101522380Y-69661142D01*
X101570000Y-69565904D01*
X101617619Y-69518285D01*
X101712857Y-69470666D01*
X101855714Y-69470666D01*
X101950952Y-69518285D01*
X101998571Y-69565904D01*
X102046190Y-69661142D01*
X102046190Y-70042095D01*
X101522380Y-68613523D02*
X101522380Y-68804000D01*
X101570000Y-68899238D01*
X101617619Y-68946857D01*
X101760476Y-69042095D01*
X101950952Y-69089714D01*
X102331904Y-69089714D01*
X102427142Y-69042095D01*
X102474761Y-68994476D01*
X102522380Y-68899238D01*
X102522380Y-68708761D01*
X102474761Y-68613523D01*
X102427142Y-68565904D01*
X102331904Y-68518285D01*
X102093809Y-68518285D01*
X101998571Y-68565904D01*
X101950952Y-68613523D01*
X101903333Y-68708761D01*
X101903333Y-68899238D01*
X101950952Y-68994476D01*
X101998571Y-69042095D01*
X102093809Y-69089714D01*
%TO.C,SW9*%
X97636666Y-111364761D02*
X97779523Y-111412380D01*
X98017619Y-111412380D01*
X98112857Y-111364761D01*
X98160476Y-111317142D01*
X98208095Y-111221904D01*
X98208095Y-111126666D01*
X98160476Y-111031428D01*
X98112857Y-110983809D01*
X98017619Y-110936190D01*
X97827142Y-110888571D01*
X97731904Y-110840952D01*
X97684285Y-110793333D01*
X97636666Y-110698095D01*
X97636666Y-110602857D01*
X97684285Y-110507619D01*
X97731904Y-110460000D01*
X97827142Y-110412380D01*
X98065238Y-110412380D01*
X98208095Y-110460000D01*
X98541428Y-110412380D02*
X98779523Y-111412380D01*
X98970000Y-110698095D01*
X99160476Y-111412380D01*
X99398571Y-110412380D01*
X99827142Y-111412380D02*
X100017619Y-111412380D01*
X100112857Y-111364761D01*
X100160476Y-111317142D01*
X100255714Y-111174285D01*
X100303333Y-110983809D01*
X100303333Y-110602857D01*
X100255714Y-110507619D01*
X100208095Y-110460000D01*
X100112857Y-110412380D01*
X99922380Y-110412380D01*
X99827142Y-110460000D01*
X99779523Y-110507619D01*
X99731904Y-110602857D01*
X99731904Y-110840952D01*
X99779523Y-110936190D01*
X99827142Y-110983809D01*
X99922380Y-111031428D01*
X100112857Y-111031428D01*
X100208095Y-110983809D01*
X100255714Y-110936190D01*
X100303333Y-110840952D01*
%TO.C,R3*%
X167292380Y-111444666D02*
X166816190Y-111778000D01*
X167292380Y-112016095D02*
X166292380Y-112016095D01*
X166292380Y-111635142D01*
X166340000Y-111539904D01*
X166387619Y-111492285D01*
X166482857Y-111444666D01*
X166625714Y-111444666D01*
X166720952Y-111492285D01*
X166768571Y-111539904D01*
X166816190Y-111635142D01*
X166816190Y-112016095D01*
X166292380Y-111111333D02*
X166292380Y-110492285D01*
X166673333Y-110825619D01*
X166673333Y-110682761D01*
X166720952Y-110587523D01*
X166768571Y-110539904D01*
X166863809Y-110492285D01*
X167101904Y-110492285D01*
X167197142Y-110539904D01*
X167244761Y-110587523D01*
X167292380Y-110682761D01*
X167292380Y-110968476D01*
X167244761Y-111063714D01*
X167197142Y-111111333D01*
%TO.C,D2*%
X164879380Y-111952095D02*
X163879380Y-111952095D01*
X163879380Y-111714000D01*
X163927000Y-111571142D01*
X164022238Y-111475904D01*
X164117476Y-111428285D01*
X164307952Y-111380666D01*
X164450809Y-111380666D01*
X164641285Y-111428285D01*
X164736523Y-111475904D01*
X164831761Y-111571142D01*
X164879380Y-111714000D01*
X164879380Y-111952095D01*
X163974619Y-110999714D02*
X163927000Y-110952095D01*
X163879380Y-110856857D01*
X163879380Y-110618761D01*
X163927000Y-110523523D01*
X163974619Y-110475904D01*
X164069857Y-110428285D01*
X164165095Y-110428285D01*
X164307952Y-110475904D01*
X164879380Y-111047333D01*
X164879380Y-110428285D01*
%TO.C,C2*%
X161361142Y-98012666D02*
X161408761Y-98060285D01*
X161456380Y-98203142D01*
X161456380Y-98298380D01*
X161408761Y-98441238D01*
X161313523Y-98536476D01*
X161218285Y-98584095D01*
X161027809Y-98631714D01*
X160884952Y-98631714D01*
X160694476Y-98584095D01*
X160599238Y-98536476D01*
X160504000Y-98441238D01*
X160456380Y-98298380D01*
X160456380Y-98203142D01*
X160504000Y-98060285D01*
X160551619Y-98012666D01*
X160551619Y-97631714D02*
X160504000Y-97584095D01*
X160456380Y-97488857D01*
X160456380Y-97250761D01*
X160504000Y-97155523D01*
X160551619Y-97107904D01*
X160646857Y-97060285D01*
X160742095Y-97060285D01*
X160884952Y-97107904D01*
X161456380Y-97679333D01*
X161456380Y-97060285D01*
%TO.C,C4*%
X140511333Y-63747142D02*
X140463714Y-63794761D01*
X140320857Y-63842380D01*
X140225619Y-63842380D01*
X140082761Y-63794761D01*
X139987523Y-63699523D01*
X139939904Y-63604285D01*
X139892285Y-63413809D01*
X139892285Y-63270952D01*
X139939904Y-63080476D01*
X139987523Y-62985238D01*
X140082761Y-62890000D01*
X140225619Y-62842380D01*
X140320857Y-62842380D01*
X140463714Y-62890000D01*
X140511333Y-62937619D01*
X141368476Y-63175714D02*
X141368476Y-63842380D01*
X141130380Y-62794761D02*
X140892285Y-63509047D01*
X141511333Y-63509047D01*
%TO.C,C5*%
X147512142Y-102998666D02*
X147559761Y-103046285D01*
X147607380Y-103189142D01*
X147607380Y-103284380D01*
X147559761Y-103427238D01*
X147464523Y-103522476D01*
X147369285Y-103570095D01*
X147178809Y-103617714D01*
X147035952Y-103617714D01*
X146845476Y-103570095D01*
X146750238Y-103522476D01*
X146655000Y-103427238D01*
X146607380Y-103284380D01*
X146607380Y-103189142D01*
X146655000Y-103046285D01*
X146702619Y-102998666D01*
X146607380Y-102093904D02*
X146607380Y-102570095D01*
X147083571Y-102617714D01*
X147035952Y-102570095D01*
X146988333Y-102474857D01*
X146988333Y-102236761D01*
X147035952Y-102141523D01*
X147083571Y-102093904D01*
X147178809Y-102046285D01*
X147416904Y-102046285D01*
X147512142Y-102093904D01*
X147559761Y-102141523D01*
X147607380Y-102236761D01*
X147607380Y-102474857D01*
X147559761Y-102570095D01*
X147512142Y-102617714D01*
%TO.C,D1*%
X158956380Y-98584095D02*
X157956380Y-98584095D01*
X157956380Y-98346000D01*
X158004000Y-98203142D01*
X158099238Y-98107904D01*
X158194476Y-98060285D01*
X158384952Y-98012666D01*
X158527809Y-98012666D01*
X158718285Y-98060285D01*
X158813523Y-98107904D01*
X158908761Y-98203142D01*
X158956380Y-98346000D01*
X158956380Y-98584095D01*
X158956380Y-97060285D02*
X158956380Y-97631714D01*
X158956380Y-97346000D02*
X157956380Y-97346000D01*
X158099238Y-97441238D01*
X158194476Y-97536476D01*
X158242095Y-97631714D01*
%TO.C,F1*%
X166694571Y-98179333D02*
X166694571Y-98512666D01*
X167218380Y-98512666D02*
X166218380Y-98512666D01*
X166218380Y-98036476D01*
X167218380Y-97131714D02*
X167218380Y-97703142D01*
X167218380Y-97417428D02*
X166218380Y-97417428D01*
X166361238Y-97512666D01*
X166456476Y-97607904D01*
X166504095Y-97703142D01*
%TO.C,H1*%
X68288095Y-52032380D02*
X68288095Y-51032380D01*
X68288095Y-51508571D02*
X68859523Y-51508571D01*
X68859523Y-52032380D02*
X68859523Y-51032380D01*
X69859523Y-52032380D02*
X69288095Y-52032380D01*
X69573809Y-52032380D02*
X69573809Y-51032380D01*
X69478571Y-51175238D01*
X69383333Y-51270476D01*
X69288095Y-51318095D01*
%TO.C,H2*%
X68288095Y-111722380D02*
X68288095Y-110722380D01*
X68288095Y-111198571D02*
X68859523Y-111198571D01*
X68859523Y-111722380D02*
X68859523Y-110722380D01*
X69288095Y-110817619D02*
X69335714Y-110770000D01*
X69430952Y-110722380D01*
X69669047Y-110722380D01*
X69764285Y-110770000D01*
X69811904Y-110817619D01*
X69859523Y-110912857D01*
X69859523Y-111008095D01*
X69811904Y-111150952D01*
X69240476Y-111722380D01*
X69859523Y-111722380D01*
%TO.C,H3*%
X150838095Y-52032380D02*
X150838095Y-51032380D01*
X150838095Y-51508571D02*
X151409523Y-51508571D01*
X151409523Y-52032380D02*
X151409523Y-51032380D01*
X151790476Y-51032380D02*
X152409523Y-51032380D01*
X152076190Y-51413333D01*
X152219047Y-51413333D01*
X152314285Y-51460952D01*
X152361904Y-51508571D01*
X152409523Y-51603809D01*
X152409523Y-51841904D01*
X152361904Y-51937142D01*
X152314285Y-51984761D01*
X152219047Y-52032380D01*
X151933333Y-52032380D01*
X151838095Y-51984761D01*
X151790476Y-51937142D01*
%TO.C,H4*%
X182588095Y-111722380D02*
X182588095Y-110722380D01*
X182588095Y-111198571D02*
X183159523Y-111198571D01*
X183159523Y-111722380D02*
X183159523Y-110722380D01*
X184064285Y-111055714D02*
X184064285Y-111722380D01*
X183826190Y-110674761D02*
X183588095Y-111389047D01*
X184207142Y-111389047D01*
%TO.C,H5*%
X77178095Y-92672380D02*
X77178095Y-91672380D01*
X77178095Y-92148571D02*
X77749523Y-92148571D01*
X77749523Y-92672380D02*
X77749523Y-91672380D01*
X78701904Y-91672380D02*
X78225714Y-91672380D01*
X78178095Y-92148571D01*
X78225714Y-92100952D01*
X78320952Y-92053333D01*
X78559047Y-92053333D01*
X78654285Y-92100952D01*
X78701904Y-92148571D01*
X78749523Y-92243809D01*
X78749523Y-92481904D01*
X78701904Y-92577142D01*
X78654285Y-92624761D01*
X78559047Y-92672380D01*
X78320952Y-92672380D01*
X78225714Y-92624761D01*
X78178095Y-92577142D01*
%TO.C,H6*%
X188938095Y-59652380D02*
X188938095Y-58652380D01*
X188938095Y-59128571D02*
X189509523Y-59128571D01*
X189509523Y-59652380D02*
X189509523Y-58652380D01*
X190414285Y-58652380D02*
X190223809Y-58652380D01*
X190128571Y-58700000D01*
X190080952Y-58747619D01*
X189985714Y-58890476D01*
X189938095Y-59080952D01*
X189938095Y-59461904D01*
X189985714Y-59557142D01*
X190033333Y-59604761D01*
X190128571Y-59652380D01*
X190319047Y-59652380D01*
X190414285Y-59604761D01*
X190461904Y-59557142D01*
X190509523Y-59461904D01*
X190509523Y-59223809D01*
X190461904Y-59128571D01*
X190414285Y-59080952D01*
X190319047Y-59033333D01*
X190128571Y-59033333D01*
X190033333Y-59080952D01*
X189985714Y-59128571D01*
X189938095Y-59223809D01*
%TO.C,H7*%
X167348095Y-53602380D02*
X167348095Y-52602380D01*
X167348095Y-53078571D02*
X167919523Y-53078571D01*
X167919523Y-53602380D02*
X167919523Y-52602380D01*
X168300476Y-52602380D02*
X168967142Y-52602380D01*
X168538571Y-53602380D01*
%TO.C,H8*%
X167348095Y-101862380D02*
X167348095Y-100862380D01*
X167348095Y-101338571D02*
X167919523Y-101338571D01*
X167919523Y-101862380D02*
X167919523Y-100862380D01*
X168538571Y-101290952D02*
X168443333Y-101243333D01*
X168395714Y-101195714D01*
X168348095Y-101100476D01*
X168348095Y-101052857D01*
X168395714Y-100957619D01*
X168443333Y-100910000D01*
X168538571Y-100862380D01*
X168729047Y-100862380D01*
X168824285Y-100910000D01*
X168871904Y-100957619D01*
X168919523Y-101052857D01*
X168919523Y-101100476D01*
X168871904Y-101195714D01*
X168824285Y-101243333D01*
X168729047Y-101290952D01*
X168538571Y-101290952D01*
X168443333Y-101338571D01*
X168395714Y-101386190D01*
X168348095Y-101481428D01*
X168348095Y-101671904D01*
X168395714Y-101767142D01*
X168443333Y-101814761D01*
X168538571Y-101862380D01*
X168729047Y-101862380D01*
X168824285Y-101814761D01*
X168871904Y-101767142D01*
X168919523Y-101671904D01*
X168919523Y-101481428D01*
X168871904Y-101386190D01*
X168824285Y-101338571D01*
X168729047Y-101290952D01*
%TO.C,H10*%
X88131904Y-101862380D02*
X88131904Y-100862380D01*
X88131904Y-101338571D02*
X88703333Y-101338571D01*
X88703333Y-101862380D02*
X88703333Y-100862380D01*
X89703333Y-101862380D02*
X89131904Y-101862380D01*
X89417619Y-101862380D02*
X89417619Y-100862380D01*
X89322380Y-101005238D01*
X89227142Y-101100476D01*
X89131904Y-101148095D01*
X90322380Y-100862380D02*
X90417619Y-100862380D01*
X90512857Y-100910000D01*
X90560476Y-100957619D01*
X90608095Y-101052857D01*
X90655714Y-101243333D01*
X90655714Y-101481428D01*
X90608095Y-101671904D01*
X90560476Y-101767142D01*
X90512857Y-101814761D01*
X90417619Y-101862380D01*
X90322380Y-101862380D01*
X90227142Y-101814761D01*
X90179523Y-101767142D01*
X90131904Y-101671904D01*
X90084285Y-101481428D01*
X90084285Y-101243333D01*
X90131904Y-101052857D01*
X90179523Y-100957619D01*
X90227142Y-100910000D01*
X90322380Y-100862380D01*
%TO.C,Q1*%
X149599761Y-97918619D02*
X149504523Y-97871000D01*
X149409285Y-97775761D01*
X149266428Y-97632904D01*
X149171190Y-97585285D01*
X149075952Y-97585285D01*
X149123571Y-97823380D02*
X149028333Y-97775761D01*
X148933095Y-97680523D01*
X148885476Y-97490047D01*
X148885476Y-97156714D01*
X148933095Y-96966238D01*
X149028333Y-96871000D01*
X149123571Y-96823380D01*
X149314047Y-96823380D01*
X149409285Y-96871000D01*
X149504523Y-96966238D01*
X149552142Y-97156714D01*
X149552142Y-97490047D01*
X149504523Y-97680523D01*
X149409285Y-97775761D01*
X149314047Y-97823380D01*
X149123571Y-97823380D01*
X150504523Y-97823380D02*
X149933095Y-97823380D01*
X150218809Y-97823380D02*
X150218809Y-96823380D01*
X150123571Y-96966238D01*
X150028333Y-97061476D01*
X149933095Y-97109095D01*
%TO.C,R1*%
X153830380Y-98045666D02*
X153354190Y-98379000D01*
X153830380Y-98617095D02*
X152830380Y-98617095D01*
X152830380Y-98236142D01*
X152878000Y-98140904D01*
X152925619Y-98093285D01*
X153020857Y-98045666D01*
X153163714Y-98045666D01*
X153258952Y-98093285D01*
X153306571Y-98140904D01*
X153354190Y-98236142D01*
X153354190Y-98617095D01*
X153830380Y-97093285D02*
X153830380Y-97664714D01*
X153830380Y-97379000D02*
X152830380Y-97379000D01*
X152973238Y-97474238D01*
X153068476Y-97569476D01*
X153116095Y-97664714D01*
%TO.C,R2*%
X156456380Y-98012666D02*
X155980190Y-98346000D01*
X156456380Y-98584095D02*
X155456380Y-98584095D01*
X155456380Y-98203142D01*
X155504000Y-98107904D01*
X155551619Y-98060285D01*
X155646857Y-98012666D01*
X155789714Y-98012666D01*
X155884952Y-98060285D01*
X155932571Y-98107904D01*
X155980190Y-98203142D01*
X155980190Y-98584095D01*
X155551619Y-97631714D02*
X155504000Y-97584095D01*
X155456380Y-97488857D01*
X155456380Y-97250761D01*
X155504000Y-97155523D01*
X155551619Y-97107904D01*
X155646857Y-97060285D01*
X155742095Y-97060285D01*
X155884952Y-97107904D01*
X156456380Y-97679333D01*
X156456380Y-97060285D01*
%TO.C,R4*%
X145067380Y-102998666D02*
X144591190Y-103332000D01*
X145067380Y-103570095D02*
X144067380Y-103570095D01*
X144067380Y-103189142D01*
X144115000Y-103093904D01*
X144162619Y-103046285D01*
X144257857Y-102998666D01*
X144400714Y-102998666D01*
X144495952Y-103046285D01*
X144543571Y-103093904D01*
X144591190Y-103189142D01*
X144591190Y-103570095D01*
X144400714Y-102141523D02*
X145067380Y-102141523D01*
X144019761Y-102379619D02*
X144734047Y-102617714D01*
X144734047Y-101998666D01*
%TO.C,R11*%
X152608142Y-61056880D02*
X152274809Y-60580690D01*
X152036714Y-61056880D02*
X152036714Y-60056880D01*
X152417666Y-60056880D01*
X152512904Y-60104500D01*
X152560523Y-60152119D01*
X152608142Y-60247357D01*
X152608142Y-60390214D01*
X152560523Y-60485452D01*
X152512904Y-60533071D01*
X152417666Y-60580690D01*
X152036714Y-60580690D01*
X153560523Y-61056880D02*
X152989095Y-61056880D01*
X153274809Y-61056880D02*
X153274809Y-60056880D01*
X153179571Y-60199738D01*
X153084333Y-60294976D01*
X152989095Y-60342595D01*
X154512904Y-61056880D02*
X153941476Y-61056880D01*
X154227190Y-61056880D02*
X154227190Y-60056880D01*
X154131952Y-60199738D01*
X154036714Y-60294976D01*
X153941476Y-60342595D01*
%TO.C,R12*%
X158678742Y-65793980D02*
X158345409Y-65317790D01*
X158107314Y-65793980D02*
X158107314Y-64793980D01*
X158488266Y-64793980D01*
X158583504Y-64841600D01*
X158631123Y-64889219D01*
X158678742Y-64984457D01*
X158678742Y-65127314D01*
X158631123Y-65222552D01*
X158583504Y-65270171D01*
X158488266Y-65317790D01*
X158107314Y-65317790D01*
X159631123Y-65793980D02*
X159059695Y-65793980D01*
X159345409Y-65793980D02*
X159345409Y-64793980D01*
X159250171Y-64936838D01*
X159154933Y-65032076D01*
X159059695Y-65079695D01*
X160012076Y-64889219D02*
X160059695Y-64841600D01*
X160154933Y-64793980D01*
X160393028Y-64793980D01*
X160488266Y-64841600D01*
X160535885Y-64889219D01*
X160583504Y-64984457D01*
X160583504Y-65079695D01*
X160535885Y-65222552D01*
X159964457Y-65793980D01*
X160583504Y-65793980D01*
%TO.C,SW3*%
X66521666Y-71264761D02*
X66664523Y-71312380D01*
X66902619Y-71312380D01*
X66997857Y-71264761D01*
X67045476Y-71217142D01*
X67093095Y-71121904D01*
X67093095Y-71026666D01*
X67045476Y-70931428D01*
X66997857Y-70883809D01*
X66902619Y-70836190D01*
X66712142Y-70788571D01*
X66616904Y-70740952D01*
X66569285Y-70693333D01*
X66521666Y-70598095D01*
X66521666Y-70502857D01*
X66569285Y-70407619D01*
X66616904Y-70360000D01*
X66712142Y-70312380D01*
X66950238Y-70312380D01*
X67093095Y-70360000D01*
X67426428Y-70312380D02*
X67664523Y-71312380D01*
X67855000Y-70598095D01*
X68045476Y-71312380D01*
X68283571Y-70312380D01*
X68569285Y-70312380D02*
X69188333Y-70312380D01*
X68855000Y-70693333D01*
X68997857Y-70693333D01*
X69093095Y-70740952D01*
X69140714Y-70788571D01*
X69188333Y-70883809D01*
X69188333Y-71121904D01*
X69140714Y-71217142D01*
X69093095Y-71264761D01*
X68997857Y-71312380D01*
X68712142Y-71312380D01*
X68616904Y-71264761D01*
X68569285Y-71217142D01*
%TO.C,SW4*%
X66521666Y-91584761D02*
X66664523Y-91632380D01*
X66902619Y-91632380D01*
X66997857Y-91584761D01*
X67045476Y-91537142D01*
X67093095Y-91441904D01*
X67093095Y-91346666D01*
X67045476Y-91251428D01*
X66997857Y-91203809D01*
X66902619Y-91156190D01*
X66712142Y-91108571D01*
X66616904Y-91060952D01*
X66569285Y-91013333D01*
X66521666Y-90918095D01*
X66521666Y-90822857D01*
X66569285Y-90727619D01*
X66616904Y-90680000D01*
X66712142Y-90632380D01*
X66950238Y-90632380D01*
X67093095Y-90680000D01*
X67426428Y-90632380D02*
X67664523Y-91632380D01*
X67855000Y-90918095D01*
X68045476Y-91632380D01*
X68283571Y-90632380D01*
X69093095Y-90965714D02*
X69093095Y-91632380D01*
X68855000Y-90584761D02*
X68616904Y-91299047D01*
X69235952Y-91299047D01*
%TO.C,SW5*%
X56361666Y-81424761D02*
X56504523Y-81472380D01*
X56742619Y-81472380D01*
X56837857Y-81424761D01*
X56885476Y-81377142D01*
X56933095Y-81281904D01*
X56933095Y-81186666D01*
X56885476Y-81091428D01*
X56837857Y-81043809D01*
X56742619Y-80996190D01*
X56552142Y-80948571D01*
X56456904Y-80900952D01*
X56409285Y-80853333D01*
X56361666Y-80758095D01*
X56361666Y-80662857D01*
X56409285Y-80567619D01*
X56456904Y-80520000D01*
X56552142Y-80472380D01*
X56790238Y-80472380D01*
X56933095Y-80520000D01*
X57266428Y-80472380D02*
X57504523Y-81472380D01*
X57695000Y-80758095D01*
X57885476Y-81472380D01*
X58123571Y-80472380D01*
X58980714Y-80472380D02*
X58504523Y-80472380D01*
X58456904Y-80948571D01*
X58504523Y-80900952D01*
X58599761Y-80853333D01*
X58837857Y-80853333D01*
X58933095Y-80900952D01*
X58980714Y-80948571D01*
X59028333Y-81043809D01*
X59028333Y-81281904D01*
X58980714Y-81377142D01*
X58933095Y-81424761D01*
X58837857Y-81472380D01*
X58599761Y-81472380D01*
X58504523Y-81424761D01*
X58456904Y-81377142D01*
%TO.C,SW7*%
X193065666Y-85837761D02*
X193208523Y-85885380D01*
X193446619Y-85885380D01*
X193541857Y-85837761D01*
X193589476Y-85790142D01*
X193637095Y-85694904D01*
X193637095Y-85599666D01*
X193589476Y-85504428D01*
X193541857Y-85456809D01*
X193446619Y-85409190D01*
X193256142Y-85361571D01*
X193160904Y-85313952D01*
X193113285Y-85266333D01*
X193065666Y-85171095D01*
X193065666Y-85075857D01*
X193113285Y-84980619D01*
X193160904Y-84933000D01*
X193256142Y-84885380D01*
X193494238Y-84885380D01*
X193637095Y-84933000D01*
X193970428Y-84885380D02*
X194208523Y-85885380D01*
X194399000Y-85171095D01*
X194589476Y-85885380D01*
X194827571Y-84885380D01*
X195113285Y-84885380D02*
X195779952Y-84885380D01*
X195351380Y-85885380D01*
%TO.C,TP1*%
X169896095Y-94359380D02*
X170467523Y-94359380D01*
X170181809Y-95359380D02*
X170181809Y-94359380D01*
X170800857Y-95359380D02*
X170800857Y-94359380D01*
X171181809Y-94359380D01*
X171277047Y-94407000D01*
X171324666Y-94454619D01*
X171372285Y-94549857D01*
X171372285Y-94692714D01*
X171324666Y-94787952D01*
X171277047Y-94835571D01*
X171181809Y-94883190D01*
X170800857Y-94883190D01*
X172324666Y-95359380D02*
X171753238Y-95359380D01*
X172038952Y-95359380D02*
X172038952Y-94359380D01*
X171943714Y-94502238D01*
X171848476Y-94597476D01*
X171753238Y-94645095D01*
%TO.C,TP2*%
X169896095Y-99312380D02*
X170467523Y-99312380D01*
X170181809Y-100312380D02*
X170181809Y-99312380D01*
X170800857Y-100312380D02*
X170800857Y-99312380D01*
X171181809Y-99312380D01*
X171277047Y-99360000D01*
X171324666Y-99407619D01*
X171372285Y-99502857D01*
X171372285Y-99645714D01*
X171324666Y-99740952D01*
X171277047Y-99788571D01*
X171181809Y-99836190D01*
X170800857Y-99836190D01*
X171753238Y-99407619D02*
X171800857Y-99360000D01*
X171896095Y-99312380D01*
X172134190Y-99312380D01*
X172229428Y-99360000D01*
X172277047Y-99407619D01*
X172324666Y-99502857D01*
X172324666Y-99598095D01*
X172277047Y-99740952D01*
X171705619Y-100312380D01*
X172324666Y-100312380D01*
%TO.C,U1*%
X125438095Y-76122380D02*
X125438095Y-76931904D01*
X125485714Y-77027142D01*
X125533333Y-77074761D01*
X125628571Y-77122380D01*
X125819047Y-77122380D01*
X125914285Y-77074761D01*
X125961904Y-77027142D01*
X126009523Y-76931904D01*
X126009523Y-76122380D01*
X127009523Y-77122380D02*
X126438095Y-77122380D01*
X126723809Y-77122380D02*
X126723809Y-76122380D01*
X126628571Y-76265238D01*
X126533333Y-76360476D01*
X126438095Y-76408095D01*
X112613096Y-55191218D02*
X112532284Y-55218155D01*
X112451471Y-55298967D01*
X112397597Y-55406717D01*
X112397597Y-55514467D01*
X112424534Y-55595279D01*
X112505346Y-55729966D01*
X112586158Y-55810778D01*
X112720845Y-55891590D01*
X112801658Y-55918528D01*
X112909407Y-55918528D01*
X113017157Y-55864653D01*
X113071032Y-55810778D01*
X113124906Y-55703028D01*
X113124906Y-55649154D01*
X112936345Y-55460592D01*
X112828595Y-55568341D01*
X113421218Y-55460592D02*
X112855532Y-54894906D01*
X113071032Y-54679407D01*
X113151844Y-54652470D01*
X113205719Y-54652470D01*
X113286531Y-54679407D01*
X113367343Y-54760219D01*
X113394280Y-54841032D01*
X113394280Y-54894906D01*
X113367343Y-54975719D01*
X113151844Y-55191218D01*
X114283215Y-54598595D02*
X113959966Y-54921844D01*
X114121590Y-54760219D02*
X113555905Y-54194534D01*
X113582842Y-54329221D01*
X113582842Y-54436971D01*
X113555905Y-54517783D01*
X112613096Y-60281218D02*
X112532284Y-60308155D01*
X112451471Y-60388967D01*
X112397597Y-60496717D01*
X112397597Y-60604467D01*
X112424534Y-60685279D01*
X112505346Y-60819966D01*
X112586158Y-60900778D01*
X112720845Y-60981590D01*
X112801658Y-61008528D01*
X112909407Y-61008528D01*
X113017157Y-60954653D01*
X113071032Y-60900778D01*
X113124906Y-60793028D01*
X113124906Y-60739154D01*
X112936345Y-60550592D01*
X112828595Y-60658341D01*
X113421218Y-60550592D02*
X112855532Y-59984906D01*
X113071032Y-59769407D01*
X113151844Y-59742470D01*
X113205719Y-59742470D01*
X113286531Y-59769407D01*
X113367343Y-59850219D01*
X113394280Y-59931032D01*
X113394280Y-59984906D01*
X113367343Y-60065719D01*
X113151844Y-60281218D01*
X113448155Y-59500033D02*
X113448155Y-59446158D01*
X113475093Y-59365346D01*
X113609780Y-59230659D01*
X113690592Y-59203722D01*
X113744467Y-59203722D01*
X113825279Y-59230659D01*
X113879154Y-59284534D01*
X113933028Y-59392284D01*
X113933028Y-60038781D01*
X114283215Y-59688595D01*
X112713096Y-52661218D02*
X112632284Y-52688155D01*
X112551471Y-52768967D01*
X112497597Y-52876717D01*
X112497597Y-52984467D01*
X112524534Y-53065279D01*
X112605346Y-53199966D01*
X112686158Y-53280778D01*
X112820845Y-53361590D01*
X112901658Y-53388528D01*
X113009407Y-53388528D01*
X113117157Y-53334653D01*
X113171032Y-53280778D01*
X113224906Y-53173028D01*
X113224906Y-53119154D01*
X113036345Y-52930592D01*
X112928595Y-53038341D01*
X113521218Y-52930592D02*
X112955532Y-52364906D01*
X113171032Y-52149407D01*
X113251844Y-52122470D01*
X113305719Y-52122470D01*
X113386531Y-52149407D01*
X113467343Y-52230219D01*
X113494280Y-52311032D01*
X113494280Y-52364906D01*
X113467343Y-52445719D01*
X113251844Y-52661218D01*
X113628967Y-51691471D02*
X113682842Y-51637597D01*
X113763654Y-51610659D01*
X113817529Y-51610659D01*
X113898341Y-51637597D01*
X114033028Y-51718409D01*
X114167715Y-51853096D01*
X114248528Y-51987783D01*
X114275465Y-52068595D01*
X114275465Y-52122470D01*
X114248528Y-52203282D01*
X114194653Y-52257157D01*
X114113841Y-52284094D01*
X114059966Y-52284094D01*
X113979154Y-52257157D01*
X113844467Y-52176345D01*
X113709780Y-52041658D01*
X113628967Y-51906971D01*
X113602030Y-51826158D01*
X113602030Y-51772284D01*
X113628967Y-51691471D01*
X112713096Y-62821218D02*
X112632284Y-62848155D01*
X112551471Y-62928967D01*
X112497597Y-63036717D01*
X112497597Y-63144467D01*
X112524534Y-63225279D01*
X112605346Y-63359966D01*
X112686158Y-63440778D01*
X112820845Y-63521590D01*
X112901658Y-63548528D01*
X113009407Y-63548528D01*
X113117157Y-63494653D01*
X113171032Y-63440778D01*
X113224906Y-63333028D01*
X113224906Y-63279154D01*
X113036345Y-63090592D01*
X112928595Y-63198341D01*
X113521218Y-63090592D02*
X112955532Y-62524906D01*
X113171032Y-62309407D01*
X113251844Y-62282470D01*
X113305719Y-62282470D01*
X113386531Y-62309407D01*
X113467343Y-62390219D01*
X113494280Y-62471032D01*
X113494280Y-62524906D01*
X113467343Y-62605719D01*
X113251844Y-62821218D01*
X113467343Y-62013096D02*
X113817529Y-61662910D01*
X113844467Y-62066971D01*
X113925279Y-61986158D01*
X114006091Y-61959221D01*
X114059966Y-61959221D01*
X114140778Y-61986158D01*
X114275465Y-62120845D01*
X114302402Y-62201658D01*
X114302402Y-62255532D01*
X114275465Y-62336345D01*
X114113841Y-62497969D01*
X114033028Y-62524906D01*
X113979154Y-62524906D01*
X112713096Y-67901218D02*
X112632284Y-67928155D01*
X112551471Y-68008967D01*
X112497597Y-68116717D01*
X112497597Y-68224467D01*
X112524534Y-68305279D01*
X112605346Y-68439966D01*
X112686158Y-68520778D01*
X112820845Y-68601590D01*
X112901658Y-68628528D01*
X113009407Y-68628528D01*
X113117157Y-68574653D01*
X113171032Y-68520778D01*
X113224906Y-68413028D01*
X113224906Y-68359154D01*
X113036345Y-68170592D01*
X112928595Y-68278341D01*
X113521218Y-68170592D02*
X112955532Y-67604906D01*
X113171032Y-67389407D01*
X113251844Y-67362470D01*
X113305719Y-67362470D01*
X113386531Y-67389407D01*
X113467343Y-67470219D01*
X113494280Y-67551032D01*
X113494280Y-67604906D01*
X113467343Y-67685719D01*
X113251844Y-67901218D01*
X113790592Y-66769847D02*
X113521218Y-67039221D01*
X113763654Y-67335532D01*
X113763654Y-67281658D01*
X113790592Y-67200845D01*
X113925279Y-67066158D01*
X114006091Y-67039221D01*
X114059966Y-67039221D01*
X114140778Y-67066158D01*
X114275465Y-67200845D01*
X114302402Y-67281658D01*
X114302402Y-67335532D01*
X114275465Y-67416345D01*
X114140778Y-67551032D01*
X114059966Y-67577969D01*
X114006091Y-67577969D01*
X112713096Y-72981218D02*
X112632284Y-73008155D01*
X112551471Y-73088967D01*
X112497597Y-73196717D01*
X112497597Y-73304467D01*
X112524534Y-73385279D01*
X112605346Y-73519966D01*
X112686158Y-73600778D01*
X112820845Y-73681590D01*
X112901658Y-73708528D01*
X113009407Y-73708528D01*
X113117157Y-73654653D01*
X113171032Y-73600778D01*
X113224906Y-73493028D01*
X113224906Y-73439154D01*
X113036345Y-73250592D01*
X112928595Y-73358341D01*
X113521218Y-73250592D02*
X112955532Y-72684906D01*
X113171032Y-72469407D01*
X113251844Y-72442470D01*
X113305719Y-72442470D01*
X113386531Y-72469407D01*
X113467343Y-72550219D01*
X113494280Y-72631032D01*
X113494280Y-72684906D01*
X113467343Y-72765719D01*
X113251844Y-72981218D01*
X113763654Y-71876784D02*
X113655905Y-71984534D01*
X113628967Y-72065346D01*
X113628967Y-72119221D01*
X113655905Y-72253908D01*
X113736717Y-72388595D01*
X113952216Y-72604094D01*
X114033028Y-72631032D01*
X114086903Y-72631032D01*
X114167715Y-72604094D01*
X114275465Y-72496345D01*
X114302402Y-72415532D01*
X114302402Y-72361658D01*
X114275465Y-72280845D01*
X114140778Y-72146158D01*
X114059966Y-72119221D01*
X114006091Y-72119221D01*
X113925279Y-72146158D01*
X113817529Y-72253908D01*
X113790592Y-72334720D01*
X113790592Y-72388595D01*
X113817529Y-72469407D01*
X112813096Y-75491218D02*
X112732284Y-75518155D01*
X112651471Y-75598967D01*
X112597597Y-75706717D01*
X112597597Y-75814467D01*
X112624534Y-75895279D01*
X112705346Y-76029966D01*
X112786158Y-76110778D01*
X112920845Y-76191590D01*
X113001658Y-76218528D01*
X113109407Y-76218528D01*
X113217157Y-76164653D01*
X113271032Y-76110778D01*
X113324906Y-76003028D01*
X113324906Y-75949154D01*
X113136345Y-75760592D01*
X113028595Y-75868341D01*
X113621218Y-75760592D02*
X113055532Y-75194906D01*
X113271032Y-74979407D01*
X113351844Y-74952470D01*
X113405719Y-74952470D01*
X113486531Y-74979407D01*
X113567343Y-75060219D01*
X113594280Y-75141032D01*
X113594280Y-75194906D01*
X113567343Y-75275719D01*
X113351844Y-75491218D01*
X113567343Y-74683096D02*
X113944467Y-74305972D01*
X114267715Y-75114094D01*
X112713096Y-78061218D02*
X112632284Y-78088155D01*
X112551471Y-78168967D01*
X112497597Y-78276717D01*
X112497597Y-78384467D01*
X112524534Y-78465279D01*
X112605346Y-78599966D01*
X112686158Y-78680778D01*
X112820845Y-78761590D01*
X112901658Y-78788528D01*
X113009407Y-78788528D01*
X113117157Y-78734653D01*
X113171032Y-78680778D01*
X113224906Y-78573028D01*
X113224906Y-78519154D01*
X113036345Y-78330592D01*
X112928595Y-78438341D01*
X113521218Y-78330592D02*
X112955532Y-77764906D01*
X113171032Y-77549407D01*
X113251844Y-77522470D01*
X113305719Y-77522470D01*
X113386531Y-77549407D01*
X113467343Y-77630219D01*
X113494280Y-77711032D01*
X113494280Y-77764906D01*
X113467343Y-77845719D01*
X113251844Y-78061218D01*
X113844467Y-77360845D02*
X113763654Y-77387783D01*
X113709780Y-77387783D01*
X113628967Y-77360845D01*
X113602030Y-77333908D01*
X113575093Y-77253096D01*
X113575093Y-77199221D01*
X113602030Y-77118409D01*
X113709780Y-77010659D01*
X113790592Y-76983722D01*
X113844467Y-76983722D01*
X113925279Y-77010659D01*
X113952216Y-77037597D01*
X113979154Y-77118409D01*
X113979154Y-77172284D01*
X113952216Y-77253096D01*
X113844467Y-77360845D01*
X113817529Y-77441658D01*
X113817529Y-77495532D01*
X113844467Y-77576345D01*
X113952216Y-77684094D01*
X114033028Y-77711032D01*
X114086903Y-77711032D01*
X114167715Y-77684094D01*
X114275465Y-77576345D01*
X114302402Y-77495532D01*
X114302402Y-77441658D01*
X114275465Y-77360845D01*
X114167715Y-77253096D01*
X114086903Y-77226158D01*
X114033028Y-77226158D01*
X113952216Y-77253096D01*
X112713096Y-80601218D02*
X112632284Y-80628155D01*
X112551471Y-80708967D01*
X112497597Y-80816717D01*
X112497597Y-80924467D01*
X112524534Y-81005279D01*
X112605346Y-81139966D01*
X112686158Y-81220778D01*
X112820845Y-81301590D01*
X112901658Y-81328528D01*
X113009407Y-81328528D01*
X113117157Y-81274653D01*
X113171032Y-81220778D01*
X113224906Y-81113028D01*
X113224906Y-81059154D01*
X113036345Y-80870592D01*
X112928595Y-80978341D01*
X113521218Y-80870592D02*
X112955532Y-80304906D01*
X113171032Y-80089407D01*
X113251844Y-80062470D01*
X113305719Y-80062470D01*
X113386531Y-80089407D01*
X113467343Y-80170219D01*
X113494280Y-80251032D01*
X113494280Y-80304906D01*
X113467343Y-80385719D01*
X113251844Y-80601218D01*
X114113841Y-80277969D02*
X114221590Y-80170219D01*
X114248528Y-80089407D01*
X114248528Y-80035532D01*
X114221590Y-79900845D01*
X114140778Y-79766158D01*
X113925279Y-79550659D01*
X113844467Y-79523722D01*
X113790592Y-79523722D01*
X113709780Y-79550659D01*
X113602030Y-79658409D01*
X113575093Y-79739221D01*
X113575093Y-79793096D01*
X113602030Y-79873908D01*
X113736717Y-80008595D01*
X113817529Y-80035532D01*
X113871404Y-80035532D01*
X113952216Y-80008595D01*
X114059966Y-79900845D01*
X114086903Y-79820033D01*
X114086903Y-79766158D01*
X114059966Y-79685346D01*
X112189722Y-85950592D02*
X112108910Y-85977529D01*
X112028097Y-86058341D01*
X111974223Y-86166091D01*
X111974223Y-86273841D01*
X112001160Y-86354653D01*
X112081972Y-86489340D01*
X112162784Y-86570152D01*
X112297471Y-86650964D01*
X112378284Y-86677902D01*
X112486033Y-86677902D01*
X112593783Y-86624027D01*
X112647658Y-86570152D01*
X112701532Y-86462402D01*
X112701532Y-86408528D01*
X112512971Y-86219966D01*
X112405221Y-86327715D01*
X112997844Y-86219966D02*
X112432158Y-85654280D01*
X112647658Y-85438781D01*
X112728470Y-85411844D01*
X112782345Y-85411844D01*
X112863157Y-85438781D01*
X112943969Y-85519593D01*
X112970906Y-85600406D01*
X112970906Y-85654280D01*
X112943969Y-85735093D01*
X112728470Y-85950592D01*
X113859841Y-85357969D02*
X113536592Y-85681218D01*
X113698216Y-85519593D02*
X113132531Y-84953908D01*
X113159468Y-85088595D01*
X113159468Y-85196345D01*
X113132531Y-85277157D01*
X113644341Y-84442097D02*
X113698216Y-84388223D01*
X113779028Y-84361285D01*
X113832903Y-84361285D01*
X113913715Y-84388223D01*
X114048402Y-84469035D01*
X114183089Y-84603722D01*
X114263902Y-84738409D01*
X114290839Y-84819221D01*
X114290839Y-84873096D01*
X114263902Y-84953908D01*
X114210027Y-85007783D01*
X114129215Y-85034720D01*
X114075340Y-85034720D01*
X113994528Y-85007783D01*
X113859841Y-84926971D01*
X113725154Y-84792284D01*
X113644341Y-84657597D01*
X113617404Y-84576784D01*
X113617404Y-84522910D01*
X113644341Y-84442097D01*
X112043722Y-88490592D02*
X111962910Y-88517529D01*
X111882097Y-88598341D01*
X111828223Y-88706091D01*
X111828223Y-88813841D01*
X111855160Y-88894653D01*
X111935972Y-89029340D01*
X112016784Y-89110152D01*
X112151471Y-89190964D01*
X112232284Y-89217902D01*
X112340033Y-89217902D01*
X112447783Y-89164027D01*
X112501658Y-89110152D01*
X112555532Y-89002402D01*
X112555532Y-88948528D01*
X112366971Y-88759966D01*
X112259221Y-88867715D01*
X112851844Y-88759966D02*
X112286158Y-88194280D01*
X112501658Y-87978781D01*
X112582470Y-87951844D01*
X112636345Y-87951844D01*
X112717157Y-87978781D01*
X112797969Y-88059593D01*
X112824906Y-88140406D01*
X112824906Y-88194280D01*
X112797969Y-88275093D01*
X112582470Y-88490592D01*
X113713841Y-87897969D02*
X113390592Y-88221218D01*
X113552216Y-88059593D02*
X112986531Y-87493908D01*
X113013468Y-87628595D01*
X113013468Y-87736345D01*
X112986531Y-87817157D01*
X114252589Y-87359221D02*
X113929340Y-87682470D01*
X114090964Y-87520845D02*
X113525279Y-86955160D01*
X113552216Y-87089847D01*
X113552216Y-87197597D01*
X113525279Y-87278409D01*
X112043722Y-91030592D02*
X111962910Y-91057529D01*
X111882097Y-91138341D01*
X111828223Y-91246091D01*
X111828223Y-91353841D01*
X111855160Y-91434653D01*
X111935972Y-91569340D01*
X112016784Y-91650152D01*
X112151471Y-91730964D01*
X112232284Y-91757902D01*
X112340033Y-91757902D01*
X112447783Y-91704027D01*
X112501658Y-91650152D01*
X112555532Y-91542402D01*
X112555532Y-91488528D01*
X112366971Y-91299966D01*
X112259221Y-91407715D01*
X112851844Y-91299966D02*
X112286158Y-90734280D01*
X112501658Y-90518781D01*
X112582470Y-90491844D01*
X112636345Y-90491844D01*
X112717157Y-90518781D01*
X112797969Y-90599593D01*
X112824906Y-90680406D01*
X112824906Y-90734280D01*
X112797969Y-90815093D01*
X112582470Y-91030592D01*
X113713841Y-90437969D02*
X113390592Y-90761218D01*
X113552216Y-90599593D02*
X112986531Y-90033908D01*
X113013468Y-90168595D01*
X113013468Y-90276345D01*
X112986531Y-90357157D01*
X113417529Y-89710659D02*
X113417529Y-89656784D01*
X113444467Y-89575972D01*
X113579154Y-89441285D01*
X113659966Y-89414348D01*
X113713841Y-89414348D01*
X113794653Y-89441285D01*
X113848528Y-89495160D01*
X113902402Y-89602910D01*
X113902402Y-90249407D01*
X114252589Y-89899221D01*
X112189722Y-93570592D02*
X112108910Y-93597529D01*
X112028097Y-93678341D01*
X111974223Y-93786091D01*
X111974223Y-93893841D01*
X112001160Y-93974653D01*
X112081972Y-94109340D01*
X112162784Y-94190152D01*
X112297471Y-94270964D01*
X112378284Y-94297902D01*
X112486033Y-94297902D01*
X112593783Y-94244027D01*
X112647658Y-94190152D01*
X112701532Y-94082402D01*
X112701532Y-94028528D01*
X112512971Y-93839966D01*
X112405221Y-93947715D01*
X112997844Y-93839966D02*
X112432158Y-93274280D01*
X112647658Y-93058781D01*
X112728470Y-93031844D01*
X112782345Y-93031844D01*
X112863157Y-93058781D01*
X112943969Y-93139593D01*
X112970906Y-93220406D01*
X112970906Y-93274280D01*
X112943969Y-93355093D01*
X112728470Y-93570592D01*
X113859841Y-92977969D02*
X113536592Y-93301218D01*
X113698216Y-93139593D02*
X113132531Y-92573908D01*
X113159468Y-92708595D01*
X113159468Y-92816345D01*
X113132531Y-92897157D01*
X113482717Y-92223722D02*
X113832903Y-91873536D01*
X113859841Y-92277597D01*
X113940653Y-92196784D01*
X114021465Y-92169847D01*
X114075340Y-92169847D01*
X114156152Y-92196784D01*
X114290839Y-92331471D01*
X114317776Y-92412284D01*
X114317776Y-92466158D01*
X114290839Y-92546971D01*
X114129215Y-92708595D01*
X114048402Y-92735532D01*
X113994528Y-92735532D01*
X112143722Y-98650592D02*
X112062910Y-98677529D01*
X111982097Y-98758341D01*
X111928223Y-98866091D01*
X111928223Y-98973841D01*
X111955160Y-99054653D01*
X112035972Y-99189340D01*
X112116784Y-99270152D01*
X112251471Y-99350964D01*
X112332284Y-99377902D01*
X112440033Y-99377902D01*
X112547783Y-99324027D01*
X112601658Y-99270152D01*
X112655532Y-99162402D01*
X112655532Y-99108528D01*
X112466971Y-98919966D01*
X112359221Y-99027715D01*
X112951844Y-98919966D02*
X112386158Y-98354280D01*
X112601658Y-98138781D01*
X112682470Y-98111844D01*
X112736345Y-98111844D01*
X112817157Y-98138781D01*
X112897969Y-98219593D01*
X112924906Y-98300406D01*
X112924906Y-98354280D01*
X112897969Y-98435093D01*
X112682470Y-98650592D01*
X113813841Y-98057969D02*
X113490592Y-98381218D01*
X113652216Y-98219593D02*
X113086531Y-97653908D01*
X113113468Y-97788595D01*
X113113468Y-97896345D01*
X113086531Y-97977157D01*
X113921590Y-97195972D02*
X114298714Y-97573096D01*
X113571404Y-97115160D02*
X113840778Y-97653908D01*
X114190964Y-97303722D01*
X112189722Y-101190592D02*
X112108910Y-101217529D01*
X112028097Y-101298341D01*
X111974223Y-101406091D01*
X111974223Y-101513841D01*
X112001160Y-101594653D01*
X112081972Y-101729340D01*
X112162784Y-101810152D01*
X112297471Y-101890964D01*
X112378284Y-101917902D01*
X112486033Y-101917902D01*
X112593783Y-101864027D01*
X112647658Y-101810152D01*
X112701532Y-101702402D01*
X112701532Y-101648528D01*
X112512971Y-101459966D01*
X112405221Y-101567715D01*
X112997844Y-101459966D02*
X112432158Y-100894280D01*
X112647658Y-100678781D01*
X112728470Y-100651844D01*
X112782345Y-100651844D01*
X112863157Y-100678781D01*
X112943969Y-100759593D01*
X112970906Y-100840406D01*
X112970906Y-100894280D01*
X112943969Y-100975093D01*
X112728470Y-101190592D01*
X113859841Y-100597969D02*
X113536592Y-100921218D01*
X113698216Y-100759593D02*
X113132531Y-100193908D01*
X113159468Y-100328595D01*
X113159468Y-100436345D01*
X113132531Y-100517157D01*
X113805966Y-99520473D02*
X113536592Y-99789847D01*
X113779028Y-100086158D01*
X113779028Y-100032284D01*
X113805966Y-99951471D01*
X113940653Y-99816784D01*
X114021465Y-99789847D01*
X114075340Y-99789847D01*
X114156152Y-99816784D01*
X114290839Y-99951471D01*
X114317776Y-100032284D01*
X114317776Y-100086158D01*
X114290839Y-100166971D01*
X114156152Y-100301658D01*
X114075340Y-100328595D01*
X114021465Y-100328595D01*
X138297722Y-101190592D02*
X138216910Y-101217529D01*
X138136097Y-101298341D01*
X138082223Y-101406091D01*
X138082223Y-101513841D01*
X138109160Y-101594653D01*
X138189972Y-101729340D01*
X138270784Y-101810152D01*
X138405471Y-101890964D01*
X138486284Y-101917902D01*
X138594033Y-101917902D01*
X138701783Y-101864027D01*
X138755658Y-101810152D01*
X138809532Y-101702402D01*
X138809532Y-101648528D01*
X138620971Y-101459966D01*
X138513221Y-101567715D01*
X139105844Y-101459966D02*
X138540158Y-100894280D01*
X138755658Y-100678781D01*
X138836470Y-100651844D01*
X138890345Y-100651844D01*
X138971157Y-100678781D01*
X139051969Y-100759593D01*
X139078906Y-100840406D01*
X139078906Y-100894280D01*
X139051969Y-100975093D01*
X138836470Y-101190592D01*
X139967841Y-100597969D02*
X139644592Y-100921218D01*
X139806216Y-100759593D02*
X139240531Y-100193908D01*
X139267468Y-100328595D01*
X139267468Y-100436345D01*
X139240531Y-100517157D01*
X139887028Y-99547410D02*
X139779279Y-99655160D01*
X139752341Y-99735972D01*
X139752341Y-99789847D01*
X139779279Y-99924534D01*
X139860091Y-100059221D01*
X140075590Y-100274720D01*
X140156402Y-100301658D01*
X140210277Y-100301658D01*
X140291089Y-100274720D01*
X140398839Y-100166971D01*
X140425776Y-100086158D01*
X140425776Y-100032284D01*
X140398839Y-99951471D01*
X140264152Y-99816784D01*
X140183340Y-99789847D01*
X140129465Y-99789847D01*
X140048653Y-99816784D01*
X139940903Y-99924534D01*
X139913966Y-100005346D01*
X139913966Y-100059221D01*
X139940903Y-100140033D01*
X138297722Y-98650592D02*
X138216910Y-98677529D01*
X138136097Y-98758341D01*
X138082223Y-98866091D01*
X138082223Y-98973841D01*
X138109160Y-99054653D01*
X138189972Y-99189340D01*
X138270784Y-99270152D01*
X138405471Y-99350964D01*
X138486284Y-99377902D01*
X138594033Y-99377902D01*
X138701783Y-99324027D01*
X138755658Y-99270152D01*
X138809532Y-99162402D01*
X138809532Y-99108528D01*
X138620971Y-98919966D01*
X138513221Y-99027715D01*
X139105844Y-98919966D02*
X138540158Y-98354280D01*
X138755658Y-98138781D01*
X138836470Y-98111844D01*
X138890345Y-98111844D01*
X138971157Y-98138781D01*
X139051969Y-98219593D01*
X139078906Y-98300406D01*
X139078906Y-98354280D01*
X139051969Y-98435093D01*
X138836470Y-98650592D01*
X139967841Y-98057969D02*
X139644592Y-98381218D01*
X139806216Y-98219593D02*
X139240531Y-97653908D01*
X139267468Y-97788595D01*
X139267468Y-97896345D01*
X139240531Y-97977157D01*
X139590717Y-97303722D02*
X139967841Y-96926598D01*
X140291089Y-97734720D01*
X138297722Y-93570592D02*
X138216910Y-93597529D01*
X138136097Y-93678341D01*
X138082223Y-93786091D01*
X138082223Y-93893841D01*
X138109160Y-93974653D01*
X138189972Y-94109340D01*
X138270784Y-94190152D01*
X138405471Y-94270964D01*
X138486284Y-94297902D01*
X138594033Y-94297902D01*
X138701783Y-94244027D01*
X138755658Y-94190152D01*
X138809532Y-94082402D01*
X138809532Y-94028528D01*
X138620971Y-93839966D01*
X138513221Y-93947715D01*
X139105844Y-93839966D02*
X138540158Y-93274280D01*
X138755658Y-93058781D01*
X138836470Y-93031844D01*
X138890345Y-93031844D01*
X138971157Y-93058781D01*
X139051969Y-93139593D01*
X139078906Y-93220406D01*
X139078906Y-93274280D01*
X139051969Y-93355093D01*
X138836470Y-93570592D01*
X139967841Y-92977969D02*
X139644592Y-93301218D01*
X139806216Y-93139593D02*
X139240531Y-92573908D01*
X139267468Y-92708595D01*
X139267468Y-92816345D01*
X139240531Y-92897157D01*
X139967841Y-92331471D02*
X139887028Y-92358409D01*
X139833154Y-92358409D01*
X139752341Y-92331471D01*
X139725404Y-92304534D01*
X139698467Y-92223722D01*
X139698467Y-92169847D01*
X139725404Y-92089035D01*
X139833154Y-91981285D01*
X139913966Y-91954348D01*
X139967841Y-91954348D01*
X140048653Y-91981285D01*
X140075590Y-92008223D01*
X140102528Y-92089035D01*
X140102528Y-92142910D01*
X140075590Y-92223722D01*
X139967841Y-92331471D01*
X139940903Y-92412284D01*
X139940903Y-92466158D01*
X139967841Y-92546971D01*
X140075590Y-92654720D01*
X140156402Y-92681658D01*
X140210277Y-92681658D01*
X140291089Y-92654720D01*
X140398839Y-92546971D01*
X140425776Y-92466158D01*
X140425776Y-92412284D01*
X140398839Y-92331471D01*
X140291089Y-92223722D01*
X140210277Y-92196784D01*
X140156402Y-92196784D01*
X140075590Y-92223722D01*
X138297722Y-91030592D02*
X138216910Y-91057529D01*
X138136097Y-91138341D01*
X138082223Y-91246091D01*
X138082223Y-91353841D01*
X138109160Y-91434653D01*
X138189972Y-91569340D01*
X138270784Y-91650152D01*
X138405471Y-91730964D01*
X138486284Y-91757902D01*
X138594033Y-91757902D01*
X138701783Y-91704027D01*
X138755658Y-91650152D01*
X138809532Y-91542402D01*
X138809532Y-91488528D01*
X138620971Y-91299966D01*
X138513221Y-91407715D01*
X139105844Y-91299966D02*
X138540158Y-90734280D01*
X138755658Y-90518781D01*
X138836470Y-90491844D01*
X138890345Y-90491844D01*
X138971157Y-90518781D01*
X139051969Y-90599593D01*
X139078906Y-90680406D01*
X139078906Y-90734280D01*
X139051969Y-90815093D01*
X138836470Y-91030592D01*
X139967841Y-90437969D02*
X139644592Y-90761218D01*
X139806216Y-90599593D02*
X139240531Y-90033908D01*
X139267468Y-90168595D01*
X139267468Y-90276345D01*
X139240531Y-90357157D01*
X140237215Y-90168595D02*
X140344964Y-90060845D01*
X140371902Y-89980033D01*
X140371902Y-89926158D01*
X140344964Y-89791471D01*
X140264152Y-89656784D01*
X140048653Y-89441285D01*
X139967841Y-89414348D01*
X139913966Y-89414348D01*
X139833154Y-89441285D01*
X139725404Y-89549035D01*
X139698467Y-89629847D01*
X139698467Y-89683722D01*
X139725404Y-89764534D01*
X139860091Y-89899221D01*
X139940903Y-89926158D01*
X139994778Y-89926158D01*
X140075590Y-89899221D01*
X140183340Y-89791471D01*
X140210277Y-89710659D01*
X140210277Y-89656784D01*
X140183340Y-89575972D01*
X138297722Y-88490592D02*
X138216910Y-88517529D01*
X138136097Y-88598341D01*
X138082223Y-88706091D01*
X138082223Y-88813841D01*
X138109160Y-88894653D01*
X138189972Y-89029340D01*
X138270784Y-89110152D01*
X138405471Y-89190964D01*
X138486284Y-89217902D01*
X138594033Y-89217902D01*
X138701783Y-89164027D01*
X138755658Y-89110152D01*
X138809532Y-89002402D01*
X138809532Y-88948528D01*
X138620971Y-88759966D01*
X138513221Y-88867715D01*
X139105844Y-88759966D02*
X138540158Y-88194280D01*
X138755658Y-87978781D01*
X138836470Y-87951844D01*
X138890345Y-87951844D01*
X138971157Y-87978781D01*
X139051969Y-88059593D01*
X139078906Y-88140406D01*
X139078906Y-88194280D01*
X139051969Y-88275093D01*
X138836470Y-88490592D01*
X139132781Y-87709407D02*
X139132781Y-87655532D01*
X139159719Y-87574720D01*
X139294406Y-87440033D01*
X139375218Y-87413096D01*
X139429093Y-87413096D01*
X139509905Y-87440033D01*
X139563780Y-87493908D01*
X139617654Y-87601658D01*
X139617654Y-88248155D01*
X139967841Y-87897969D01*
X139752341Y-86982097D02*
X139806216Y-86928223D01*
X139887028Y-86901285D01*
X139940903Y-86901285D01*
X140021715Y-86928223D01*
X140156402Y-87009035D01*
X140291089Y-87143722D01*
X140371902Y-87278409D01*
X140398839Y-87359221D01*
X140398839Y-87413096D01*
X140371902Y-87493908D01*
X140318027Y-87547783D01*
X140237215Y-87574720D01*
X140183340Y-87574720D01*
X140102528Y-87547783D01*
X139967841Y-87466971D01*
X139833154Y-87332284D01*
X139752341Y-87197597D01*
X139725404Y-87116784D01*
X139725404Y-87062910D01*
X139752341Y-86982097D01*
X138297722Y-85960592D02*
X138216910Y-85987529D01*
X138136097Y-86068341D01*
X138082223Y-86176091D01*
X138082223Y-86283841D01*
X138109160Y-86364653D01*
X138189972Y-86499340D01*
X138270784Y-86580152D01*
X138405471Y-86660964D01*
X138486284Y-86687902D01*
X138594033Y-86687902D01*
X138701783Y-86634027D01*
X138755658Y-86580152D01*
X138809532Y-86472402D01*
X138809532Y-86418528D01*
X138620971Y-86229966D01*
X138513221Y-86337715D01*
X139105844Y-86229966D02*
X138540158Y-85664280D01*
X138755658Y-85448781D01*
X138836470Y-85421844D01*
X138890345Y-85421844D01*
X138971157Y-85448781D01*
X139051969Y-85529593D01*
X139078906Y-85610406D01*
X139078906Y-85664280D01*
X139051969Y-85745093D01*
X138836470Y-85960592D01*
X139132781Y-85179407D02*
X139132781Y-85125532D01*
X139159719Y-85044720D01*
X139294406Y-84910033D01*
X139375218Y-84883096D01*
X139429093Y-84883096D01*
X139509905Y-84910033D01*
X139563780Y-84963908D01*
X139617654Y-85071658D01*
X139617654Y-85718155D01*
X139967841Y-85367969D01*
X140506589Y-84829221D02*
X140183340Y-85152470D01*
X140344964Y-84990845D02*
X139779279Y-84425160D01*
X139806216Y-84559847D01*
X139806216Y-84667597D01*
X139779279Y-84748409D01*
X138297722Y-80870592D02*
X138216910Y-80897529D01*
X138136097Y-80978341D01*
X138082223Y-81086091D01*
X138082223Y-81193841D01*
X138109160Y-81274653D01*
X138189972Y-81409340D01*
X138270784Y-81490152D01*
X138405471Y-81570964D01*
X138486284Y-81597902D01*
X138594033Y-81597902D01*
X138701783Y-81544027D01*
X138755658Y-81490152D01*
X138809532Y-81382402D01*
X138809532Y-81328528D01*
X138620971Y-81139966D01*
X138513221Y-81247715D01*
X139105844Y-81139966D02*
X138540158Y-80574280D01*
X138755658Y-80358781D01*
X138836470Y-80331844D01*
X138890345Y-80331844D01*
X138971157Y-80358781D01*
X139051969Y-80439593D01*
X139078906Y-80520406D01*
X139078906Y-80574280D01*
X139051969Y-80655093D01*
X138836470Y-80870592D01*
X139132781Y-80089407D02*
X139132781Y-80035532D01*
X139159719Y-79954720D01*
X139294406Y-79820033D01*
X139375218Y-79793096D01*
X139429093Y-79793096D01*
X139509905Y-79820033D01*
X139563780Y-79873908D01*
X139617654Y-79981658D01*
X139617654Y-80628155D01*
X139967841Y-80277969D01*
X139671529Y-79550659D02*
X139671529Y-79496784D01*
X139698467Y-79415972D01*
X139833154Y-79281285D01*
X139913966Y-79254348D01*
X139967841Y-79254348D01*
X140048653Y-79281285D01*
X140102528Y-79335160D01*
X140156402Y-79442910D01*
X140156402Y-80089407D01*
X140506589Y-79739221D01*
X139038375Y-78613435D02*
X138580439Y-78532622D01*
X138715126Y-78936683D02*
X138149441Y-78370998D01*
X138364940Y-78155499D01*
X138445752Y-78128561D01*
X138499627Y-78128561D01*
X138580439Y-78155499D01*
X138661251Y-78236311D01*
X138688189Y-78317123D01*
X138688189Y-78370998D01*
X138661251Y-78451810D01*
X138445752Y-78667309D01*
X138715126Y-77805312D02*
X139173062Y-78263248D01*
X139253874Y-78290186D01*
X139307749Y-78290186D01*
X139388561Y-78263248D01*
X139496311Y-78155499D01*
X139523248Y-78074687D01*
X139523248Y-78020812D01*
X139496311Y-77939999D01*
X139038375Y-77482064D01*
X139873435Y-77778375D02*
X139307749Y-77212690D01*
X140196683Y-77455126D01*
X139630998Y-76889441D01*
X138297722Y-75790592D02*
X138216910Y-75817529D01*
X138136097Y-75898341D01*
X138082223Y-76006091D01*
X138082223Y-76113841D01*
X138109160Y-76194653D01*
X138189972Y-76329340D01*
X138270784Y-76410152D01*
X138405471Y-76490964D01*
X138486284Y-76517902D01*
X138594033Y-76517902D01*
X138701783Y-76464027D01*
X138755658Y-76410152D01*
X138809532Y-76302402D01*
X138809532Y-76248528D01*
X138620971Y-76059966D01*
X138513221Y-76167715D01*
X139105844Y-76059966D02*
X138540158Y-75494280D01*
X138755658Y-75278781D01*
X138836470Y-75251844D01*
X138890345Y-75251844D01*
X138971157Y-75278781D01*
X139051969Y-75359593D01*
X139078906Y-75440406D01*
X139078906Y-75494280D01*
X139051969Y-75575093D01*
X138836470Y-75790592D01*
X139132781Y-75009407D02*
X139132781Y-74955532D01*
X139159719Y-74874720D01*
X139294406Y-74740033D01*
X139375218Y-74713096D01*
X139429093Y-74713096D01*
X139509905Y-74740033D01*
X139563780Y-74793908D01*
X139617654Y-74901658D01*
X139617654Y-75548155D01*
X139967841Y-75197969D01*
X139887028Y-74147410D02*
X139779279Y-74255160D01*
X139752341Y-74335972D01*
X139752341Y-74389847D01*
X139779279Y-74524534D01*
X139860091Y-74659221D01*
X140075590Y-74874720D01*
X140156402Y-74901658D01*
X140210277Y-74901658D01*
X140291089Y-74874720D01*
X140398839Y-74766971D01*
X140425776Y-74686158D01*
X140425776Y-74632284D01*
X140398839Y-74551471D01*
X140264152Y-74416784D01*
X140183340Y-74389847D01*
X140129465Y-74389847D01*
X140048653Y-74416784D01*
X139940903Y-74524534D01*
X139913966Y-74605346D01*
X139913966Y-74659221D01*
X139940903Y-74740033D01*
X138297722Y-73260592D02*
X138216910Y-73287529D01*
X138136097Y-73368341D01*
X138082223Y-73476091D01*
X138082223Y-73583841D01*
X138109160Y-73664653D01*
X138189972Y-73799340D01*
X138270784Y-73880152D01*
X138405471Y-73960964D01*
X138486284Y-73987902D01*
X138594033Y-73987902D01*
X138701783Y-73934027D01*
X138755658Y-73880152D01*
X138809532Y-73772402D01*
X138809532Y-73718528D01*
X138620971Y-73529966D01*
X138513221Y-73637715D01*
X139105844Y-73529966D02*
X138540158Y-72964280D01*
X138755658Y-72748781D01*
X138836470Y-72721844D01*
X138890345Y-72721844D01*
X138971157Y-72748781D01*
X139051969Y-72829593D01*
X139078906Y-72910406D01*
X139078906Y-72964280D01*
X139051969Y-73045093D01*
X138836470Y-73260592D01*
X139132781Y-72479407D02*
X139132781Y-72425532D01*
X139159719Y-72344720D01*
X139294406Y-72210033D01*
X139375218Y-72183096D01*
X139429093Y-72183096D01*
X139509905Y-72210033D01*
X139563780Y-72263908D01*
X139617654Y-72371658D01*
X139617654Y-73018155D01*
X139967841Y-72667969D01*
X139590717Y-71913722D02*
X139967841Y-71536598D01*
X140291089Y-72344720D01*
X138297722Y-67916592D02*
X138216910Y-67943529D01*
X138136097Y-68024341D01*
X138082223Y-68132091D01*
X138082223Y-68239841D01*
X138109160Y-68320653D01*
X138189972Y-68455340D01*
X138270784Y-68536152D01*
X138405471Y-68616964D01*
X138486284Y-68643902D01*
X138594033Y-68643902D01*
X138701783Y-68590027D01*
X138755658Y-68536152D01*
X138809532Y-68428402D01*
X138809532Y-68374528D01*
X138620971Y-68185966D01*
X138513221Y-68293715D01*
X139105844Y-68185966D02*
X138540158Y-67620280D01*
X138755658Y-67404781D01*
X138836470Y-67377844D01*
X138890345Y-67377844D01*
X138971157Y-67404781D01*
X139051969Y-67485593D01*
X139078906Y-67566406D01*
X139078906Y-67620280D01*
X139051969Y-67701093D01*
X138836470Y-67916592D01*
X139132781Y-67135407D02*
X139132781Y-67081532D01*
X139159719Y-67000720D01*
X139294406Y-66866033D01*
X139375218Y-66839096D01*
X139429093Y-66839096D01*
X139509905Y-66866033D01*
X139563780Y-66919908D01*
X139617654Y-67027658D01*
X139617654Y-67674155D01*
X139967841Y-67323969D01*
X139967841Y-66677471D02*
X139887028Y-66704409D01*
X139833154Y-66704409D01*
X139752341Y-66677471D01*
X139725404Y-66650534D01*
X139698467Y-66569722D01*
X139698467Y-66515847D01*
X139725404Y-66435035D01*
X139833154Y-66327285D01*
X139913966Y-66300348D01*
X139967841Y-66300348D01*
X140048653Y-66327285D01*
X140075590Y-66354223D01*
X140102528Y-66435035D01*
X140102528Y-66488910D01*
X140075590Y-66569722D01*
X139967841Y-66677471D01*
X139940903Y-66758284D01*
X139940903Y-66812158D01*
X139967841Y-66892971D01*
X140075590Y-67000720D01*
X140156402Y-67027658D01*
X140210277Y-67027658D01*
X140291089Y-67000720D01*
X140398839Y-66892971D01*
X140425776Y-66812158D01*
X140425776Y-66758284D01*
X140398839Y-66677471D01*
X140291089Y-66569722D01*
X140210277Y-66542784D01*
X140156402Y-66542784D01*
X140075590Y-66569722D01*
X138354788Y-66203773D02*
X138624162Y-65934399D01*
X138462537Y-66419272D02*
X138085414Y-65665025D01*
X138839661Y-66042149D01*
X139028223Y-65853587D02*
X138462537Y-65287902D01*
X138597224Y-65153215D01*
X138704974Y-65099340D01*
X138812723Y-65099340D01*
X138893536Y-65126277D01*
X139028223Y-65207089D01*
X139109035Y-65287902D01*
X139189847Y-65422589D01*
X139216784Y-65503401D01*
X139216784Y-65611150D01*
X139162910Y-65718900D01*
X139028223Y-65853587D01*
X139863282Y-64910778D02*
X139863282Y-64964653D01*
X139809407Y-65072402D01*
X139755532Y-65126277D01*
X139647783Y-65180152D01*
X139540033Y-65180152D01*
X139459221Y-65153215D01*
X139324534Y-65072402D01*
X139243722Y-64991590D01*
X139162910Y-64856903D01*
X139135972Y-64776091D01*
X139135972Y-64668341D01*
X139189847Y-64560592D01*
X139243722Y-64506717D01*
X139351471Y-64452842D01*
X139405346Y-64452842D01*
X140078781Y-64910778D02*
X140509780Y-64479780D01*
X139944094Y-63806345D02*
X140698341Y-64183468D01*
X140321218Y-63429221D01*
X141398714Y-63483096D02*
X140940778Y-63402284D01*
X141075465Y-63806345D02*
X140509780Y-63240659D01*
X140725279Y-63025160D01*
X140806091Y-62998223D01*
X140859966Y-62998223D01*
X140940778Y-63025160D01*
X141021590Y-63105972D01*
X141048528Y-63186784D01*
X141048528Y-63240659D01*
X141021590Y-63321471D01*
X140806091Y-63536971D01*
X141344839Y-62944348D02*
X141533401Y-62755786D01*
X141910524Y-62971285D02*
X141641150Y-63240659D01*
X141075465Y-62674974D01*
X141344839Y-62405600D01*
X142045211Y-62243975D02*
X141856650Y-62432537D01*
X142152961Y-62728849D02*
X141587276Y-62163163D01*
X141856650Y-61893789D01*
X138089847Y-63160592D02*
X138440033Y-62810406D01*
X138466971Y-63214467D01*
X138547783Y-63133654D01*
X138628595Y-63106717D01*
X138682470Y-63106717D01*
X138763282Y-63133654D01*
X138897969Y-63268341D01*
X138924906Y-63349154D01*
X138924906Y-63403028D01*
X138897969Y-63483841D01*
X138736345Y-63645465D01*
X138655532Y-63672402D01*
X138601658Y-63672402D01*
X138601658Y-62648781D02*
X139355905Y-63025905D01*
X138978781Y-62271658D01*
X139113468Y-62136971D02*
X139463654Y-61786784D01*
X139490592Y-62190845D01*
X139571404Y-62110033D01*
X139652216Y-62083096D01*
X139706091Y-62083096D01*
X139786903Y-62110033D01*
X139921590Y-62244720D01*
X139948528Y-62325532D01*
X139948528Y-62379407D01*
X139921590Y-62460219D01*
X139759966Y-62621844D01*
X139679154Y-62648781D01*
X139625279Y-62648781D01*
X138122131Y-60628308D02*
X138472317Y-60278122D01*
X138499255Y-60682183D01*
X138580067Y-60601370D01*
X138660879Y-60574433D01*
X138714754Y-60574433D01*
X138795566Y-60601370D01*
X138930253Y-60736057D01*
X138957190Y-60816870D01*
X138957190Y-60870744D01*
X138930253Y-60951557D01*
X138768629Y-61113181D01*
X138687816Y-61140118D01*
X138633942Y-61140118D01*
X138633942Y-60116497D02*
X139388189Y-60493621D01*
X139011065Y-59739374D01*
X139145752Y-59604687D02*
X139495938Y-59254500D01*
X139522876Y-59658561D01*
X139603688Y-59577749D01*
X139684500Y-59550812D01*
X139738375Y-59550812D01*
X139819187Y-59577749D01*
X139953874Y-59712436D01*
X139980812Y-59793248D01*
X139980812Y-59847123D01*
X139953874Y-59927935D01*
X139792250Y-60089560D01*
X139711438Y-60116497D01*
X139657563Y-60116497D01*
X140223248Y-59766311D02*
X140654247Y-59335312D01*
X140438748Y-58850439D02*
X140627309Y-58661877D01*
X141004433Y-58877377D02*
X140735059Y-59146751D01*
X140169374Y-58581065D01*
X140438748Y-58311691D01*
X141246870Y-58634940D02*
X140681184Y-58069255D01*
X141570118Y-58311691D01*
X141004433Y-57746006D01*
X138120473Y-55739966D02*
X138874720Y-56117089D01*
X138497597Y-55362842D01*
X139197969Y-55739966D02*
X139305719Y-55686091D01*
X139440406Y-55551404D01*
X139467343Y-55470592D01*
X139467343Y-55416717D01*
X139440406Y-55335905D01*
X139386531Y-55282030D01*
X139305719Y-55255093D01*
X139251844Y-55255093D01*
X139171032Y-55282030D01*
X139036345Y-55362842D01*
X138955532Y-55389780D01*
X138901658Y-55389780D01*
X138820845Y-55362842D01*
X138766971Y-55308967D01*
X138740033Y-55228155D01*
X138740033Y-55174280D01*
X138766971Y-55093468D01*
X138901658Y-54958781D01*
X139009407Y-54904906D01*
X139628967Y-54824094D02*
X139898341Y-55093468D01*
X139144094Y-54716345D02*
X139628967Y-54824094D01*
X139521218Y-54339221D01*
X140221590Y-54716345D02*
X140329340Y-54662470D01*
X140464027Y-54527783D01*
X140490964Y-54446971D01*
X140490964Y-54393096D01*
X140464027Y-54312284D01*
X140410152Y-54258409D01*
X140329340Y-54231471D01*
X140275465Y-54231471D01*
X140194653Y-54258409D01*
X140059966Y-54339221D01*
X139979154Y-54366158D01*
X139925279Y-54366158D01*
X139844467Y-54339221D01*
X139790592Y-54285346D01*
X139763654Y-54204534D01*
X139763654Y-54150659D01*
X139790592Y-54069847D01*
X139925279Y-53935160D01*
X140033028Y-53881285D01*
X138153129Y-53197309D02*
X138907377Y-53574433D01*
X138530253Y-52820186D01*
X139176751Y-52712436D02*
X139284500Y-52658561D01*
X139338375Y-52658561D01*
X139419187Y-52685499D01*
X139500000Y-52766311D01*
X139526937Y-52847123D01*
X139526937Y-52900998D01*
X139500000Y-52981810D01*
X139284500Y-53197309D01*
X138718815Y-52631624D01*
X138907377Y-52443062D01*
X138988189Y-52416125D01*
X139042064Y-52416125D01*
X139122876Y-52443062D01*
X139176751Y-52496937D01*
X139203688Y-52577749D01*
X139203688Y-52631624D01*
X139176751Y-52712436D01*
X138988189Y-52900998D01*
X139284500Y-52065938D02*
X139742436Y-52523874D01*
X139823248Y-52550812D01*
X139877123Y-52550812D01*
X139957935Y-52523874D01*
X140065685Y-52416125D01*
X140092622Y-52335312D01*
X140092622Y-52281438D01*
X140065685Y-52200625D01*
X139607749Y-51742690D01*
X140388934Y-52039001D02*
X140496683Y-51985126D01*
X140631370Y-51850439D01*
X140658308Y-51769627D01*
X140658308Y-51715752D01*
X140631370Y-51634940D01*
X140577496Y-51581065D01*
X140496683Y-51554128D01*
X140442809Y-51554128D01*
X140361996Y-51581065D01*
X140227309Y-51661877D01*
X140146497Y-51688815D01*
X140092622Y-51688815D01*
X140011810Y-51661877D01*
X139957935Y-51608003D01*
X139930998Y-51527190D01*
X139930998Y-51473316D01*
X139957935Y-51392503D01*
X140092622Y-51257816D01*
X140200372Y-51203942D01*
X112686158Y-57768155D02*
X112605346Y-57795093D01*
X112524534Y-57875905D01*
X112470659Y-57983654D01*
X112470659Y-58091404D01*
X112497597Y-58172216D01*
X112578409Y-58306903D01*
X112659221Y-58387715D01*
X112793908Y-58468528D01*
X112874720Y-58495465D01*
X112982470Y-58495465D01*
X113090219Y-58441590D01*
X113144094Y-58387715D01*
X113197969Y-58279966D01*
X113197969Y-58226091D01*
X113009407Y-58037529D01*
X112901658Y-58145279D01*
X113494280Y-58037529D02*
X112928595Y-57471844D01*
X113817529Y-57714280D01*
X113251844Y-57148595D01*
X114086903Y-57444906D02*
X113521218Y-56879221D01*
X113655905Y-56744534D01*
X113763654Y-56690659D01*
X113871404Y-56690659D01*
X113952216Y-56717597D01*
X114086903Y-56798409D01*
X114167715Y-56879221D01*
X114248528Y-57013908D01*
X114275465Y-57094720D01*
X114275465Y-57202470D01*
X114221590Y-57310219D01*
X114086903Y-57444906D01*
X112686158Y-70468155D02*
X112605346Y-70495093D01*
X112524534Y-70575905D01*
X112470659Y-70683654D01*
X112470659Y-70791404D01*
X112497597Y-70872216D01*
X112578409Y-71006903D01*
X112659221Y-71087715D01*
X112793908Y-71168528D01*
X112874720Y-71195465D01*
X112982470Y-71195465D01*
X113090219Y-71141590D01*
X113144094Y-71087715D01*
X113197969Y-70979966D01*
X113197969Y-70926091D01*
X113009407Y-70737529D01*
X112901658Y-70845279D01*
X113494280Y-70737529D02*
X112928595Y-70171844D01*
X113817529Y-70414280D01*
X113251844Y-69848595D01*
X114086903Y-70144906D02*
X113521218Y-69579221D01*
X113655905Y-69444534D01*
X113763654Y-69390659D01*
X113871404Y-69390659D01*
X113952216Y-69417597D01*
X114086903Y-69498409D01*
X114167715Y-69579221D01*
X114248528Y-69713908D01*
X114275465Y-69794720D01*
X114275465Y-69902470D01*
X114221590Y-70010219D01*
X114086903Y-70144906D01*
X112686158Y-83168155D02*
X112605346Y-83195093D01*
X112524534Y-83275905D01*
X112470659Y-83383654D01*
X112470659Y-83491404D01*
X112497597Y-83572216D01*
X112578409Y-83706903D01*
X112659221Y-83787715D01*
X112793908Y-83868528D01*
X112874720Y-83895465D01*
X112982470Y-83895465D01*
X113090219Y-83841590D01*
X113144094Y-83787715D01*
X113197969Y-83679966D01*
X113197969Y-83626091D01*
X113009407Y-83437529D01*
X112901658Y-83545279D01*
X113494280Y-83437529D02*
X112928595Y-82871844D01*
X113817529Y-83114280D01*
X113251844Y-82548595D01*
X114086903Y-82844906D02*
X113521218Y-82279221D01*
X113655905Y-82144534D01*
X113763654Y-82090659D01*
X113871404Y-82090659D01*
X113952216Y-82117597D01*
X114086903Y-82198409D01*
X114167715Y-82279221D01*
X114248528Y-82413908D01*
X114275465Y-82494720D01*
X114275465Y-82602470D01*
X114221590Y-82710219D01*
X114086903Y-82844906D01*
X112686158Y-95868155D02*
X112605346Y-95895093D01*
X112524534Y-95975905D01*
X112470659Y-96083654D01*
X112470659Y-96191404D01*
X112497597Y-96272216D01*
X112578409Y-96406903D01*
X112659221Y-96487715D01*
X112793908Y-96568528D01*
X112874720Y-96595465D01*
X112982470Y-96595465D01*
X113090219Y-96541590D01*
X113144094Y-96487715D01*
X113197969Y-96379966D01*
X113197969Y-96326091D01*
X113009407Y-96137529D01*
X112901658Y-96245279D01*
X113494280Y-96137529D02*
X112928595Y-95571844D01*
X113817529Y-95814280D01*
X113251844Y-95248595D01*
X114086903Y-95544906D02*
X113521218Y-94979221D01*
X113655905Y-94844534D01*
X113763654Y-94790659D01*
X113871404Y-94790659D01*
X113952216Y-94817597D01*
X114086903Y-94898409D01*
X114167715Y-94979221D01*
X114248528Y-95113908D01*
X114275465Y-95194720D01*
X114275465Y-95302470D01*
X114221590Y-95410219D01*
X114086903Y-95544906D01*
X138286158Y-95868155D02*
X138205346Y-95895093D01*
X138124534Y-95975905D01*
X138070659Y-96083654D01*
X138070659Y-96191404D01*
X138097597Y-96272216D01*
X138178409Y-96406903D01*
X138259221Y-96487715D01*
X138393908Y-96568528D01*
X138474720Y-96595465D01*
X138582470Y-96595465D01*
X138690219Y-96541590D01*
X138744094Y-96487715D01*
X138797969Y-96379966D01*
X138797969Y-96326091D01*
X138609407Y-96137529D01*
X138501658Y-96245279D01*
X139094280Y-96137529D02*
X138528595Y-95571844D01*
X139417529Y-95814280D01*
X138851844Y-95248595D01*
X139686903Y-95544906D02*
X139121218Y-94979221D01*
X139255905Y-94844534D01*
X139363654Y-94790659D01*
X139471404Y-94790659D01*
X139552216Y-94817597D01*
X139686903Y-94898409D01*
X139767715Y-94979221D01*
X139848528Y-95113908D01*
X139875465Y-95194720D01*
X139875465Y-95302470D01*
X139821590Y-95410219D01*
X139686903Y-95544906D01*
X138286158Y-83168155D02*
X138205346Y-83195093D01*
X138124534Y-83275905D01*
X138070659Y-83383654D01*
X138070659Y-83491404D01*
X138097597Y-83572216D01*
X138178409Y-83706903D01*
X138259221Y-83787715D01*
X138393908Y-83868528D01*
X138474720Y-83895465D01*
X138582470Y-83895465D01*
X138690219Y-83841590D01*
X138744094Y-83787715D01*
X138797969Y-83679966D01*
X138797969Y-83626091D01*
X138609407Y-83437529D01*
X138501658Y-83545279D01*
X139094280Y-83437529D02*
X138528595Y-82871844D01*
X139417529Y-83114280D01*
X138851844Y-82548595D01*
X139686903Y-82844906D02*
X139121218Y-82279221D01*
X139255905Y-82144534D01*
X139363654Y-82090659D01*
X139471404Y-82090659D01*
X139552216Y-82117597D01*
X139686903Y-82198409D01*
X139767715Y-82279221D01*
X139848528Y-82413908D01*
X139875465Y-82494720D01*
X139875465Y-82602470D01*
X139821590Y-82710219D01*
X139686903Y-82844906D01*
X138286158Y-57768155D02*
X138205346Y-57795093D01*
X138124534Y-57875905D01*
X138070659Y-57983654D01*
X138070659Y-58091404D01*
X138097597Y-58172216D01*
X138178409Y-58306903D01*
X138259221Y-58387715D01*
X138393908Y-58468528D01*
X138474720Y-58495465D01*
X138582470Y-58495465D01*
X138690219Y-58441590D01*
X138744094Y-58387715D01*
X138797969Y-58279966D01*
X138797969Y-58226091D01*
X138609407Y-58037529D01*
X138501658Y-58145279D01*
X139094280Y-58037529D02*
X138528595Y-57471844D01*
X139417529Y-57714280D01*
X138851844Y-57148595D01*
X139686903Y-57444906D02*
X139121218Y-56879221D01*
X139255905Y-56744534D01*
X139363654Y-56690659D01*
X139471404Y-56690659D01*
X139552216Y-56717597D01*
X139686903Y-56798409D01*
X139767715Y-56879221D01*
X139848528Y-57013908D01*
X139875465Y-57094720D01*
X139875465Y-57202470D01*
X139821590Y-57310219D01*
X139686903Y-57444906D01*
X138351597Y-71410964D02*
X138620971Y-71141590D01*
X138459346Y-71626463D02*
X138082223Y-70872216D01*
X138836470Y-71249340D01*
X138782595Y-70225719D02*
X138701783Y-70252656D01*
X138620971Y-70333468D01*
X138567096Y-70441218D01*
X138567096Y-70548967D01*
X138594033Y-70629780D01*
X138674845Y-70764467D01*
X138755658Y-70845279D01*
X138890345Y-70926091D01*
X138971157Y-70953028D01*
X139078906Y-70953028D01*
X139186656Y-70899154D01*
X139240531Y-70845279D01*
X139294406Y-70737529D01*
X139294406Y-70683654D01*
X139105844Y-70495093D01*
X138998094Y-70602842D01*
X139590717Y-70495093D02*
X139025032Y-69929407D01*
X139913966Y-70171844D01*
X139348280Y-69606158D01*
X140183340Y-69902470D02*
X139617654Y-69336784D01*
X139752341Y-69202097D01*
X139860091Y-69148223D01*
X139967841Y-69148223D01*
X140048653Y-69175160D01*
X140183340Y-69255972D01*
X140264152Y-69336784D01*
X140344964Y-69471471D01*
X140371902Y-69552284D01*
X140371902Y-69660033D01*
X140318027Y-69767783D01*
X140183340Y-69902470D01*
X118690476Y-103193809D02*
X118804761Y-103231904D01*
X118995238Y-103231904D01*
X119071428Y-103193809D01*
X119109523Y-103155714D01*
X119147619Y-103079523D01*
X119147619Y-103003333D01*
X119109523Y-102927142D01*
X119071428Y-102889047D01*
X118995238Y-102850952D01*
X118842857Y-102812857D01*
X118766666Y-102774761D01*
X118728571Y-102736666D01*
X118690476Y-102660476D01*
X118690476Y-102584285D01*
X118728571Y-102508095D01*
X118766666Y-102470000D01*
X118842857Y-102431904D01*
X119033333Y-102431904D01*
X119147619Y-102470000D01*
X119414285Y-102431904D02*
X119604761Y-103231904D01*
X119757142Y-102660476D01*
X119909523Y-103231904D01*
X120100000Y-102431904D01*
X120861904Y-103155714D02*
X120823809Y-103193809D01*
X120709523Y-103231904D01*
X120633333Y-103231904D01*
X120519047Y-103193809D01*
X120442857Y-103117619D01*
X120404761Y-103041428D01*
X120366666Y-102889047D01*
X120366666Y-102774761D01*
X120404761Y-102622380D01*
X120442857Y-102546190D01*
X120519047Y-102470000D01*
X120633333Y-102431904D01*
X120709523Y-102431904D01*
X120823809Y-102470000D01*
X120861904Y-102508095D01*
X121585714Y-103231904D02*
X121204761Y-103231904D01*
X121204761Y-102431904D01*
X121852380Y-103231904D02*
X121852380Y-102431904D01*
X122309523Y-103231904D02*
X121966666Y-102774761D01*
X122309523Y-102431904D02*
X121852380Y-102889047D01*
X130104761Y-103193809D02*
X130219047Y-103231904D01*
X130409523Y-103231904D01*
X130485714Y-103193809D01*
X130523809Y-103155714D01*
X130561904Y-103079523D01*
X130561904Y-103003333D01*
X130523809Y-102927142D01*
X130485714Y-102889047D01*
X130409523Y-102850952D01*
X130257142Y-102812857D01*
X130180952Y-102774761D01*
X130142857Y-102736666D01*
X130104761Y-102660476D01*
X130104761Y-102584285D01*
X130142857Y-102508095D01*
X130180952Y-102470000D01*
X130257142Y-102431904D01*
X130447619Y-102431904D01*
X130561904Y-102470000D01*
X130828571Y-102431904D02*
X131019047Y-103231904D01*
X131171428Y-102660476D01*
X131323809Y-103231904D01*
X131514285Y-102431904D01*
X131819047Y-103231904D02*
X131819047Y-102431904D01*
X132009523Y-102431904D01*
X132123809Y-102470000D01*
X132200000Y-102546190D01*
X132238095Y-102622380D01*
X132276190Y-102774761D01*
X132276190Y-102889047D01*
X132238095Y-103041428D01*
X132200000Y-103117619D01*
X132123809Y-103193809D01*
X132009523Y-103231904D01*
X131819047Y-103231904D01*
X132619047Y-103231904D02*
X132619047Y-102431904D01*
X133152380Y-102431904D02*
X133304761Y-102431904D01*
X133380952Y-102470000D01*
X133457142Y-102546190D01*
X133495238Y-102698571D01*
X133495238Y-102965238D01*
X133457142Y-103117619D01*
X133380952Y-103193809D01*
X133304761Y-103231904D01*
X133152380Y-103231904D01*
X133076190Y-103193809D01*
X133000000Y-103117619D01*
X132961904Y-102965238D01*
X132961904Y-102698571D01*
X133000000Y-102546190D01*
X133076190Y-102470000D01*
X133152380Y-102431904D01*
%TO.C,J3*%
X89036666Y-64462380D02*
X89036666Y-65176666D01*
X88989047Y-65319523D01*
X88893809Y-65414761D01*
X88750952Y-65462380D01*
X88655714Y-65462380D01*
X89417619Y-64462380D02*
X90036666Y-64462380D01*
X89703333Y-64843333D01*
X89846190Y-64843333D01*
X89941428Y-64890952D01*
X89989047Y-64938571D01*
X90036666Y-65033809D01*
X90036666Y-65271904D01*
X89989047Y-65367142D01*
X89941428Y-65414761D01*
X89846190Y-65462380D01*
X89560476Y-65462380D01*
X89465238Y-65414761D01*
X89417619Y-65367142D01*
%TO.C,JP1*%
X144924666Y-113460380D02*
X144924666Y-114174666D01*
X144877047Y-114317523D01*
X144781809Y-114412761D01*
X144638952Y-114460380D01*
X144543714Y-114460380D01*
X145400857Y-114460380D02*
X145400857Y-113460380D01*
X145781809Y-113460380D01*
X145877047Y-113508000D01*
X145924666Y-113555619D01*
X145972285Y-113650857D01*
X145972285Y-113793714D01*
X145924666Y-113888952D01*
X145877047Y-113936571D01*
X145781809Y-113984190D01*
X145400857Y-113984190D01*
X146924666Y-114460380D02*
X146353238Y-114460380D01*
X146638952Y-114460380D02*
X146638952Y-113460380D01*
X146543714Y-113603238D01*
X146448476Y-113698476D01*
X146353238Y-113746095D01*
%TO.C,SW1*%
X153016666Y-108367761D02*
X153159523Y-108415380D01*
X153397619Y-108415380D01*
X153492857Y-108367761D01*
X153540476Y-108320142D01*
X153588095Y-108224904D01*
X153588095Y-108129666D01*
X153540476Y-108034428D01*
X153492857Y-107986809D01*
X153397619Y-107939190D01*
X153207142Y-107891571D01*
X153111904Y-107843952D01*
X153064285Y-107796333D01*
X153016666Y-107701095D01*
X153016666Y-107605857D01*
X153064285Y-107510619D01*
X153111904Y-107463000D01*
X153207142Y-107415380D01*
X153445238Y-107415380D01*
X153588095Y-107463000D01*
X153921428Y-107415380D02*
X154159523Y-108415380D01*
X154350000Y-107701095D01*
X154540476Y-108415380D01*
X154778571Y-107415380D01*
X155683333Y-108415380D02*
X155111904Y-108415380D01*
X155397619Y-108415380D02*
X155397619Y-107415380D01*
X155302380Y-107558238D01*
X155207142Y-107653476D01*
X155111904Y-107701095D01*
%TO.C,C3*%
X146369142Y-97156666D02*
X146416761Y-97204285D01*
X146464380Y-97347142D01*
X146464380Y-97442380D01*
X146416761Y-97585238D01*
X146321523Y-97680476D01*
X146226285Y-97728095D01*
X146035809Y-97775714D01*
X145892952Y-97775714D01*
X145702476Y-97728095D01*
X145607238Y-97680476D01*
X145512000Y-97585238D01*
X145464380Y-97442380D01*
X145464380Y-97347142D01*
X145512000Y-97204285D01*
X145559619Y-97156666D01*
X145464380Y-96823333D02*
X145464380Y-96204285D01*
X145845333Y-96537619D01*
X145845333Y-96394761D01*
X145892952Y-96299523D01*
X145940571Y-96251904D01*
X146035809Y-96204285D01*
X146273904Y-96204285D01*
X146369142Y-96251904D01*
X146416761Y-96299523D01*
X146464380Y-96394761D01*
X146464380Y-96680476D01*
X146416761Y-96775714D01*
X146369142Y-96823333D01*
%TO.C,R8*%
X70137380Y-85345666D02*
X69661190Y-85679000D01*
X70137380Y-85917095D02*
X69137380Y-85917095D01*
X69137380Y-85536142D01*
X69185000Y-85440904D01*
X69232619Y-85393285D01*
X69327857Y-85345666D01*
X69470714Y-85345666D01*
X69565952Y-85393285D01*
X69613571Y-85440904D01*
X69661190Y-85536142D01*
X69661190Y-85917095D01*
X69565952Y-84774238D02*
X69518333Y-84869476D01*
X69470714Y-84917095D01*
X69375476Y-84964714D01*
X69327857Y-84964714D01*
X69232619Y-84917095D01*
X69185000Y-84869476D01*
X69137380Y-84774238D01*
X69137380Y-84583761D01*
X69185000Y-84488523D01*
X69232619Y-84440904D01*
X69327857Y-84393285D01*
X69375476Y-84393285D01*
X69470714Y-84440904D01*
X69518333Y-84488523D01*
X69565952Y-84583761D01*
X69565952Y-84774238D01*
X69613571Y-84869476D01*
X69661190Y-84917095D01*
X69756428Y-84964714D01*
X69946904Y-84964714D01*
X70042142Y-84917095D01*
X70089761Y-84869476D01*
X70137380Y-84774238D01*
X70137380Y-84583761D01*
X70089761Y-84488523D01*
X70042142Y-84440904D01*
X69946904Y-84393285D01*
X69756428Y-84393285D01*
X69661190Y-84440904D01*
X69613571Y-84488523D01*
X69565952Y-84583761D01*
%TO.C,R13*%
X66708380Y-85694857D02*
X66232190Y-86028190D01*
X66708380Y-86266285D02*
X65708380Y-86266285D01*
X65708380Y-85885333D01*
X65756000Y-85790095D01*
X65803619Y-85742476D01*
X65898857Y-85694857D01*
X66041714Y-85694857D01*
X66136952Y-85742476D01*
X66184571Y-85790095D01*
X66232190Y-85885333D01*
X66232190Y-86266285D01*
X66708380Y-84742476D02*
X66708380Y-85313904D01*
X66708380Y-85028190D02*
X65708380Y-85028190D01*
X65851238Y-85123428D01*
X65946476Y-85218666D01*
X65994095Y-85313904D01*
X65708380Y-84409142D02*
X65708380Y-83790095D01*
X66089333Y-84123428D01*
X66089333Y-83980571D01*
X66136952Y-83885333D01*
X66184571Y-83837714D01*
X66279809Y-83790095D01*
X66517904Y-83790095D01*
X66613142Y-83837714D01*
X66660761Y-83885333D01*
X66708380Y-83980571D01*
X66708380Y-84266285D01*
X66660761Y-84361523D01*
X66613142Y-84409142D01*
%TO.C,R14*%
X64295380Y-85821857D02*
X63819190Y-86155190D01*
X64295380Y-86393285D02*
X63295380Y-86393285D01*
X63295380Y-86012333D01*
X63343000Y-85917095D01*
X63390619Y-85869476D01*
X63485857Y-85821857D01*
X63628714Y-85821857D01*
X63723952Y-85869476D01*
X63771571Y-85917095D01*
X63819190Y-86012333D01*
X63819190Y-86393285D01*
X64295380Y-84869476D02*
X64295380Y-85440904D01*
X64295380Y-85155190D02*
X63295380Y-85155190D01*
X63438238Y-85250428D01*
X63533476Y-85345666D01*
X63581095Y-85440904D01*
X63628714Y-84012333D02*
X64295380Y-84012333D01*
X63247761Y-84250428D02*
X63962047Y-84488523D01*
X63962047Y-83869476D01*
%TO.C,R15*%
X72421379Y-85821857D02*
X71945189Y-86155190D01*
X72421379Y-86393285D02*
X71421379Y-86393285D01*
X71421379Y-86012333D01*
X71468999Y-85917095D01*
X71516618Y-85869476D01*
X71611856Y-85821857D01*
X71754713Y-85821857D01*
X71849951Y-85869476D01*
X71897570Y-85917095D01*
X71945189Y-86012333D01*
X71945189Y-86393285D01*
X72421379Y-84869476D02*
X72421379Y-85440904D01*
X72421379Y-85155190D02*
X71421379Y-85155190D01*
X71564237Y-85250428D01*
X71659475Y-85345666D01*
X71707094Y-85440904D01*
X71421379Y-83964714D02*
X71421379Y-84440904D01*
X71897570Y-84488523D01*
X71849951Y-84440904D01*
X71802332Y-84345666D01*
X71802332Y-84107571D01*
X71849951Y-84012333D01*
X71897570Y-83964714D01*
X71992808Y-83917095D01*
X72230903Y-83917095D01*
X72326141Y-83964714D01*
X72373760Y-84012333D01*
X72421379Y-84107571D01*
X72421379Y-84345666D01*
X72373760Y-84440904D01*
X72326141Y-84488523D01*
%TO.C,R16*%
X192946380Y-96108857D02*
X192470190Y-96442190D01*
X192946380Y-96680285D02*
X191946380Y-96680285D01*
X191946380Y-96299333D01*
X191994000Y-96204095D01*
X192041619Y-96156476D01*
X192136857Y-96108857D01*
X192279714Y-96108857D01*
X192374952Y-96156476D01*
X192422571Y-96204095D01*
X192470190Y-96299333D01*
X192470190Y-96680285D01*
X192946380Y-95156476D02*
X192946380Y-95727904D01*
X192946380Y-95442190D02*
X191946380Y-95442190D01*
X192089238Y-95537428D01*
X192184476Y-95632666D01*
X192232095Y-95727904D01*
X191946380Y-94299333D02*
X191946380Y-94489809D01*
X191994000Y-94585047D01*
X192041619Y-94632666D01*
X192184476Y-94727904D01*
X192374952Y-94775523D01*
X192755904Y-94775523D01*
X192851142Y-94727904D01*
X192898761Y-94680285D01*
X192946380Y-94585047D01*
X192946380Y-94394571D01*
X192898761Y-94299333D01*
X192851142Y-94251714D01*
X192755904Y-94204095D01*
X192517809Y-94204095D01*
X192422571Y-94251714D01*
X192374952Y-94299333D01*
X192327333Y-94394571D01*
X192327333Y-94585047D01*
X192374952Y-94680285D01*
X192422571Y-94727904D01*
X192517809Y-94775523D01*
%TO.C,R17*%
X190533380Y-96108857D02*
X190057190Y-96442190D01*
X190533380Y-96680285D02*
X189533380Y-96680285D01*
X189533380Y-96299333D01*
X189581000Y-96204095D01*
X189628619Y-96156476D01*
X189723857Y-96108857D01*
X189866714Y-96108857D01*
X189961952Y-96156476D01*
X190009571Y-96204095D01*
X190057190Y-96299333D01*
X190057190Y-96680285D01*
X190533380Y-95156476D02*
X190533380Y-95727904D01*
X190533380Y-95442190D02*
X189533380Y-95442190D01*
X189676238Y-95537428D01*
X189771476Y-95632666D01*
X189819095Y-95727904D01*
X189533380Y-94823142D02*
X189533380Y-94156476D01*
X190533380Y-94585047D01*
%TO.C,R18*%
X105570380Y-110967857D02*
X105094190Y-111301190D01*
X105570380Y-111539285D02*
X104570380Y-111539285D01*
X104570380Y-111158333D01*
X104618000Y-111063095D01*
X104665619Y-111015476D01*
X104760857Y-110967857D01*
X104903714Y-110967857D01*
X104998952Y-111015476D01*
X105046571Y-111063095D01*
X105094190Y-111158333D01*
X105094190Y-111539285D01*
X105570380Y-110015476D02*
X105570380Y-110586904D01*
X105570380Y-110301190D02*
X104570380Y-110301190D01*
X104713238Y-110396428D01*
X104808476Y-110491666D01*
X104856095Y-110586904D01*
X104998952Y-109444047D02*
X104951333Y-109539285D01*
X104903714Y-109586904D01*
X104808476Y-109634523D01*
X104760857Y-109634523D01*
X104665619Y-109586904D01*
X104618000Y-109539285D01*
X104570380Y-109444047D01*
X104570380Y-109253571D01*
X104618000Y-109158333D01*
X104665619Y-109110714D01*
X104760857Y-109063095D01*
X104808476Y-109063095D01*
X104903714Y-109110714D01*
X104951333Y-109158333D01*
X104998952Y-109253571D01*
X104998952Y-109444047D01*
X105046571Y-109539285D01*
X105094190Y-109586904D01*
X105189428Y-109634523D01*
X105379904Y-109634523D01*
X105475142Y-109586904D01*
X105522761Y-109539285D01*
X105570380Y-109444047D01*
X105570380Y-109253571D01*
X105522761Y-109158333D01*
X105475142Y-109110714D01*
X105379904Y-109063095D01*
X105189428Y-109063095D01*
X105094190Y-109110714D01*
X105046571Y-109158333D01*
X104998952Y-109253571D01*
%TO.C,R19*%
X111053379Y-69946857D02*
X110577189Y-70280190D01*
X111053379Y-70518285D02*
X110053379Y-70518285D01*
X110053379Y-70137333D01*
X110100999Y-70042095D01*
X110148618Y-69994476D01*
X110243856Y-69946857D01*
X110386713Y-69946857D01*
X110481951Y-69994476D01*
X110529570Y-70042095D01*
X110577189Y-70137333D01*
X110577189Y-70518285D01*
X111053379Y-68994476D02*
X111053379Y-69565904D01*
X111053379Y-69280190D02*
X110053379Y-69280190D01*
X110196237Y-69375428D01*
X110291475Y-69470666D01*
X110339094Y-69565904D01*
X111053379Y-68518285D02*
X111053379Y-68327809D01*
X111005760Y-68232571D01*
X110958141Y-68184952D01*
X110815284Y-68089714D01*
X110624808Y-68042095D01*
X110243856Y-68042095D01*
X110148618Y-68089714D01*
X110100999Y-68137333D01*
X110053379Y-68232571D01*
X110053379Y-68423047D01*
X110100999Y-68518285D01*
X110148618Y-68565904D01*
X110243856Y-68613523D01*
X110481951Y-68613523D01*
X110577189Y-68565904D01*
X110624808Y-68518285D01*
X110672427Y-68423047D01*
X110672427Y-68232571D01*
X110624808Y-68137333D01*
X110577189Y-68089714D01*
X110481951Y-68042095D01*
%TO.C,R20*%
X171525380Y-111856857D02*
X171049190Y-112190190D01*
X171525380Y-112428285D02*
X170525380Y-112428285D01*
X170525380Y-112047333D01*
X170573000Y-111952095D01*
X170620619Y-111904476D01*
X170715857Y-111856857D01*
X170858714Y-111856857D01*
X170953952Y-111904476D01*
X171001571Y-111952095D01*
X171049190Y-112047333D01*
X171049190Y-112428285D01*
X170620619Y-111475904D02*
X170573000Y-111428285D01*
X170525380Y-111333047D01*
X170525380Y-111094952D01*
X170573000Y-110999714D01*
X170620619Y-110952095D01*
X170715857Y-110904476D01*
X170811095Y-110904476D01*
X170953952Y-110952095D01*
X171525380Y-111523523D01*
X171525380Y-110904476D01*
X170525380Y-110285428D02*
X170525380Y-110190190D01*
X170573000Y-110094952D01*
X170620619Y-110047333D01*
X170715857Y-109999714D01*
X170906333Y-109952095D01*
X171144428Y-109952095D01*
X171334904Y-109999714D01*
X171430142Y-110047333D01*
X171477761Y-110094952D01*
X171525380Y-110190190D01*
X171525380Y-110285428D01*
X171477761Y-110380666D01*
X171430142Y-110428285D01*
X171334904Y-110475904D01*
X171144428Y-110523523D01*
X170906333Y-110523523D01*
X170715857Y-110475904D01*
X170620619Y-110428285D01*
X170573000Y-110380666D01*
X170525380Y-110285428D01*
%TO.C,J5*%
X163396780Y-66640133D02*
X164111066Y-66640133D01*
X164253923Y-66687752D01*
X164349161Y-66782990D01*
X164396780Y-66925847D01*
X164396780Y-67021085D01*
X163396780Y-65687752D02*
X163396780Y-66163942D01*
X163872971Y-66211561D01*
X163825352Y-66163942D01*
X163777733Y-66068704D01*
X163777733Y-65830609D01*
X163825352Y-65735371D01*
X163872971Y-65687752D01*
X163968209Y-65640133D01*
X164206304Y-65640133D01*
X164301542Y-65687752D01*
X164349161Y-65735371D01*
X164396780Y-65830609D01*
X164396780Y-66068704D01*
X164349161Y-66163942D01*
X164301542Y-66211561D01*
%TO.C,J4*%
X179273333Y-61563404D02*
X179273333Y-62134833D01*
X179235238Y-62249119D01*
X179159047Y-62325309D01*
X179044761Y-62363404D01*
X178968571Y-62363404D01*
X179997142Y-61830071D02*
X179997142Y-62363404D01*
X179806666Y-61525309D02*
X179616190Y-62096738D01*
X180111428Y-62096738D01*
D12*
X177725714Y-56834228D02*
X177725714Y-57262800D01*
X177697142Y-57348514D01*
X177640000Y-57405657D01*
X177554285Y-57434228D01*
X177497142Y-57434228D01*
X177982857Y-57262800D02*
X178268571Y-57262800D01*
X177925714Y-57434228D02*
X178125714Y-56834228D01*
X178325714Y-57434228D01*
X178868571Y-57377085D02*
X178840000Y-57405657D01*
X178754285Y-57434228D01*
X178697142Y-57434228D01*
X178611428Y-57405657D01*
X178554285Y-57348514D01*
X178525714Y-57291371D01*
X178497142Y-57177085D01*
X178497142Y-57091371D01*
X178525714Y-56977085D01*
X178554285Y-56919942D01*
X178611428Y-56862800D01*
X178697142Y-56834228D01*
X178754285Y-56834228D01*
X178840000Y-56862800D01*
X178868571Y-56891371D01*
X179125714Y-57434228D02*
X179125714Y-56834228D01*
X179468571Y-57434228D02*
X179211428Y-57091371D01*
X179468571Y-56834228D02*
X179125714Y-57177085D01*
X179582857Y-57491371D02*
X180040000Y-57491371D01*
X180097142Y-56834228D02*
X180440000Y-56834228D01*
X180268571Y-57434228D02*
X180268571Y-56834228D01*
X180982857Y-57434228D02*
X180782857Y-57148514D01*
X180640000Y-57434228D02*
X180640000Y-56834228D01*
X180868571Y-56834228D01*
X180925714Y-56862800D01*
X180954285Y-56891371D01*
X180982857Y-56948514D01*
X180982857Y-57034228D01*
X180954285Y-57091371D01*
X180925714Y-57119942D01*
X180868571Y-57148514D01*
X180640000Y-57148514D01*
X181211428Y-57405657D02*
X181297142Y-57434228D01*
X181440000Y-57434228D01*
X181497142Y-57405657D01*
X181525714Y-57377085D01*
X181554285Y-57319942D01*
X181554285Y-57262800D01*
X181525714Y-57205657D01*
X181497142Y-57177085D01*
X181440000Y-57148514D01*
X181325714Y-57119942D01*
X181268571Y-57091371D01*
X181240000Y-57062800D01*
X181211428Y-57005657D01*
X181211428Y-56948514D01*
X181240000Y-56891371D01*
X181268571Y-56862800D01*
X181325714Y-56834228D01*
X181468571Y-56834228D01*
X181554285Y-56862800D01*
%TO.C,C10*%
D11*
X139971642Y-70486642D02*
X139924023Y-70534261D01*
X139781166Y-70581880D01*
X139685928Y-70581880D01*
X139543071Y-70534261D01*
X139447833Y-70439023D01*
X139400214Y-70343785D01*
X139352595Y-70153309D01*
X139352595Y-70010452D01*
X139400214Y-69819976D01*
X139447833Y-69724738D01*
X139543071Y-69629500D01*
X139685928Y-69581880D01*
X139781166Y-69581880D01*
X139924023Y-69629500D01*
X139971642Y-69677119D01*
X140924023Y-70581880D02*
X140352595Y-70581880D01*
X140638309Y-70581880D02*
X140638309Y-69581880D01*
X140543071Y-69724738D01*
X140447833Y-69819976D01*
X140352595Y-69867595D01*
X141543071Y-69581880D02*
X141638309Y-69581880D01*
X141733547Y-69629500D01*
X141781166Y-69677119D01*
X141828785Y-69772357D01*
X141876404Y-69962833D01*
X141876404Y-70200928D01*
X141828785Y-70391404D01*
X141781166Y-70486642D01*
X141733547Y-70534261D01*
X141638309Y-70581880D01*
X141543071Y-70581880D01*
X141447833Y-70534261D01*
X141400214Y-70486642D01*
X141352595Y-70391404D01*
X141304976Y-70200928D01*
X141304976Y-69962833D01*
X141352595Y-69772357D01*
X141400214Y-69677119D01*
X141447833Y-69629500D01*
X141543071Y-69581880D01*
%TO.C,C11*%
X152671642Y-78157442D02*
X152624023Y-78205061D01*
X152481166Y-78252680D01*
X152385928Y-78252680D01*
X152243071Y-78205061D01*
X152147833Y-78109823D01*
X152100214Y-78014585D01*
X152052595Y-77824109D01*
X152052595Y-77681252D01*
X152100214Y-77490776D01*
X152147833Y-77395538D01*
X152243071Y-77300300D01*
X152385928Y-77252680D01*
X152481166Y-77252680D01*
X152624023Y-77300300D01*
X152671642Y-77347919D01*
X153624023Y-78252680D02*
X153052595Y-78252680D01*
X153338309Y-78252680D02*
X153338309Y-77252680D01*
X153243071Y-77395538D01*
X153147833Y-77490776D01*
X153052595Y-77538395D01*
X154576404Y-78252680D02*
X154004976Y-78252680D01*
X154290690Y-78252680D02*
X154290690Y-77252680D01*
X154195452Y-77395538D01*
X154100214Y-77490776D01*
X154004976Y-77538395D01*
%TO.C,C12*%
X152735142Y-65660642D02*
X152687523Y-65708261D01*
X152544666Y-65755880D01*
X152449428Y-65755880D01*
X152306571Y-65708261D01*
X152211333Y-65613023D01*
X152163714Y-65517785D01*
X152116095Y-65327309D01*
X152116095Y-65184452D01*
X152163714Y-64993976D01*
X152211333Y-64898738D01*
X152306571Y-64803500D01*
X152449428Y-64755880D01*
X152544666Y-64755880D01*
X152687523Y-64803500D01*
X152735142Y-64851119D01*
X153687523Y-65755880D02*
X153116095Y-65755880D01*
X153401809Y-65755880D02*
X153401809Y-64755880D01*
X153306571Y-64898738D01*
X153211333Y-64993976D01*
X153116095Y-65041595D01*
X154068476Y-64851119D02*
X154116095Y-64803500D01*
X154211333Y-64755880D01*
X154449428Y-64755880D01*
X154544666Y-64803500D01*
X154592285Y-64851119D01*
X154639904Y-64946357D01*
X154639904Y-65041595D01*
X154592285Y-65184452D01*
X154020857Y-65755880D01*
X154639904Y-65755880D01*
%TO.C,C13*%
X152602141Y-68041641D02*
X152554522Y-68089260D01*
X152411665Y-68136879D01*
X152316427Y-68136879D01*
X152173570Y-68089260D01*
X152078332Y-67994022D01*
X152030713Y-67898784D01*
X151983094Y-67708308D01*
X151983094Y-67565451D01*
X152030713Y-67374975D01*
X152078332Y-67279737D01*
X152173570Y-67184499D01*
X152316427Y-67136879D01*
X152411665Y-67136879D01*
X152554522Y-67184499D01*
X152602141Y-67232118D01*
X153554522Y-68136879D02*
X152983094Y-68136879D01*
X153268808Y-68136879D02*
X153268808Y-67136879D01*
X153173570Y-67279737D01*
X153078332Y-67374975D01*
X152983094Y-67422594D01*
X153887856Y-67136879D02*
X154506903Y-67136879D01*
X154173570Y-67517832D01*
X154316427Y-67517832D01*
X154411665Y-67565451D01*
X154459284Y-67613070D01*
X154506903Y-67708308D01*
X154506903Y-67946403D01*
X154459284Y-68041641D01*
X154411665Y-68089260D01*
X154316427Y-68136879D01*
X154030713Y-68136879D01*
X153935475Y-68089260D01*
X153887856Y-68041641D01*
%TO.C,C14*%
X171454942Y-73115542D02*
X171407323Y-73163161D01*
X171264466Y-73210780D01*
X171169228Y-73210780D01*
X171026371Y-73163161D01*
X170931133Y-73067923D01*
X170883514Y-72972685D01*
X170835895Y-72782209D01*
X170835895Y-72639352D01*
X170883514Y-72448876D01*
X170931133Y-72353638D01*
X171026371Y-72258400D01*
X171169228Y-72210780D01*
X171264466Y-72210780D01*
X171407323Y-72258400D01*
X171454942Y-72306019D01*
X172407323Y-73210780D02*
X171835895Y-73210780D01*
X172121609Y-73210780D02*
X172121609Y-72210780D01*
X172026371Y-72353638D01*
X171931133Y-72448876D01*
X171835895Y-72496495D01*
X173264466Y-72544114D02*
X173264466Y-73210780D01*
X173026371Y-72163161D02*
X172788276Y-72877447D01*
X173407323Y-72877447D01*
%TO.C,C15*%
X186707642Y-73115542D02*
X186660023Y-73163161D01*
X186517166Y-73210780D01*
X186421928Y-73210780D01*
X186279071Y-73163161D01*
X186183833Y-73067923D01*
X186136214Y-72972685D01*
X186088595Y-72782209D01*
X186088595Y-72639352D01*
X186136214Y-72448876D01*
X186183833Y-72353638D01*
X186279071Y-72258400D01*
X186421928Y-72210780D01*
X186517166Y-72210780D01*
X186660023Y-72258400D01*
X186707642Y-72306019D01*
X187660023Y-73210780D02*
X187088595Y-73210780D01*
X187374309Y-73210780D02*
X187374309Y-72210780D01*
X187279071Y-72353638D01*
X187183833Y-72448876D01*
X187088595Y-72496495D01*
X188564785Y-72210780D02*
X188088595Y-72210780D01*
X188040976Y-72686971D01*
X188088595Y-72639352D01*
X188183833Y-72591733D01*
X188421928Y-72591733D01*
X188517166Y-72639352D01*
X188564785Y-72686971D01*
X188612404Y-72782209D01*
X188612404Y-73020304D01*
X188564785Y-73115542D01*
X188517166Y-73163161D01*
X188421928Y-73210780D01*
X188183833Y-73210780D01*
X188088595Y-73163161D01*
X188040976Y-73115542D01*
%TO.C,Q3*%
X153905061Y-72112219D02*
X153809823Y-72064600D01*
X153714585Y-71969361D01*
X153571728Y-71826504D01*
X153476490Y-71778885D01*
X153381252Y-71778885D01*
X153428871Y-72016980D02*
X153333633Y-71969361D01*
X153238395Y-71874123D01*
X153190776Y-71683647D01*
X153190776Y-71350314D01*
X153238395Y-71159838D01*
X153333633Y-71064600D01*
X153428871Y-71016980D01*
X153619347Y-71016980D01*
X153714585Y-71064600D01*
X153809823Y-71159838D01*
X153857442Y-71350314D01*
X153857442Y-71683647D01*
X153809823Y-71874123D01*
X153714585Y-71969361D01*
X153619347Y-72016980D01*
X153428871Y-72016980D01*
X154190776Y-71016980D02*
X154809823Y-71016980D01*
X154476490Y-71397933D01*
X154619347Y-71397933D01*
X154714585Y-71445552D01*
X154762204Y-71493171D01*
X154809823Y-71588409D01*
X154809823Y-71826504D01*
X154762204Y-71921742D01*
X154714585Y-71969361D01*
X154619347Y-72016980D01*
X154333633Y-72016980D01*
X154238395Y-71969361D01*
X154190776Y-71921742D01*
%TO.C,Q5*%
X176447561Y-69838919D02*
X176352323Y-69791300D01*
X176257085Y-69696061D01*
X176114228Y-69553204D01*
X176018990Y-69505585D01*
X175923752Y-69505585D01*
X175971371Y-69743680D02*
X175876133Y-69696061D01*
X175780895Y-69600823D01*
X175733276Y-69410347D01*
X175733276Y-69077014D01*
X175780895Y-68886538D01*
X175876133Y-68791300D01*
X175971371Y-68743680D01*
X176161847Y-68743680D01*
X176257085Y-68791300D01*
X176352323Y-68886538D01*
X176399942Y-69077014D01*
X176399942Y-69410347D01*
X176352323Y-69600823D01*
X176257085Y-69696061D01*
X176161847Y-69743680D01*
X175971371Y-69743680D01*
X177304704Y-68743680D02*
X176828514Y-68743680D01*
X176780895Y-69219871D01*
X176828514Y-69172252D01*
X176923752Y-69124633D01*
X177161847Y-69124633D01*
X177257085Y-69172252D01*
X177304704Y-69219871D01*
X177352323Y-69315109D01*
X177352323Y-69553204D01*
X177304704Y-69648442D01*
X177257085Y-69696061D01*
X177161847Y-69743680D01*
X176923752Y-69743680D01*
X176828514Y-69696061D01*
X176780895Y-69648442D01*
%TO.C,Q6*%
X176409461Y-77243019D02*
X176314223Y-77195400D01*
X176218985Y-77100161D01*
X176076128Y-76957304D01*
X175980890Y-76909685D01*
X175885652Y-76909685D01*
X175933271Y-77147780D02*
X175838033Y-77100161D01*
X175742795Y-77004923D01*
X175695176Y-76814447D01*
X175695176Y-76481114D01*
X175742795Y-76290638D01*
X175838033Y-76195400D01*
X175933271Y-76147780D01*
X176123747Y-76147780D01*
X176218985Y-76195400D01*
X176314223Y-76290638D01*
X176361842Y-76481114D01*
X176361842Y-76814447D01*
X176314223Y-77004923D01*
X176218985Y-77100161D01*
X176123747Y-77147780D01*
X175933271Y-77147780D01*
X177218985Y-76147780D02*
X177028509Y-76147780D01*
X176933271Y-76195400D01*
X176885652Y-76243019D01*
X176790414Y-76385876D01*
X176742795Y-76576352D01*
X176742795Y-76957304D01*
X176790414Y-77052542D01*
X176838033Y-77100161D01*
X176933271Y-77147780D01*
X177123747Y-77147780D01*
X177218985Y-77100161D01*
X177266604Y-77052542D01*
X177314223Y-76957304D01*
X177314223Y-76719209D01*
X177266604Y-76623971D01*
X177218985Y-76576352D01*
X177123747Y-76528733D01*
X176933271Y-76528733D01*
X176838033Y-76576352D01*
X176790414Y-76623971D01*
X176742795Y-76719209D01*
%TO.C,Q7*%
X183051561Y-69648419D02*
X182956323Y-69600800D01*
X182861085Y-69505561D01*
X182718228Y-69362704D01*
X182622990Y-69315085D01*
X182527752Y-69315085D01*
X182575371Y-69553180D02*
X182480133Y-69505561D01*
X182384895Y-69410323D01*
X182337276Y-69219847D01*
X182337276Y-68886514D01*
X182384895Y-68696038D01*
X182480133Y-68600800D01*
X182575371Y-68553180D01*
X182765847Y-68553180D01*
X182861085Y-68600800D01*
X182956323Y-68696038D01*
X183003942Y-68886514D01*
X183003942Y-69219847D01*
X182956323Y-69410323D01*
X182861085Y-69505561D01*
X182765847Y-69553180D01*
X182575371Y-69553180D01*
X183337276Y-68553180D02*
X184003942Y-68553180D01*
X183575371Y-69553180D01*
%TO.C,Q8*%
X183071760Y-77226320D02*
X182976522Y-77178701D01*
X182881284Y-77083462D01*
X182738427Y-76940605D01*
X182643189Y-76892986D01*
X182547951Y-76892986D01*
X182595570Y-77131081D02*
X182500332Y-77083462D01*
X182405094Y-76988224D01*
X182357475Y-76797748D01*
X182357475Y-76464415D01*
X182405094Y-76273939D01*
X182500332Y-76178701D01*
X182595570Y-76131081D01*
X182786046Y-76131081D01*
X182881284Y-76178701D01*
X182976522Y-76273939D01*
X183024141Y-76464415D01*
X183024141Y-76797748D01*
X182976522Y-76988224D01*
X182881284Y-77083462D01*
X182786046Y-77131081D01*
X182595570Y-77131081D01*
X183595570Y-76559653D02*
X183500332Y-76512034D01*
X183452713Y-76464415D01*
X183405094Y-76369177D01*
X183405094Y-76321558D01*
X183452713Y-76226320D01*
X183500332Y-76178701D01*
X183595570Y-76131081D01*
X183786046Y-76131081D01*
X183881284Y-76178701D01*
X183928903Y-76226320D01*
X183976522Y-76321558D01*
X183976522Y-76369177D01*
X183928903Y-76464415D01*
X183881284Y-76512034D01*
X183786046Y-76559653D01*
X183595570Y-76559653D01*
X183500332Y-76607272D01*
X183452713Y-76654891D01*
X183405094Y-76750129D01*
X183405094Y-76940605D01*
X183452713Y-77035843D01*
X183500332Y-77083462D01*
X183595570Y-77131081D01*
X183786046Y-77131081D01*
X183881284Y-77083462D01*
X183928903Y-77035843D01*
X183976522Y-76940605D01*
X183976522Y-76750129D01*
X183928903Y-76654891D01*
X183881284Y-76607272D01*
X183786046Y-76559653D01*
%TO.C,R9*%
X140447833Y-75915880D02*
X140114500Y-75439690D01*
X139876404Y-75915880D02*
X139876404Y-74915880D01*
X140257357Y-74915880D01*
X140352595Y-74963500D01*
X140400214Y-75011119D01*
X140447833Y-75106357D01*
X140447833Y-75249214D01*
X140400214Y-75344452D01*
X140352595Y-75392071D01*
X140257357Y-75439690D01*
X139876404Y-75439690D01*
X140924023Y-75915880D02*
X141114500Y-75915880D01*
X141209738Y-75868261D01*
X141257357Y-75820642D01*
X141352595Y-75677785D01*
X141400214Y-75487309D01*
X141400214Y-75106357D01*
X141352595Y-75011119D01*
X141304976Y-74963500D01*
X141209738Y-74915880D01*
X141019261Y-74915880D01*
X140924023Y-74963500D01*
X140876404Y-75011119D01*
X140828785Y-75106357D01*
X140828785Y-75344452D01*
X140876404Y-75439690D01*
X140924023Y-75487309D01*
X141019261Y-75534928D01*
X141209738Y-75534928D01*
X141304976Y-75487309D01*
X141352595Y-75439690D01*
X141400214Y-75344452D01*
%TO.C,R10*%
X139971642Y-73185380D02*
X139638309Y-72709190D01*
X139400214Y-73185380D02*
X139400214Y-72185380D01*
X139781166Y-72185380D01*
X139876404Y-72233000D01*
X139924023Y-72280619D01*
X139971642Y-72375857D01*
X139971642Y-72518714D01*
X139924023Y-72613952D01*
X139876404Y-72661571D01*
X139781166Y-72709190D01*
X139400214Y-72709190D01*
X140924023Y-73185380D02*
X140352595Y-73185380D01*
X140638309Y-73185380D02*
X140638309Y-72185380D01*
X140543071Y-72328238D01*
X140447833Y-72423476D01*
X140352595Y-72471095D01*
X141543071Y-72185380D02*
X141638309Y-72185380D01*
X141733547Y-72233000D01*
X141781166Y-72280619D01*
X141828785Y-72375857D01*
X141876404Y-72566333D01*
X141876404Y-72804428D01*
X141828785Y-72994904D01*
X141781166Y-73090142D01*
X141733547Y-73137761D01*
X141638309Y-73185380D01*
X141543071Y-73185380D01*
X141447833Y-73137761D01*
X141400214Y-73090142D01*
X141352595Y-72994904D01*
X141304976Y-72804428D01*
X141304976Y-72566333D01*
X141352595Y-72375857D01*
X141400214Y-72280619D01*
X141447833Y-72233000D01*
X141543071Y-72185380D01*
%TO.C,R22*%
X152608142Y-75979380D02*
X152274809Y-75503190D01*
X152036714Y-75979380D02*
X152036714Y-74979380D01*
X152417666Y-74979380D01*
X152512904Y-75027000D01*
X152560523Y-75074619D01*
X152608142Y-75169857D01*
X152608142Y-75312714D01*
X152560523Y-75407952D01*
X152512904Y-75455571D01*
X152417666Y-75503190D01*
X152036714Y-75503190D01*
X152989095Y-75074619D02*
X153036714Y-75027000D01*
X153131952Y-74979380D01*
X153370047Y-74979380D01*
X153465285Y-75027000D01*
X153512904Y-75074619D01*
X153560523Y-75169857D01*
X153560523Y-75265095D01*
X153512904Y-75407952D01*
X152941476Y-75979380D01*
X153560523Y-75979380D01*
X153941476Y-75074619D02*
X153989095Y-75027000D01*
X154084333Y-74979380D01*
X154322428Y-74979380D01*
X154417666Y-75027000D01*
X154465285Y-75074619D01*
X154512904Y-75169857D01*
X154512904Y-75265095D01*
X154465285Y-75407952D01*
X153893857Y-75979380D01*
X154512904Y-75979380D01*
%TO.C,R24*%
X171543842Y-68295880D02*
X171210509Y-67819690D01*
X170972414Y-68295880D02*
X170972414Y-67295880D01*
X171353366Y-67295880D01*
X171448604Y-67343500D01*
X171496223Y-67391119D01*
X171543842Y-67486357D01*
X171543842Y-67629214D01*
X171496223Y-67724452D01*
X171448604Y-67772071D01*
X171353366Y-67819690D01*
X170972414Y-67819690D01*
X171924795Y-67391119D02*
X171972414Y-67343500D01*
X172067652Y-67295880D01*
X172305747Y-67295880D01*
X172400985Y-67343500D01*
X172448604Y-67391119D01*
X172496223Y-67486357D01*
X172496223Y-67581595D01*
X172448604Y-67724452D01*
X171877176Y-68295880D01*
X172496223Y-68295880D01*
X173353366Y-67629214D02*
X173353366Y-68295880D01*
X173115271Y-67248261D02*
X172877176Y-67962547D01*
X173496223Y-67962547D01*
%TO.C,R25*%
X171543842Y-70404080D02*
X171210509Y-69927890D01*
X170972414Y-70404080D02*
X170972414Y-69404080D01*
X171353366Y-69404080D01*
X171448604Y-69451700D01*
X171496223Y-69499319D01*
X171543842Y-69594557D01*
X171543842Y-69737414D01*
X171496223Y-69832652D01*
X171448604Y-69880271D01*
X171353366Y-69927890D01*
X170972414Y-69927890D01*
X171924795Y-69499319D02*
X171972414Y-69451700D01*
X172067652Y-69404080D01*
X172305747Y-69404080D01*
X172400985Y-69451700D01*
X172448604Y-69499319D01*
X172496223Y-69594557D01*
X172496223Y-69689795D01*
X172448604Y-69832652D01*
X171877176Y-70404080D01*
X172496223Y-70404080D01*
X173400985Y-69404080D02*
X172924795Y-69404080D01*
X172877176Y-69880271D01*
X172924795Y-69832652D01*
X173020033Y-69785033D01*
X173258128Y-69785033D01*
X173353366Y-69832652D01*
X173400985Y-69880271D01*
X173448604Y-69975509D01*
X173448604Y-70213604D01*
X173400985Y-70308842D01*
X173353366Y-70356461D01*
X173258128Y-70404080D01*
X173020033Y-70404080D01*
X172924795Y-70356461D01*
X172877176Y-70308842D01*
%TO.C,R26*%
X171480342Y-75979380D02*
X171147009Y-75503190D01*
X170908914Y-75979380D02*
X170908914Y-74979380D01*
X171289866Y-74979380D01*
X171385104Y-75027000D01*
X171432723Y-75074619D01*
X171480342Y-75169857D01*
X171480342Y-75312714D01*
X171432723Y-75407952D01*
X171385104Y-75455571D01*
X171289866Y-75503190D01*
X170908914Y-75503190D01*
X171861295Y-75074619D02*
X171908914Y-75027000D01*
X172004152Y-74979380D01*
X172242247Y-74979380D01*
X172337485Y-75027000D01*
X172385104Y-75074619D01*
X172432723Y-75169857D01*
X172432723Y-75265095D01*
X172385104Y-75407952D01*
X171813676Y-75979380D01*
X172432723Y-75979380D01*
X173289866Y-74979380D02*
X173099390Y-74979380D01*
X173004152Y-75027000D01*
X172956533Y-75074619D01*
X172861295Y-75217476D01*
X172813676Y-75407952D01*
X172813676Y-75788904D01*
X172861295Y-75884142D01*
X172908914Y-75931761D01*
X173004152Y-75979380D01*
X173194628Y-75979380D01*
X173289866Y-75931761D01*
X173337485Y-75884142D01*
X173385104Y-75788904D01*
X173385104Y-75550809D01*
X173337485Y-75455571D01*
X173289866Y-75407952D01*
X173194628Y-75360333D01*
X173004152Y-75360333D01*
X172908914Y-75407952D01*
X172861295Y-75455571D01*
X172813676Y-75550809D01*
%TO.C,R27*%
X171416842Y-78392380D02*
X171083509Y-77916190D01*
X170845414Y-78392380D02*
X170845414Y-77392380D01*
X171226366Y-77392380D01*
X171321604Y-77440000D01*
X171369223Y-77487619D01*
X171416842Y-77582857D01*
X171416842Y-77725714D01*
X171369223Y-77820952D01*
X171321604Y-77868571D01*
X171226366Y-77916190D01*
X170845414Y-77916190D01*
X171797795Y-77487619D02*
X171845414Y-77440000D01*
X171940652Y-77392380D01*
X172178747Y-77392380D01*
X172273985Y-77440000D01*
X172321604Y-77487619D01*
X172369223Y-77582857D01*
X172369223Y-77678095D01*
X172321604Y-77820952D01*
X171750176Y-78392380D01*
X172369223Y-78392380D01*
X172702557Y-77392380D02*
X173369223Y-77392380D01*
X172940652Y-78392380D01*
%TO.C,R28*%
X186771142Y-68219680D02*
X186437809Y-67743490D01*
X186199714Y-68219680D02*
X186199714Y-67219680D01*
X186580666Y-67219680D01*
X186675904Y-67267300D01*
X186723523Y-67314919D01*
X186771142Y-67410157D01*
X186771142Y-67553014D01*
X186723523Y-67648252D01*
X186675904Y-67695871D01*
X186580666Y-67743490D01*
X186199714Y-67743490D01*
X187152095Y-67314919D02*
X187199714Y-67267300D01*
X187294952Y-67219680D01*
X187533047Y-67219680D01*
X187628285Y-67267300D01*
X187675904Y-67314919D01*
X187723523Y-67410157D01*
X187723523Y-67505395D01*
X187675904Y-67648252D01*
X187104476Y-68219680D01*
X187723523Y-68219680D01*
X188294952Y-67648252D02*
X188199714Y-67600633D01*
X188152095Y-67553014D01*
X188104476Y-67457776D01*
X188104476Y-67410157D01*
X188152095Y-67314919D01*
X188199714Y-67267300D01*
X188294952Y-67219680D01*
X188485428Y-67219680D01*
X188580666Y-67267300D01*
X188628285Y-67314919D01*
X188675904Y-67410157D01*
X188675904Y-67457776D01*
X188628285Y-67553014D01*
X188580666Y-67600633D01*
X188485428Y-67648252D01*
X188294952Y-67648252D01*
X188199714Y-67695871D01*
X188152095Y-67743490D01*
X188104476Y-67838728D01*
X188104476Y-68029204D01*
X188152095Y-68124442D01*
X188199714Y-68172061D01*
X188294952Y-68219680D01*
X188485428Y-68219680D01*
X188580666Y-68172061D01*
X188628285Y-68124442D01*
X188675904Y-68029204D01*
X188675904Y-67838728D01*
X188628285Y-67743490D01*
X188580666Y-67695871D01*
X188485428Y-67648252D01*
%TO.C,R29*%
X186771142Y-70454880D02*
X186437809Y-69978690D01*
X186199714Y-70454880D02*
X186199714Y-69454880D01*
X186580666Y-69454880D01*
X186675904Y-69502500D01*
X186723523Y-69550119D01*
X186771142Y-69645357D01*
X186771142Y-69788214D01*
X186723523Y-69883452D01*
X186675904Y-69931071D01*
X186580666Y-69978690D01*
X186199714Y-69978690D01*
X187152095Y-69550119D02*
X187199714Y-69502500D01*
X187294952Y-69454880D01*
X187533047Y-69454880D01*
X187628285Y-69502500D01*
X187675904Y-69550119D01*
X187723523Y-69645357D01*
X187723523Y-69740595D01*
X187675904Y-69883452D01*
X187104476Y-70454880D01*
X187723523Y-70454880D01*
X188199714Y-70454880D02*
X188390190Y-70454880D01*
X188485428Y-70407261D01*
X188533047Y-70359642D01*
X188628285Y-70216785D01*
X188675904Y-70026309D01*
X188675904Y-69645357D01*
X188628285Y-69550119D01*
X188580666Y-69502500D01*
X188485428Y-69454880D01*
X188294952Y-69454880D01*
X188199714Y-69502500D01*
X188152095Y-69550119D01*
X188104476Y-69645357D01*
X188104476Y-69883452D01*
X188152095Y-69978690D01*
X188199714Y-70026309D01*
X188294952Y-70073928D01*
X188485428Y-70073928D01*
X188580666Y-70026309D01*
X188628285Y-69978690D01*
X188675904Y-69883452D01*
%TO.C,R30*%
X186834642Y-76157180D02*
X186501309Y-75680990D01*
X186263214Y-76157180D02*
X186263214Y-75157180D01*
X186644166Y-75157180D01*
X186739404Y-75204800D01*
X186787023Y-75252419D01*
X186834642Y-75347657D01*
X186834642Y-75490514D01*
X186787023Y-75585752D01*
X186739404Y-75633371D01*
X186644166Y-75680990D01*
X186263214Y-75680990D01*
X187167976Y-75157180D02*
X187787023Y-75157180D01*
X187453690Y-75538133D01*
X187596547Y-75538133D01*
X187691785Y-75585752D01*
X187739404Y-75633371D01*
X187787023Y-75728609D01*
X187787023Y-75966704D01*
X187739404Y-76061942D01*
X187691785Y-76109561D01*
X187596547Y-76157180D01*
X187310833Y-76157180D01*
X187215595Y-76109561D01*
X187167976Y-76061942D01*
X188406071Y-75157180D02*
X188501309Y-75157180D01*
X188596547Y-75204800D01*
X188644166Y-75252419D01*
X188691785Y-75347657D01*
X188739404Y-75538133D01*
X188739404Y-75776228D01*
X188691785Y-75966704D01*
X188644166Y-76061942D01*
X188596547Y-76109561D01*
X188501309Y-76157180D01*
X188406071Y-76157180D01*
X188310833Y-76109561D01*
X188263214Y-76061942D01*
X188215595Y-75966704D01*
X188167976Y-75776228D01*
X188167976Y-75538133D01*
X188215595Y-75347657D01*
X188263214Y-75252419D01*
X188310833Y-75204800D01*
X188406071Y-75157180D01*
%TO.C,R31*%
X186834642Y-78443180D02*
X186501309Y-77966990D01*
X186263214Y-78443180D02*
X186263214Y-77443180D01*
X186644166Y-77443180D01*
X186739404Y-77490800D01*
X186787023Y-77538419D01*
X186834642Y-77633657D01*
X186834642Y-77776514D01*
X186787023Y-77871752D01*
X186739404Y-77919371D01*
X186644166Y-77966990D01*
X186263214Y-77966990D01*
X187167976Y-77443180D02*
X187787023Y-77443180D01*
X187453690Y-77824133D01*
X187596547Y-77824133D01*
X187691785Y-77871752D01*
X187739404Y-77919371D01*
X187787023Y-78014609D01*
X187787023Y-78252704D01*
X187739404Y-78347942D01*
X187691785Y-78395561D01*
X187596547Y-78443180D01*
X187310833Y-78443180D01*
X187215595Y-78395561D01*
X187167976Y-78347942D01*
X188739404Y-78443180D02*
X188167976Y-78443180D01*
X188453690Y-78443180D02*
X188453690Y-77443180D01*
X188358452Y-77586038D01*
X188263214Y-77681276D01*
X188167976Y-77728895D01*
%TO.C,U3*%
X146329595Y-71550380D02*
X146329595Y-72359904D01*
X146377214Y-72455142D01*
X146424833Y-72502761D01*
X146520071Y-72550380D01*
X146710547Y-72550380D01*
X146805785Y-72502761D01*
X146853404Y-72455142D01*
X146901023Y-72359904D01*
X146901023Y-71550380D01*
X147281976Y-71550380D02*
X147901023Y-71550380D01*
X147567690Y-71931333D01*
X147710547Y-71931333D01*
X147805785Y-71978952D01*
X147853404Y-72026571D01*
X147901023Y-72121809D01*
X147901023Y-72359904D01*
X147853404Y-72455142D01*
X147805785Y-72502761D01*
X147710547Y-72550380D01*
X147424833Y-72550380D01*
X147329595Y-72502761D01*
X147281976Y-72455142D01*
%TO.C,Q2*%
X145734119Y-77768538D02*
X145686500Y-77863776D01*
X145591261Y-77959014D01*
X145448404Y-78101871D01*
X145400785Y-78197109D01*
X145400785Y-78292347D01*
X145638880Y-78244728D02*
X145591261Y-78339966D01*
X145496023Y-78435204D01*
X145305547Y-78482823D01*
X144972214Y-78482823D01*
X144781738Y-78435204D01*
X144686500Y-78339966D01*
X144638880Y-78244728D01*
X144638880Y-78054252D01*
X144686500Y-77959014D01*
X144781738Y-77863776D01*
X144972214Y-77816157D01*
X145305547Y-77816157D01*
X145496023Y-77863776D01*
X145591261Y-77959014D01*
X145638880Y-78054252D01*
X145638880Y-78244728D01*
X144734119Y-77435204D02*
X144686500Y-77387585D01*
X144638880Y-77292347D01*
X144638880Y-77054252D01*
X144686500Y-76959014D01*
X144734119Y-76911395D01*
X144829357Y-76863776D01*
X144924595Y-76863776D01*
X145067452Y-76911395D01*
X145638880Y-77482823D01*
X145638880Y-76863776D01*
%TO.C,Q4*%
X158916719Y-61626838D02*
X158869100Y-61722076D01*
X158773861Y-61817314D01*
X158631004Y-61960171D01*
X158583385Y-62055409D01*
X158583385Y-62150647D01*
X158821480Y-62103028D02*
X158773861Y-62198266D01*
X158678623Y-62293504D01*
X158488147Y-62341123D01*
X158154814Y-62341123D01*
X157964338Y-62293504D01*
X157869100Y-62198266D01*
X157821480Y-62103028D01*
X157821480Y-61912552D01*
X157869100Y-61817314D01*
X157964338Y-61722076D01*
X158154814Y-61674457D01*
X158488147Y-61674457D01*
X158678623Y-61722076D01*
X158773861Y-61817314D01*
X158821480Y-61912552D01*
X158821480Y-62103028D01*
X158154814Y-60817314D02*
X158821480Y-60817314D01*
X157773861Y-61055409D02*
X158488147Y-61293504D01*
X158488147Y-60674457D01*
%TO.C,J6*%
X167409980Y-66589333D02*
X168124266Y-66589333D01*
X168267123Y-66636952D01*
X168362361Y-66732190D01*
X168409980Y-66875047D01*
X168409980Y-66970285D01*
X167409980Y-65684571D02*
X167409980Y-65875047D01*
X167457600Y-65970285D01*
X167505219Y-66017904D01*
X167648076Y-66113142D01*
X167838552Y-66160761D01*
X168219504Y-66160761D01*
X168314742Y-66113142D01*
X168362361Y-66065523D01*
X168409980Y-65970285D01*
X168409980Y-65779809D01*
X168362361Y-65684571D01*
X168314742Y-65636952D01*
X168219504Y-65589333D01*
X167981409Y-65589333D01*
X167886171Y-65636952D01*
X167838552Y-65684571D01*
X167790933Y-65779809D01*
X167790933Y-65970285D01*
X167838552Y-66065523D01*
X167886171Y-66113142D01*
X167981409Y-66160761D01*
%TO.C,C16*%
X176611142Y-73166342D02*
X176563523Y-73213961D01*
X176420666Y-73261580D01*
X176325428Y-73261580D01*
X176182571Y-73213961D01*
X176087333Y-73118723D01*
X176039714Y-73023485D01*
X175992095Y-72833009D01*
X175992095Y-72690152D01*
X176039714Y-72499676D01*
X176087333Y-72404438D01*
X176182571Y-72309200D01*
X176325428Y-72261580D01*
X176420666Y-72261580D01*
X176563523Y-72309200D01*
X176611142Y-72356819D01*
X177563523Y-73261580D02*
X176992095Y-73261580D01*
X177277809Y-73261580D02*
X177277809Y-72261580D01*
X177182571Y-72404438D01*
X177087333Y-72499676D01*
X176992095Y-72547295D01*
X178420666Y-72261580D02*
X178230190Y-72261580D01*
X178134952Y-72309200D01*
X178087333Y-72356819D01*
X177992095Y-72499676D01*
X177944476Y-72690152D01*
X177944476Y-73071104D01*
X177992095Y-73166342D01*
X178039714Y-73213961D01*
X178134952Y-73261580D01*
X178325428Y-73261580D01*
X178420666Y-73213961D01*
X178468285Y-73166342D01*
X178515904Y-73071104D01*
X178515904Y-72833009D01*
X178468285Y-72737771D01*
X178420666Y-72690152D01*
X178325428Y-72642533D01*
X178134952Y-72642533D01*
X178039714Y-72690152D01*
X177992095Y-72737771D01*
X177944476Y-72833009D01*
%TO.C,C17*%
X181691142Y-73166342D02*
X181643523Y-73213961D01*
X181500666Y-73261580D01*
X181405428Y-73261580D01*
X181262571Y-73213961D01*
X181167333Y-73118723D01*
X181119714Y-73023485D01*
X181072095Y-72833009D01*
X181072095Y-72690152D01*
X181119714Y-72499676D01*
X181167333Y-72404438D01*
X181262571Y-72309200D01*
X181405428Y-72261580D01*
X181500666Y-72261580D01*
X181643523Y-72309200D01*
X181691142Y-72356819D01*
X182643523Y-73261580D02*
X182072095Y-73261580D01*
X182357809Y-73261580D02*
X182357809Y-72261580D01*
X182262571Y-72404438D01*
X182167333Y-72499676D01*
X182072095Y-72547295D01*
X182976857Y-72261580D02*
X183643523Y-72261580D01*
X183214952Y-73261580D01*
%TO.C,D3*%
X197951381Y-69889695D02*
X196951381Y-69889695D01*
X196951381Y-69651600D01*
X196999001Y-69508742D01*
X197094239Y-69413504D01*
X197189477Y-69365885D01*
X197379953Y-69318266D01*
X197522810Y-69318266D01*
X197713286Y-69365885D01*
X197808524Y-69413504D01*
X197903762Y-69508742D01*
X197951381Y-69651600D01*
X197951381Y-69889695D01*
X196951381Y-68984933D02*
X196951381Y-68365885D01*
X197332334Y-68699219D01*
X197332334Y-68556361D01*
X197379953Y-68461123D01*
X197427572Y-68413504D01*
X197522810Y-68365885D01*
X197760905Y-68365885D01*
X197856143Y-68413504D01*
X197903762Y-68461123D01*
X197951381Y-68556361D01*
X197951381Y-68842076D01*
X197903762Y-68937314D01*
X197856143Y-68984933D01*
%TO.C,R21*%
X195550981Y-69859456D02*
X195074791Y-70192789D01*
X195550981Y-70430884D02*
X194550981Y-70430884D01*
X194550981Y-70049932D01*
X194598601Y-69954694D01*
X194646220Y-69907075D01*
X194741458Y-69859456D01*
X194884315Y-69859456D01*
X194979553Y-69907075D01*
X195027172Y-69954694D01*
X195074791Y-70049932D01*
X195074791Y-70430884D01*
X194646220Y-69478503D02*
X194598601Y-69430884D01*
X194550981Y-69335646D01*
X194550981Y-69097551D01*
X194598601Y-69002313D01*
X194646220Y-68954694D01*
X194741458Y-68907075D01*
X194836696Y-68907075D01*
X194979553Y-68954694D01*
X195550981Y-69526122D01*
X195550981Y-68907075D01*
X195550981Y-67954694D02*
X195550981Y-68526122D01*
X195550981Y-68240408D02*
X194550981Y-68240408D01*
X194693839Y-68335646D01*
X194789077Y-68430884D01*
X194836696Y-68526122D01*
%TO.C,R32*%
X174934742Y-65184380D02*
X174601409Y-64708190D01*
X174363314Y-65184380D02*
X174363314Y-64184380D01*
X174744266Y-64184380D01*
X174839504Y-64232000D01*
X174887123Y-64279619D01*
X174934742Y-64374857D01*
X174934742Y-64517714D01*
X174887123Y-64612952D01*
X174839504Y-64660571D01*
X174744266Y-64708190D01*
X174363314Y-64708190D01*
X175268076Y-64184380D02*
X175887123Y-64184380D01*
X175553790Y-64565333D01*
X175696647Y-64565333D01*
X175791885Y-64612952D01*
X175839504Y-64660571D01*
X175887123Y-64755809D01*
X175887123Y-64993904D01*
X175839504Y-65089142D01*
X175791885Y-65136761D01*
X175696647Y-65184380D01*
X175410933Y-65184380D01*
X175315695Y-65136761D01*
X175268076Y-65089142D01*
X176268076Y-64279619D02*
X176315695Y-64232000D01*
X176410933Y-64184380D01*
X176649028Y-64184380D01*
X176744266Y-64232000D01*
X176791885Y-64279619D01*
X176839504Y-64374857D01*
X176839504Y-64470095D01*
X176791885Y-64612952D01*
X176220457Y-65184380D01*
X176839504Y-65184380D01*
%TO.C,R33*%
X182859542Y-65082780D02*
X182526209Y-64606590D01*
X182288114Y-65082780D02*
X182288114Y-64082780D01*
X182669066Y-64082780D01*
X182764304Y-64130400D01*
X182811923Y-64178019D01*
X182859542Y-64273257D01*
X182859542Y-64416114D01*
X182811923Y-64511352D01*
X182764304Y-64558971D01*
X182669066Y-64606590D01*
X182288114Y-64606590D01*
X183192876Y-64082780D02*
X183811923Y-64082780D01*
X183478590Y-64463733D01*
X183621447Y-64463733D01*
X183716685Y-64511352D01*
X183764304Y-64558971D01*
X183811923Y-64654209D01*
X183811923Y-64892304D01*
X183764304Y-64987542D01*
X183716685Y-65035161D01*
X183621447Y-65082780D01*
X183335733Y-65082780D01*
X183240495Y-65035161D01*
X183192876Y-64987542D01*
X184145257Y-64082780D02*
X184764304Y-64082780D01*
X184430971Y-64463733D01*
X184573828Y-64463733D01*
X184669066Y-64511352D01*
X184716685Y-64558971D01*
X184764304Y-64654209D01*
X184764304Y-64892304D01*
X184716685Y-64987542D01*
X184669066Y-65035161D01*
X184573828Y-65082780D01*
X184288114Y-65082780D01*
X184192876Y-65035161D01*
X184145257Y-64987542D01*
%TO.C,C1*%
X161950742Y-98020266D02*
X161998361Y-98067885D01*
X162045980Y-98210742D01*
X162045980Y-98305980D01*
X161998361Y-98448838D01*
X161903123Y-98544076D01*
X161807885Y-98591695D01*
X161617409Y-98639314D01*
X161474552Y-98639314D01*
X161284076Y-98591695D01*
X161188838Y-98544076D01*
X161093600Y-98448838D01*
X161045980Y-98305980D01*
X161045980Y-98210742D01*
X161093600Y-98067885D01*
X161141219Y-98020266D01*
X162045980Y-97067885D02*
X162045980Y-97639314D01*
X162045980Y-97353600D02*
X161045980Y-97353600D01*
X161188838Y-97448838D01*
X161284076Y-97544076D01*
X161331695Y-97639314D01*
%TO.C,C7*%
X93689542Y-92381466D02*
X93737161Y-92429085D01*
X93784780Y-92571942D01*
X93784780Y-92667180D01*
X93737161Y-92810038D01*
X93641923Y-92905276D01*
X93546685Y-92952895D01*
X93356209Y-93000514D01*
X93213352Y-93000514D01*
X93022876Y-92952895D01*
X92927638Y-92905276D01*
X92832400Y-92810038D01*
X92784780Y-92667180D01*
X92784780Y-92571942D01*
X92832400Y-92429085D01*
X92880019Y-92381466D01*
X92784780Y-92048133D02*
X92784780Y-91381466D01*
X93784780Y-91810038D01*
%TO.C,C8*%
X93689542Y-69419866D02*
X93737161Y-69467485D01*
X93784780Y-69610342D01*
X93784780Y-69705580D01*
X93737161Y-69848438D01*
X93641923Y-69943676D01*
X93546685Y-69991295D01*
X93356209Y-70038914D01*
X93213352Y-70038914D01*
X93022876Y-69991295D01*
X92927638Y-69943676D01*
X92832400Y-69848438D01*
X92784780Y-69705580D01*
X92784780Y-69610342D01*
X92832400Y-69467485D01*
X92880019Y-69419866D01*
X93213352Y-68848438D02*
X93165733Y-68943676D01*
X93118114Y-68991295D01*
X93022876Y-69038914D01*
X92975257Y-69038914D01*
X92880019Y-68991295D01*
X92832400Y-68943676D01*
X92784780Y-68848438D01*
X92784780Y-68657961D01*
X92832400Y-68562723D01*
X92880019Y-68515104D01*
X92975257Y-68467485D01*
X93022876Y-68467485D01*
X93118114Y-68515104D01*
X93165733Y-68562723D01*
X93213352Y-68657961D01*
X93213352Y-68848438D01*
X93260971Y-68943676D01*
X93308590Y-68991295D01*
X93403828Y-69038914D01*
X93594304Y-69038914D01*
X93689542Y-68991295D01*
X93737161Y-68943676D01*
X93784780Y-68848438D01*
X93784780Y-68657961D01*
X93737161Y-68562723D01*
X93689542Y-68515104D01*
X93594304Y-68467485D01*
X93403828Y-68467485D01*
X93308590Y-68515104D01*
X93260971Y-68562723D01*
X93213352Y-68657961D01*
%TO.C,C18*%
X168263343Y-69880256D02*
X168310962Y-69927875D01*
X168358581Y-70070732D01*
X168358581Y-70165970D01*
X168310962Y-70308827D01*
X168215724Y-70404065D01*
X168120486Y-70451684D01*
X167930010Y-70499303D01*
X167787153Y-70499303D01*
X167596677Y-70451684D01*
X167501439Y-70404065D01*
X167406201Y-70308827D01*
X167358581Y-70165970D01*
X167358581Y-70070732D01*
X167406201Y-69927875D01*
X167453820Y-69880256D01*
X168358581Y-68927875D02*
X168358581Y-69499303D01*
X168358581Y-69213589D02*
X167358581Y-69213589D01*
X167501439Y-69308827D01*
X167596677Y-69404065D01*
X167644296Y-69499303D01*
X167787153Y-68356446D02*
X167739534Y-68451684D01*
X167691915Y-68499303D01*
X167596677Y-68546922D01*
X167549058Y-68546922D01*
X167453820Y-68499303D01*
X167406201Y-68451684D01*
X167358581Y-68356446D01*
X167358581Y-68165970D01*
X167406201Y-68070732D01*
X167453820Y-68023113D01*
X167549058Y-67975494D01*
X167596677Y-67975494D01*
X167691915Y-68023113D01*
X167739534Y-68070732D01*
X167787153Y-68165970D01*
X167787153Y-68356446D01*
X167834772Y-68451684D01*
X167882391Y-68499303D01*
X167977629Y-68546922D01*
X168168105Y-68546922D01*
X168263343Y-68499303D01*
X168310962Y-68451684D01*
X168358581Y-68356446D01*
X168358581Y-68165970D01*
X168310962Y-68070732D01*
X168263343Y-68023113D01*
X168168105Y-67975494D01*
X167977629Y-67975494D01*
X167882391Y-68023113D01*
X167834772Y-68070732D01*
X167787153Y-68165970D01*
%TO.C,C19*%
X191987542Y-69845257D02*
X192035161Y-69892876D01*
X192082780Y-70035733D01*
X192082780Y-70130971D01*
X192035161Y-70273828D01*
X191939923Y-70369066D01*
X191844685Y-70416685D01*
X191654209Y-70464304D01*
X191511352Y-70464304D01*
X191320876Y-70416685D01*
X191225638Y-70369066D01*
X191130400Y-70273828D01*
X191082780Y-70130971D01*
X191082780Y-70035733D01*
X191130400Y-69892876D01*
X191178019Y-69845257D01*
X192082780Y-68892876D02*
X192082780Y-69464304D01*
X192082780Y-69178590D02*
X191082780Y-69178590D01*
X191225638Y-69273828D01*
X191320876Y-69369066D01*
X191368495Y-69464304D01*
X192082780Y-68416685D02*
X192082780Y-68226209D01*
X192035161Y-68130971D01*
X191987542Y-68083352D01*
X191844685Y-67988114D01*
X191654209Y-67940495D01*
X191273257Y-67940495D01*
X191178019Y-67988114D01*
X191130400Y-68035733D01*
X191082780Y-68130971D01*
X191082780Y-68321447D01*
X191130400Y-68416685D01*
X191178019Y-68464304D01*
X191273257Y-68511923D01*
X191511352Y-68511923D01*
X191606590Y-68464304D01*
X191654209Y-68416685D01*
X191701828Y-68321447D01*
X191701828Y-68130971D01*
X191654209Y-68035733D01*
X191606590Y-67988114D01*
X191511352Y-67940495D01*
%TD*%
M02*
