%TF.GenerationSoftware,KiCad,Pcbnew,5.1.12-5.1.12*%
%TF.CreationDate,2022-01-05T19:05:45+02:00*%
%TF.ProjectId,gb_1_0_pico,67625f31-5f30-45f7-9069-636f2e6b6963,rev?*%
%TF.SameCoordinates,Original*%
%TF.FileFunction,Paste,Bot*%
%TF.FilePolarity,Positive*%
%FSLAX46Y46*%
G04 Gerber Fmt 4.6, Leading zero omitted, Abs format (unit mm)*
G04 Created by KiCad (PCBNEW 5.1.12-5.1.12) date 2022-01-05 19:05:45*
%MOMM*%
%LPD*%
G01*
G04 APERTURE LIST*
G04 APERTURE END LIST*
%TO.C,C6*%
G36*
G01*
X97678001Y-112080000D02*
X96377999Y-112080000D01*
G75*
G02*
X96128000Y-111830001I0J249999D01*
G01*
X96128000Y-111004999D01*
G75*
G02*
X96377999Y-110755000I249999J0D01*
G01*
X97678001Y-110755000D01*
G75*
G02*
X97928000Y-111004999I0J-249999D01*
G01*
X97928000Y-111830001D01*
G75*
G02*
X97678001Y-112080000I-249999J0D01*
G01*
G37*
G36*
G01*
X97678001Y-108955000D02*
X96377999Y-108955000D01*
G75*
G02*
X96128000Y-108705001I0J249999D01*
G01*
X96128000Y-107879999D01*
G75*
G02*
X96377999Y-107630000I249999J0D01*
G01*
X97678001Y-107630000D01*
G75*
G02*
X97928000Y-107879999I0J-249999D01*
G01*
X97928000Y-108705001D01*
G75*
G02*
X97678001Y-108955000I-249999J0D01*
G01*
G37*
%TD*%
%TO.C,U2*%
G36*
G01*
X99037000Y-103721000D02*
X99337000Y-103721000D01*
G75*
G02*
X99487000Y-103871000I0J-150000D01*
G01*
X99487000Y-105621000D01*
G75*
G02*
X99337000Y-105771000I-150000J0D01*
G01*
X99037000Y-105771000D01*
G75*
G02*
X98887000Y-105621000I0J150000D01*
G01*
X98887000Y-103871000D01*
G75*
G02*
X99037000Y-103721000I150000J0D01*
G01*
G37*
G36*
G01*
X100307000Y-103721000D02*
X100607000Y-103721000D01*
G75*
G02*
X100757000Y-103871000I0J-150000D01*
G01*
X100757000Y-105621000D01*
G75*
G02*
X100607000Y-105771000I-150000J0D01*
G01*
X100307000Y-105771000D01*
G75*
G02*
X100157000Y-105621000I0J150000D01*
G01*
X100157000Y-103871000D01*
G75*
G02*
X100307000Y-103721000I150000J0D01*
G01*
G37*
G36*
G01*
X101577000Y-103721000D02*
X101877000Y-103721000D01*
G75*
G02*
X102027000Y-103871000I0J-150000D01*
G01*
X102027000Y-105621000D01*
G75*
G02*
X101877000Y-105771000I-150000J0D01*
G01*
X101577000Y-105771000D01*
G75*
G02*
X101427000Y-105621000I0J150000D01*
G01*
X101427000Y-103871000D01*
G75*
G02*
X101577000Y-103721000I150000J0D01*
G01*
G37*
G36*
G01*
X102847000Y-103721000D02*
X103147000Y-103721000D01*
G75*
G02*
X103297000Y-103871000I0J-150000D01*
G01*
X103297000Y-105621000D01*
G75*
G02*
X103147000Y-105771000I-150000J0D01*
G01*
X102847000Y-105771000D01*
G75*
G02*
X102697000Y-105621000I0J150000D01*
G01*
X102697000Y-103871000D01*
G75*
G02*
X102847000Y-103721000I150000J0D01*
G01*
G37*
G36*
G01*
X104117000Y-103721000D02*
X104417000Y-103721000D01*
G75*
G02*
X104567000Y-103871000I0J-150000D01*
G01*
X104567000Y-105621000D01*
G75*
G02*
X104417000Y-105771000I-150000J0D01*
G01*
X104117000Y-105771000D01*
G75*
G02*
X103967000Y-105621000I0J150000D01*
G01*
X103967000Y-103871000D01*
G75*
G02*
X104117000Y-103721000I150000J0D01*
G01*
G37*
G36*
G01*
X105387000Y-103721000D02*
X105687000Y-103721000D01*
G75*
G02*
X105837000Y-103871000I0J-150000D01*
G01*
X105837000Y-105621000D01*
G75*
G02*
X105687000Y-105771000I-150000J0D01*
G01*
X105387000Y-105771000D01*
G75*
G02*
X105237000Y-105621000I0J150000D01*
G01*
X105237000Y-103871000D01*
G75*
G02*
X105387000Y-103721000I150000J0D01*
G01*
G37*
G36*
G01*
X106657000Y-103721000D02*
X106957000Y-103721000D01*
G75*
G02*
X107107000Y-103871000I0J-150000D01*
G01*
X107107000Y-105621000D01*
G75*
G02*
X106957000Y-105771000I-150000J0D01*
G01*
X106657000Y-105771000D01*
G75*
G02*
X106507000Y-105621000I0J150000D01*
G01*
X106507000Y-103871000D01*
G75*
G02*
X106657000Y-103721000I150000J0D01*
G01*
G37*
G36*
G01*
X107927000Y-103721000D02*
X108227000Y-103721000D01*
G75*
G02*
X108377000Y-103871000I0J-150000D01*
G01*
X108377000Y-105621000D01*
G75*
G02*
X108227000Y-105771000I-150000J0D01*
G01*
X107927000Y-105771000D01*
G75*
G02*
X107777000Y-105621000I0J150000D01*
G01*
X107777000Y-103871000D01*
G75*
G02*
X107927000Y-103721000I150000J0D01*
G01*
G37*
G36*
G01*
X109197000Y-103721000D02*
X109497000Y-103721000D01*
G75*
G02*
X109647000Y-103871000I0J-150000D01*
G01*
X109647000Y-105621000D01*
G75*
G02*
X109497000Y-105771000I-150000J0D01*
G01*
X109197000Y-105771000D01*
G75*
G02*
X109047000Y-105621000I0J150000D01*
G01*
X109047000Y-103871000D01*
G75*
G02*
X109197000Y-103721000I150000J0D01*
G01*
G37*
G36*
G01*
X110467000Y-103721000D02*
X110767000Y-103721000D01*
G75*
G02*
X110917000Y-103871000I0J-150000D01*
G01*
X110917000Y-105621000D01*
G75*
G02*
X110767000Y-105771000I-150000J0D01*
G01*
X110467000Y-105771000D01*
G75*
G02*
X110317000Y-105621000I0J150000D01*
G01*
X110317000Y-103871000D01*
G75*
G02*
X110467000Y-103721000I150000J0D01*
G01*
G37*
G36*
G01*
X110467000Y-113021000D02*
X110767000Y-113021000D01*
G75*
G02*
X110917000Y-113171000I0J-150000D01*
G01*
X110917000Y-114921000D01*
G75*
G02*
X110767000Y-115071000I-150000J0D01*
G01*
X110467000Y-115071000D01*
G75*
G02*
X110317000Y-114921000I0J150000D01*
G01*
X110317000Y-113171000D01*
G75*
G02*
X110467000Y-113021000I150000J0D01*
G01*
G37*
G36*
G01*
X109197000Y-113021000D02*
X109497000Y-113021000D01*
G75*
G02*
X109647000Y-113171000I0J-150000D01*
G01*
X109647000Y-114921000D01*
G75*
G02*
X109497000Y-115071000I-150000J0D01*
G01*
X109197000Y-115071000D01*
G75*
G02*
X109047000Y-114921000I0J150000D01*
G01*
X109047000Y-113171000D01*
G75*
G02*
X109197000Y-113021000I150000J0D01*
G01*
G37*
G36*
G01*
X107927000Y-113021000D02*
X108227000Y-113021000D01*
G75*
G02*
X108377000Y-113171000I0J-150000D01*
G01*
X108377000Y-114921000D01*
G75*
G02*
X108227000Y-115071000I-150000J0D01*
G01*
X107927000Y-115071000D01*
G75*
G02*
X107777000Y-114921000I0J150000D01*
G01*
X107777000Y-113171000D01*
G75*
G02*
X107927000Y-113021000I150000J0D01*
G01*
G37*
G36*
G01*
X106657000Y-113021000D02*
X106957000Y-113021000D01*
G75*
G02*
X107107000Y-113171000I0J-150000D01*
G01*
X107107000Y-114921000D01*
G75*
G02*
X106957000Y-115071000I-150000J0D01*
G01*
X106657000Y-115071000D01*
G75*
G02*
X106507000Y-114921000I0J150000D01*
G01*
X106507000Y-113171000D01*
G75*
G02*
X106657000Y-113021000I150000J0D01*
G01*
G37*
G36*
G01*
X105387000Y-113021000D02*
X105687000Y-113021000D01*
G75*
G02*
X105837000Y-113171000I0J-150000D01*
G01*
X105837000Y-114921000D01*
G75*
G02*
X105687000Y-115071000I-150000J0D01*
G01*
X105387000Y-115071000D01*
G75*
G02*
X105237000Y-114921000I0J150000D01*
G01*
X105237000Y-113171000D01*
G75*
G02*
X105387000Y-113021000I150000J0D01*
G01*
G37*
G36*
G01*
X104117000Y-113021000D02*
X104417000Y-113021000D01*
G75*
G02*
X104567000Y-113171000I0J-150000D01*
G01*
X104567000Y-114921000D01*
G75*
G02*
X104417000Y-115071000I-150000J0D01*
G01*
X104117000Y-115071000D01*
G75*
G02*
X103967000Y-114921000I0J150000D01*
G01*
X103967000Y-113171000D01*
G75*
G02*
X104117000Y-113021000I150000J0D01*
G01*
G37*
G36*
G01*
X102847000Y-113021000D02*
X103147000Y-113021000D01*
G75*
G02*
X103297000Y-113171000I0J-150000D01*
G01*
X103297000Y-114921000D01*
G75*
G02*
X103147000Y-115071000I-150000J0D01*
G01*
X102847000Y-115071000D01*
G75*
G02*
X102697000Y-114921000I0J150000D01*
G01*
X102697000Y-113171000D01*
G75*
G02*
X102847000Y-113021000I150000J0D01*
G01*
G37*
G36*
G01*
X101577000Y-113021000D02*
X101877000Y-113021000D01*
G75*
G02*
X102027000Y-113171000I0J-150000D01*
G01*
X102027000Y-114921000D01*
G75*
G02*
X101877000Y-115071000I-150000J0D01*
G01*
X101577000Y-115071000D01*
G75*
G02*
X101427000Y-114921000I0J150000D01*
G01*
X101427000Y-113171000D01*
G75*
G02*
X101577000Y-113021000I150000J0D01*
G01*
G37*
G36*
G01*
X100307000Y-113021000D02*
X100607000Y-113021000D01*
G75*
G02*
X100757000Y-113171000I0J-150000D01*
G01*
X100757000Y-114921000D01*
G75*
G02*
X100607000Y-115071000I-150000J0D01*
G01*
X100307000Y-115071000D01*
G75*
G02*
X100157000Y-114921000I0J150000D01*
G01*
X100157000Y-113171000D01*
G75*
G02*
X100307000Y-113021000I150000J0D01*
G01*
G37*
G36*
G01*
X99037000Y-113021000D02*
X99337000Y-113021000D01*
G75*
G02*
X99487000Y-113171000I0J-150000D01*
G01*
X99487000Y-114921000D01*
G75*
G02*
X99337000Y-115071000I-150000J0D01*
G01*
X99037000Y-115071000D01*
G75*
G02*
X98887000Y-114921000I0J150000D01*
G01*
X98887000Y-113171000D01*
G75*
G02*
X99037000Y-113021000I150000J0D01*
G01*
G37*
%TD*%
M02*
