M48
; DRILL file {KiCad 5.1.12-5.1.12} date Wed 05 Jan 2022 21:47:45 EET
; FORMAT={-:-/ absolute / metric / decimal}
; #@! TF.CreationDate,2022-01-05T21:47:45+02:00
; #@! TF.GenerationSoftware,Kicad,Pcbnew,5.1.12-5.1.12
; #@! TF.FileFunction,Plated,1,2,PTH
FMAT,2
METRIC
T1C0.300
T2C0.500
T3C0.600
T4C0.900
T5C1.000
T6C1.020
T7C1.100
T8C1.200
T9C2.500
%
G90
G05
T1
X70.828Y-105.753
X84.417Y-106.134
X85.941Y-102.07
X93.307Y-105.753
X93.307Y-106.642
X93.307Y-107.531
X93.561Y-64.605
X105.626Y-69.939
X105.88Y-66.764
X112.611Y-64.605
X113.983Y-67.78
X130.518Y-80.48
X144.489Y-75.4
X145.402Y-117.437
X145.885Y-92.926
X149.695Y-99.53
X151.244Y-72.758
X166.84Y-114.135
X168.433Y-99.334
X168.72Y-72.758
X169.253Y-108.166
X177.0Y-113.5
X179.743Y-69.101
X180.505Y-70.218
X191.173Y-72.758
X191.351Y-100.292
T2
X67.175Y-55.08
X67.175Y-114.77
X67.724Y-53.754
X67.724Y-56.406
X67.724Y-113.444
X67.724Y-116.096
X69.05Y-53.205
X69.05Y-56.955
X69.05Y-112.895
X69.05Y-116.645
X70.376Y-53.754
X70.376Y-56.406
X70.376Y-113.444
X70.376Y-116.096
X70.925Y-55.08
X70.925Y-114.77
X76.065Y-95.72
X76.614Y-94.394
X76.614Y-97.046
X77.94Y-93.845
X77.94Y-97.595
X79.266Y-94.394
X79.266Y-97.046
X79.815Y-95.72
X149.725Y-55.08
X150.274Y-53.754
X150.274Y-56.406
X151.6Y-53.205
X151.6Y-56.955
X152.926Y-53.754
X152.926Y-56.406
X153.475Y-55.08
X181.475Y-114.77
X182.024Y-113.444
X182.024Y-116.096
X183.35Y-112.895
X183.35Y-116.645
X184.676Y-113.444
X184.676Y-116.096
X185.225Y-114.77
X187.825Y-62.7
X188.374Y-61.374
X188.374Y-64.026
X189.7Y-60.825
X189.7Y-64.575
X191.026Y-61.374
X191.026Y-64.026
X191.575Y-62.7
T3
X163.894Y-60.167
X163.894Y-63.767
X167.958Y-60.167
X167.958Y-63.767
T4
X151.6Y-109.563
X151.6Y-112.863
X154.1Y-109.563
X154.1Y-112.863
X156.6Y-109.563
X156.6Y-112.863
T5
X89.37Y-67.78
X89.37Y-70.32
X89.37Y-72.86
X89.37Y-75.4
X89.37Y-77.94
X89.37Y-80.48
X89.37Y-83.02
X89.37Y-85.56
X89.37Y-88.1
X89.37Y-90.64
X89.37Y-93.18
X114.77Y-109.69
X114.77Y-112.23
X117.31Y-109.69
X117.31Y-112.23
X119.85Y-109.69
X119.85Y-112.23
X122.39Y-109.69
X122.39Y-112.23
X124.93Y-109.69
X124.93Y-112.23
X127.47Y-109.69
X127.47Y-112.23
X130.01Y-109.69
X130.01Y-112.23
X132.55Y-109.69
X132.55Y-112.23
X135.09Y-109.69
X135.09Y-112.23
X137.63Y-109.69
X137.63Y-112.23
X150.838Y-102.832
X153.378Y-102.832
X155.918Y-102.832
X158.458Y-102.832
X160.998Y-102.832
T6
X117.31Y-52.54
X117.31Y-55.08
X117.31Y-57.62
X117.31Y-60.16
X117.31Y-62.7
X117.31Y-65.24
X117.31Y-67.78
X117.31Y-70.32
X117.31Y-72.86
X117.31Y-75.4
X117.31Y-77.94
X117.31Y-80.48
X117.31Y-83.02
X117.31Y-85.56
X117.31Y-88.1
X117.31Y-90.64
X117.31Y-93.18
X117.31Y-95.72
X117.31Y-98.26
X117.31Y-100.8
X123.66Y-100.57
X126.2Y-100.57
X128.74Y-100.57
X135.09Y-52.54
X135.09Y-55.08
X135.09Y-57.62
X135.09Y-60.16
X135.09Y-62.7
X135.09Y-65.24
X135.09Y-67.78
X135.09Y-70.32
X135.09Y-72.86
X135.09Y-75.4
X135.09Y-77.94
X135.09Y-80.48
X135.09Y-83.02
X135.09Y-85.56
X135.09Y-88.1
X135.09Y-90.64
X135.09Y-93.18
X135.09Y-95.72
X135.09Y-98.26
X135.09Y-100.8
T7
X54.445Y-83.02
X54.445Y-87.52
X60.945Y-83.02
X60.945Y-87.52
X64.605Y-72.86
X64.605Y-77.36
X64.605Y-93.18
X64.605Y-97.68
X71.105Y-72.86
X71.105Y-77.36
X71.105Y-93.18
X71.105Y-97.68
X74.765Y-83.02
X74.765Y-87.52
X81.265Y-83.02
X81.265Y-87.52
X95.72Y-108.42
X95.72Y-112.92
X102.22Y-108.42
X102.22Y-112.92
X180.81Y-93.18
X180.81Y-97.68
X187.31Y-93.18
X187.31Y-97.68
X190.97Y-83.02
X190.97Y-87.52
X197.47Y-83.02
X197.47Y-87.52
T8
X174.54Y-60.065
X177.04Y-60.065
X179.54Y-55.059
X182.04Y-60.065
X184.54Y-60.065
T9
X69.05Y-55.08
X69.05Y-114.77
X77.94Y-95.72
X151.6Y-55.08
X183.35Y-114.77
X189.7Y-62.7
T0
M30
