%TF.GenerationSoftware,KiCad,Pcbnew,5.1.12-5.1.12*%
%TF.CreationDate,2022-01-05T19:05:45+02:00*%
%TF.ProjectId,gb_1_0_pico,67625f31-5f30-45f7-9069-636f2e6b6963,rev?*%
%TF.SameCoordinates,Original*%
%TF.FileFunction,Paste,Top*%
%TF.FilePolarity,Positive*%
%FSLAX46Y46*%
G04 Gerber Fmt 4.6, Leading zero omitted, Abs format (unit mm)*
G04 Created by KiCad (PCBNEW 5.1.12-5.1.12) date 2022-01-05 19:05:45*
%MOMM*%
%LPD*%
G01*
G04 APERTURE LIST*
%ADD10R,1.200000X2.200000*%
%ADD11R,1.600000X1.400000*%
%ADD12R,1.200000X1.400000*%
%ADD13R,0.700000X1.600000*%
%ADD14R,0.800000X0.900000*%
%ADD15R,0.900000X0.800000*%
G04 APERTURE END LIST*
D10*
%TO.C,XS1*%
X121028000Y-55772000D03*
X136528000Y-55772000D03*
D11*
X121928000Y-65372000D03*
D12*
X136528000Y-65372000D03*
D13*
X135378000Y-65872000D03*
X133178000Y-65872000D03*
X134278000Y-65872000D03*
X132078000Y-65872000D03*
X130978000Y-65872000D03*
X129878000Y-65872000D03*
X126578000Y-65872000D03*
X127678000Y-65872000D03*
X128778000Y-65872000D03*
%TD*%
%TO.C,R5*%
G36*
G01*
X134903000Y-69204000D02*
X133653000Y-69204000D01*
G75*
G02*
X133403000Y-68954000I0J250000D01*
G01*
X133403000Y-68154000D01*
G75*
G02*
X133653000Y-67904000I250000J0D01*
G01*
X134903000Y-67904000D01*
G75*
G02*
X135153000Y-68154000I0J-250000D01*
G01*
X135153000Y-68954000D01*
G75*
G02*
X134903000Y-69204000I-250000J0D01*
G01*
G37*
G36*
G01*
X134903000Y-72304000D02*
X133653000Y-72304000D01*
G75*
G02*
X133403000Y-72054000I0J250000D01*
G01*
X133403000Y-71254000D01*
G75*
G02*
X133653000Y-71004000I250000J0D01*
G01*
X134903000Y-71004000D01*
G75*
G02*
X135153000Y-71254000I0J-250000D01*
G01*
X135153000Y-72054000D01*
G75*
G02*
X134903000Y-72304000I-250000J0D01*
G01*
G37*
%TD*%
%TO.C,R7*%
G36*
G01*
X126482000Y-72304000D02*
X125232000Y-72304000D01*
G75*
G02*
X124982000Y-72054000I0J250000D01*
G01*
X124982000Y-71254000D01*
G75*
G02*
X125232000Y-71004000I250000J0D01*
G01*
X126482000Y-71004000D01*
G75*
G02*
X126732000Y-71254000I0J-250000D01*
G01*
X126732000Y-72054000D01*
G75*
G02*
X126482000Y-72304000I-250000J0D01*
G01*
G37*
G36*
G01*
X126482000Y-69204000D02*
X125232000Y-69204000D01*
G75*
G02*
X124982000Y-68954000I0J250000D01*
G01*
X124982000Y-68154000D01*
G75*
G02*
X125232000Y-67904000I250000J0D01*
G01*
X126482000Y-67904000D01*
G75*
G02*
X126732000Y-68154000I0J-250000D01*
G01*
X126732000Y-68954000D01*
G75*
G02*
X126482000Y-69204000I-250000J0D01*
G01*
G37*
%TD*%
%TO.C,C9*%
G36*
G01*
X122793999Y-71004000D02*
X124094001Y-71004000D01*
G75*
G02*
X124344000Y-71253999I0J-249999D01*
G01*
X124344000Y-72079001D01*
G75*
G02*
X124094001Y-72329000I-249999J0D01*
G01*
X122793999Y-72329000D01*
G75*
G02*
X122544000Y-72079001I0J249999D01*
G01*
X122544000Y-71253999D01*
G75*
G02*
X122793999Y-71004000I249999J0D01*
G01*
G37*
G36*
G01*
X122793999Y-67879000D02*
X124094001Y-67879000D01*
G75*
G02*
X124344000Y-68128999I0J-249999D01*
G01*
X124344000Y-68954001D01*
G75*
G02*
X124094001Y-69204000I-249999J0D01*
G01*
X122793999Y-69204000D01*
G75*
G02*
X122544000Y-68954001I0J249999D01*
G01*
X122544000Y-68128999D01*
G75*
G02*
X122793999Y-67879000I249999J0D01*
G01*
G37*
%TD*%
%TO.C,R6*%
G36*
G01*
X128895000Y-72304000D02*
X127645000Y-72304000D01*
G75*
G02*
X127395000Y-72054000I0J250000D01*
G01*
X127395000Y-71254000D01*
G75*
G02*
X127645000Y-71004000I250000J0D01*
G01*
X128895000Y-71004000D01*
G75*
G02*
X129145000Y-71254000I0J-250000D01*
G01*
X129145000Y-72054000D01*
G75*
G02*
X128895000Y-72304000I-250000J0D01*
G01*
G37*
G36*
G01*
X128895000Y-69204000D02*
X127645000Y-69204000D01*
G75*
G02*
X127395000Y-68954000I0J250000D01*
G01*
X127395000Y-68154000D01*
G75*
G02*
X127645000Y-67904000I250000J0D01*
G01*
X128895000Y-67904000D01*
G75*
G02*
X129145000Y-68154000I0J-250000D01*
G01*
X129145000Y-68954000D01*
G75*
G02*
X128895000Y-69204000I-250000J0D01*
G01*
G37*
%TD*%
%TO.C,R3*%
G36*
G01*
X193665000Y-111114000D02*
X192415000Y-111114000D01*
G75*
G02*
X192165000Y-110864000I0J250000D01*
G01*
X192165000Y-110064000D01*
G75*
G02*
X192415000Y-109814000I250000J0D01*
G01*
X193665000Y-109814000D01*
G75*
G02*
X193915000Y-110064000I0J-250000D01*
G01*
X193915000Y-110864000D01*
G75*
G02*
X193665000Y-111114000I-250000J0D01*
G01*
G37*
G36*
G01*
X193665000Y-114214000D02*
X192415000Y-114214000D01*
G75*
G02*
X192165000Y-113964000I0J250000D01*
G01*
X192165000Y-113164000D01*
G75*
G02*
X192415000Y-112914000I250000J0D01*
G01*
X193665000Y-112914000D01*
G75*
G02*
X193915000Y-113164000I0J-250000D01*
G01*
X193915000Y-113964000D01*
G75*
G02*
X193665000Y-114214000I-250000J0D01*
G01*
G37*
%TD*%
%TO.C,D2*%
G36*
G01*
X191252000Y-111239000D02*
X190002000Y-111239000D01*
G75*
G02*
X189752000Y-110989000I0J250000D01*
G01*
X189752000Y-110064000D01*
G75*
G02*
X190002000Y-109814000I250000J0D01*
G01*
X191252000Y-109814000D01*
G75*
G02*
X191502000Y-110064000I0J-250000D01*
G01*
X191502000Y-110989000D01*
G75*
G02*
X191252000Y-111239000I-250000J0D01*
G01*
G37*
G36*
G01*
X191252000Y-114214000D02*
X190002000Y-114214000D01*
G75*
G02*
X189752000Y-113964000I0J250000D01*
G01*
X189752000Y-113039000D01*
G75*
G02*
X190002000Y-112789000I250000J0D01*
G01*
X191252000Y-112789000D01*
G75*
G02*
X191502000Y-113039000I0J-250000D01*
G01*
X191502000Y-113964000D01*
G75*
G02*
X191252000Y-114214000I-250000J0D01*
G01*
G37*
%TD*%
%TO.C,C2*%
G36*
G01*
X186553999Y-96421000D02*
X187854001Y-96421000D01*
G75*
G02*
X188104000Y-96670999I0J-249999D01*
G01*
X188104000Y-97496001D01*
G75*
G02*
X187854001Y-97746000I-249999J0D01*
G01*
X186553999Y-97746000D01*
G75*
G02*
X186304000Y-97496001I0J249999D01*
G01*
X186304000Y-96670999D01*
G75*
G02*
X186553999Y-96421000I249999J0D01*
G01*
G37*
G36*
G01*
X186553999Y-99546000D02*
X187854001Y-99546000D01*
G75*
G02*
X188104000Y-99795999I0J-249999D01*
G01*
X188104000Y-100621001D01*
G75*
G02*
X187854001Y-100871000I-249999J0D01*
G01*
X186553999Y-100871000D01*
G75*
G02*
X186304000Y-100621001I0J249999D01*
G01*
X186304000Y-99795999D01*
G75*
G02*
X186553999Y-99546000I249999J0D01*
G01*
G37*
%TD*%
%TO.C,C4*%
G36*
G01*
X164653000Y-66690001D02*
X164653000Y-65389999D01*
G75*
G02*
X164902999Y-65140000I249999J0D01*
G01*
X165728001Y-65140000D01*
G75*
G02*
X165978000Y-65389999I0J-249999D01*
G01*
X165978000Y-66690001D01*
G75*
G02*
X165728001Y-66940000I-249999J0D01*
G01*
X164902999Y-66940000D01*
G75*
G02*
X164653000Y-66690001I0J249999D01*
G01*
G37*
G36*
G01*
X167778000Y-66690001D02*
X167778000Y-65389999D01*
G75*
G02*
X168027999Y-65140000I249999J0D01*
G01*
X168853001Y-65140000D01*
G75*
G02*
X169103000Y-65389999I0J-249999D01*
G01*
X169103000Y-66690001D01*
G75*
G02*
X168853001Y-66940000I-249999J0D01*
G01*
X168027999Y-66940000D01*
G75*
G02*
X167778000Y-66690001I0J249999D01*
G01*
G37*
%TD*%
%TO.C,C5*%
G36*
G01*
X174005001Y-102732000D02*
X172704999Y-102732000D01*
G75*
G02*
X172455000Y-102482001I0J249999D01*
G01*
X172455000Y-101656999D01*
G75*
G02*
X172704999Y-101407000I249999J0D01*
G01*
X174005001Y-101407000D01*
G75*
G02*
X174255000Y-101656999I0J-249999D01*
G01*
X174255000Y-102482001D01*
G75*
G02*
X174005001Y-102732000I-249999J0D01*
G01*
G37*
G36*
G01*
X174005001Y-105857000D02*
X172704999Y-105857000D01*
G75*
G02*
X172455000Y-105607001I0J249999D01*
G01*
X172455000Y-104781999D01*
G75*
G02*
X172704999Y-104532000I249999J0D01*
G01*
X174005001Y-104532000D01*
G75*
G02*
X174255000Y-104781999I0J-249999D01*
G01*
X174255000Y-105607001D01*
G75*
G02*
X174005001Y-105857000I-249999J0D01*
G01*
G37*
%TD*%
%TO.C,D1*%
G36*
G01*
X185329000Y-100846000D02*
X184079000Y-100846000D01*
G75*
G02*
X183829000Y-100596000I0J250000D01*
G01*
X183829000Y-99671000D01*
G75*
G02*
X184079000Y-99421000I250000J0D01*
G01*
X185329000Y-99421000D01*
G75*
G02*
X185579000Y-99671000I0J-250000D01*
G01*
X185579000Y-100596000D01*
G75*
G02*
X185329000Y-100846000I-250000J0D01*
G01*
G37*
G36*
G01*
X185329000Y-97871000D02*
X184079000Y-97871000D01*
G75*
G02*
X183829000Y-97621000I0J250000D01*
G01*
X183829000Y-96696000D01*
G75*
G02*
X184079000Y-96446000I250000J0D01*
G01*
X185329000Y-96446000D01*
G75*
G02*
X185579000Y-96696000I0J-250000D01*
G01*
X185579000Y-97621000D01*
G75*
G02*
X185329000Y-97871000I-250000J0D01*
G01*
G37*
%TD*%
%TO.C,F1*%
G36*
G01*
X192341000Y-96446000D02*
X193591000Y-96446000D01*
G75*
G02*
X193841000Y-96696000I0J-250000D01*
G01*
X193841000Y-97621000D01*
G75*
G02*
X193591000Y-97871000I-250000J0D01*
G01*
X192341000Y-97871000D01*
G75*
G02*
X192091000Y-97621000I0J250000D01*
G01*
X192091000Y-96696000D01*
G75*
G02*
X192341000Y-96446000I250000J0D01*
G01*
G37*
G36*
G01*
X192341000Y-99421000D02*
X193591000Y-99421000D01*
G75*
G02*
X193841000Y-99671000I0J-250000D01*
G01*
X193841000Y-100596000D01*
G75*
G02*
X193591000Y-100846000I-250000J0D01*
G01*
X192341000Y-100846000D01*
G75*
G02*
X192091000Y-100596000I0J250000D01*
G01*
X192091000Y-99671000D01*
G75*
G02*
X192341000Y-99421000I250000J0D01*
G01*
G37*
%TD*%
D14*
%TO.C,Q1*%
X176845000Y-97171000D03*
X174945000Y-97171000D03*
X175895000Y-99171000D03*
%TD*%
%TO.C,R1*%
G36*
G01*
X180203000Y-97779000D02*
X178953000Y-97779000D01*
G75*
G02*
X178703000Y-97529000I0J250000D01*
G01*
X178703000Y-96729000D01*
G75*
G02*
X178953000Y-96479000I250000J0D01*
G01*
X180203000Y-96479000D01*
G75*
G02*
X180453000Y-96729000I0J-250000D01*
G01*
X180453000Y-97529000D01*
G75*
G02*
X180203000Y-97779000I-250000J0D01*
G01*
G37*
G36*
G01*
X180203000Y-100879000D02*
X178953000Y-100879000D01*
G75*
G02*
X178703000Y-100629000I0J250000D01*
G01*
X178703000Y-99829000D01*
G75*
G02*
X178953000Y-99579000I250000J0D01*
G01*
X180203000Y-99579000D01*
G75*
G02*
X180453000Y-99829000I0J-250000D01*
G01*
X180453000Y-100629000D01*
G75*
G02*
X180203000Y-100879000I-250000J0D01*
G01*
G37*
%TD*%
%TO.C,R2*%
G36*
G01*
X182829000Y-97746000D02*
X181579000Y-97746000D01*
G75*
G02*
X181329000Y-97496000I0J250000D01*
G01*
X181329000Y-96696000D01*
G75*
G02*
X181579000Y-96446000I250000J0D01*
G01*
X182829000Y-96446000D01*
G75*
G02*
X183079000Y-96696000I0J-250000D01*
G01*
X183079000Y-97496000D01*
G75*
G02*
X182829000Y-97746000I-250000J0D01*
G01*
G37*
G36*
G01*
X182829000Y-100846000D02*
X181579000Y-100846000D01*
G75*
G02*
X181329000Y-100596000I0J250000D01*
G01*
X181329000Y-99796000D01*
G75*
G02*
X181579000Y-99546000I250000J0D01*
G01*
X182829000Y-99546000D01*
G75*
G02*
X183079000Y-99796000I0J-250000D01*
G01*
X183079000Y-100596000D01*
G75*
G02*
X182829000Y-100846000I-250000J0D01*
G01*
G37*
%TD*%
%TO.C,R4*%
G36*
G01*
X171440000Y-105832000D02*
X170190000Y-105832000D01*
G75*
G02*
X169940000Y-105582000I0J250000D01*
G01*
X169940000Y-104782000D01*
G75*
G02*
X170190000Y-104532000I250000J0D01*
G01*
X171440000Y-104532000D01*
G75*
G02*
X171690000Y-104782000I0J-250000D01*
G01*
X171690000Y-105582000D01*
G75*
G02*
X171440000Y-105832000I-250000J0D01*
G01*
G37*
G36*
G01*
X171440000Y-102732000D02*
X170190000Y-102732000D01*
G75*
G02*
X169940000Y-102482000I0J250000D01*
G01*
X169940000Y-101682000D01*
G75*
G02*
X170190000Y-101432000I250000J0D01*
G01*
X171440000Y-101432000D01*
G75*
G02*
X171690000Y-101682000I0J-250000D01*
G01*
X171690000Y-102482000D01*
G75*
G02*
X171440000Y-102732000I-250000J0D01*
G01*
G37*
%TD*%
%TO.C,R11*%
G36*
G01*
X181651000Y-60779500D02*
X181651000Y-62029500D01*
G75*
G02*
X181401000Y-62279500I-250000J0D01*
G01*
X180601000Y-62279500D01*
G75*
G02*
X180351000Y-62029500I0J250000D01*
G01*
X180351000Y-60779500D01*
G75*
G02*
X180601000Y-60529500I250000J0D01*
G01*
X181401000Y-60529500D01*
G75*
G02*
X181651000Y-60779500I0J-250000D01*
G01*
G37*
G36*
G01*
X178551000Y-60779500D02*
X178551000Y-62029500D01*
G75*
G02*
X178301000Y-62279500I-250000J0D01*
G01*
X177501000Y-62279500D01*
G75*
G02*
X177251000Y-62029500I0J250000D01*
G01*
X177251000Y-60779500D01*
G75*
G02*
X177501000Y-60529500I250000J0D01*
G01*
X178301000Y-60529500D01*
G75*
G02*
X178551000Y-60779500I0J-250000D01*
G01*
G37*
%TD*%
%TO.C,R12*%
G36*
G01*
X186421600Y-66766600D02*
X186421600Y-65516600D01*
G75*
G02*
X186671600Y-65266600I250000J0D01*
G01*
X187471600Y-65266600D01*
G75*
G02*
X187721600Y-65516600I0J-250000D01*
G01*
X187721600Y-66766600D01*
G75*
G02*
X187471600Y-67016600I-250000J0D01*
G01*
X186671600Y-67016600D01*
G75*
G02*
X186421600Y-66766600I0J250000D01*
G01*
G37*
G36*
G01*
X183321600Y-66766600D02*
X183321600Y-65516600D01*
G75*
G02*
X183571600Y-65266600I250000J0D01*
G01*
X184371600Y-65266600D01*
G75*
G02*
X184621600Y-65516600I0J-250000D01*
G01*
X184621600Y-66766600D01*
G75*
G02*
X184371600Y-67016600I-250000J0D01*
G01*
X183571600Y-67016600D01*
G75*
G02*
X183321600Y-66766600I0J250000D01*
G01*
G37*
%TD*%
%TO.C,C3*%
G36*
G01*
X170634999Y-94865000D02*
X173535001Y-94865000D01*
G75*
G02*
X173785000Y-95114999I0J-249999D01*
G01*
X173785000Y-96190001D01*
G75*
G02*
X173535001Y-96440000I-249999J0D01*
G01*
X170634999Y-96440000D01*
G75*
G02*
X170385000Y-96190001I0J249999D01*
G01*
X170385000Y-95114999D01*
G75*
G02*
X170634999Y-94865000I249999J0D01*
G01*
G37*
G36*
G01*
X170634999Y-99140000D02*
X173535001Y-99140000D01*
G75*
G02*
X173785000Y-99389999I0J-249999D01*
G01*
X173785000Y-100465001D01*
G75*
G02*
X173535001Y-100715000I-249999J0D01*
G01*
X170634999Y-100715000D01*
G75*
G02*
X170385000Y-100465001I0J249999D01*
G01*
X170385000Y-99389999D01*
G75*
G02*
X170634999Y-99140000I249999J0D01*
G01*
G37*
%TD*%
%TO.C,R8*%
G36*
G01*
X95133000Y-86879000D02*
X96383000Y-86879000D01*
G75*
G02*
X96633000Y-87129000I0J-250000D01*
G01*
X96633000Y-87929000D01*
G75*
G02*
X96383000Y-88179000I-250000J0D01*
G01*
X95133000Y-88179000D01*
G75*
G02*
X94883000Y-87929000I0J250000D01*
G01*
X94883000Y-87129000D01*
G75*
G02*
X95133000Y-86879000I250000J0D01*
G01*
G37*
G36*
G01*
X95133000Y-83779000D02*
X96383000Y-83779000D01*
G75*
G02*
X96633000Y-84029000I0J-250000D01*
G01*
X96633000Y-84829000D01*
G75*
G02*
X96383000Y-85079000I-250000J0D01*
G01*
X95133000Y-85079000D01*
G75*
G02*
X94883000Y-84829000I0J250000D01*
G01*
X94883000Y-84029000D01*
G75*
G02*
X95133000Y-83779000I250000J0D01*
G01*
G37*
%TD*%
%TO.C,R13*%
G36*
G01*
X92954000Y-88179000D02*
X91704000Y-88179000D01*
G75*
G02*
X91454000Y-87929000I0J250000D01*
G01*
X91454000Y-87129000D01*
G75*
G02*
X91704000Y-86879000I250000J0D01*
G01*
X92954000Y-86879000D01*
G75*
G02*
X93204000Y-87129000I0J-250000D01*
G01*
X93204000Y-87929000D01*
G75*
G02*
X92954000Y-88179000I-250000J0D01*
G01*
G37*
G36*
G01*
X92954000Y-85079000D02*
X91704000Y-85079000D01*
G75*
G02*
X91454000Y-84829000I0J250000D01*
G01*
X91454000Y-84029000D01*
G75*
G02*
X91704000Y-83779000I250000J0D01*
G01*
X92954000Y-83779000D01*
G75*
G02*
X93204000Y-84029000I0J-250000D01*
G01*
X93204000Y-84829000D01*
G75*
G02*
X92954000Y-85079000I-250000J0D01*
G01*
G37*
%TD*%
%TO.C,R14*%
G36*
G01*
X90541000Y-85079000D02*
X89291000Y-85079000D01*
G75*
G02*
X89041000Y-84829000I0J250000D01*
G01*
X89041000Y-84029000D01*
G75*
G02*
X89291000Y-83779000I250000J0D01*
G01*
X90541000Y-83779000D01*
G75*
G02*
X90791000Y-84029000I0J-250000D01*
G01*
X90791000Y-84829000D01*
G75*
G02*
X90541000Y-85079000I-250000J0D01*
G01*
G37*
G36*
G01*
X90541000Y-88179000D02*
X89291000Y-88179000D01*
G75*
G02*
X89041000Y-87929000I0J250000D01*
G01*
X89041000Y-87129000D01*
G75*
G02*
X89291000Y-86879000I250000J0D01*
G01*
X90541000Y-86879000D01*
G75*
G02*
X90791000Y-87129000I0J-250000D01*
G01*
X90791000Y-87929000D01*
G75*
G02*
X90541000Y-88179000I-250000J0D01*
G01*
G37*
%TD*%
%TO.C,R15*%
G36*
G01*
X98796000Y-88179000D02*
X97546000Y-88179000D01*
G75*
G02*
X97296000Y-87929000I0J250000D01*
G01*
X97296000Y-87129000D01*
G75*
G02*
X97546000Y-86879000I250000J0D01*
G01*
X98796000Y-86879000D01*
G75*
G02*
X99046000Y-87129000I0J-250000D01*
G01*
X99046000Y-87929000D01*
G75*
G02*
X98796000Y-88179000I-250000J0D01*
G01*
G37*
G36*
G01*
X98796000Y-85079000D02*
X97546000Y-85079000D01*
G75*
G02*
X97296000Y-84829000I0J250000D01*
G01*
X97296000Y-84029000D01*
G75*
G02*
X97546000Y-83779000I250000J0D01*
G01*
X98796000Y-83779000D01*
G75*
G02*
X99046000Y-84029000I0J-250000D01*
G01*
X99046000Y-84829000D01*
G75*
G02*
X98796000Y-85079000I-250000J0D01*
G01*
G37*
%TD*%
%TO.C,R16*%
G36*
G01*
X218069000Y-97166000D02*
X219319000Y-97166000D01*
G75*
G02*
X219569000Y-97416000I0J-250000D01*
G01*
X219569000Y-98216000D01*
G75*
G02*
X219319000Y-98466000I-250000J0D01*
G01*
X218069000Y-98466000D01*
G75*
G02*
X217819000Y-98216000I0J250000D01*
G01*
X217819000Y-97416000D01*
G75*
G02*
X218069000Y-97166000I250000J0D01*
G01*
G37*
G36*
G01*
X218069000Y-94066000D02*
X219319000Y-94066000D01*
G75*
G02*
X219569000Y-94316000I0J-250000D01*
G01*
X219569000Y-95116000D01*
G75*
G02*
X219319000Y-95366000I-250000J0D01*
G01*
X218069000Y-95366000D01*
G75*
G02*
X217819000Y-95116000I0J250000D01*
G01*
X217819000Y-94316000D01*
G75*
G02*
X218069000Y-94066000I250000J0D01*
G01*
G37*
%TD*%
%TO.C,R17*%
G36*
G01*
X215656000Y-94066000D02*
X216906000Y-94066000D01*
G75*
G02*
X217156000Y-94316000I0J-250000D01*
G01*
X217156000Y-95116000D01*
G75*
G02*
X216906000Y-95366000I-250000J0D01*
G01*
X215656000Y-95366000D01*
G75*
G02*
X215406000Y-95116000I0J250000D01*
G01*
X215406000Y-94316000D01*
G75*
G02*
X215656000Y-94066000I250000J0D01*
G01*
G37*
G36*
G01*
X215656000Y-97166000D02*
X216906000Y-97166000D01*
G75*
G02*
X217156000Y-97416000I0J-250000D01*
G01*
X217156000Y-98216000D01*
G75*
G02*
X216906000Y-98466000I-250000J0D01*
G01*
X215656000Y-98466000D01*
G75*
G02*
X215406000Y-98216000I0J250000D01*
G01*
X215406000Y-97416000D01*
G75*
G02*
X215656000Y-97166000I250000J0D01*
G01*
G37*
%TD*%
%TO.C,R18*%
G36*
G01*
X131816000Y-113452000D02*
X130566000Y-113452000D01*
G75*
G02*
X130316000Y-113202000I0J250000D01*
G01*
X130316000Y-112402000D01*
G75*
G02*
X130566000Y-112152000I250000J0D01*
G01*
X131816000Y-112152000D01*
G75*
G02*
X132066000Y-112402000I0J-250000D01*
G01*
X132066000Y-113202000D01*
G75*
G02*
X131816000Y-113452000I-250000J0D01*
G01*
G37*
G36*
G01*
X131816000Y-110352000D02*
X130566000Y-110352000D01*
G75*
G02*
X130316000Y-110102000I0J250000D01*
G01*
X130316000Y-109302000D01*
G75*
G02*
X130566000Y-109052000I250000J0D01*
G01*
X131816000Y-109052000D01*
G75*
G02*
X132066000Y-109302000I0J-250000D01*
G01*
X132066000Y-110102000D01*
G75*
G02*
X131816000Y-110352000I-250000J0D01*
G01*
G37*
%TD*%
%TO.C,R19*%
G36*
G01*
X137277000Y-69204000D02*
X136027000Y-69204000D01*
G75*
G02*
X135777000Y-68954000I0J250000D01*
G01*
X135777000Y-68154000D01*
G75*
G02*
X136027000Y-67904000I250000J0D01*
G01*
X137277000Y-67904000D01*
G75*
G02*
X137527000Y-68154000I0J-250000D01*
G01*
X137527000Y-68954000D01*
G75*
G02*
X137277000Y-69204000I-250000J0D01*
G01*
G37*
G36*
G01*
X137277000Y-72304000D02*
X136027000Y-72304000D01*
G75*
G02*
X135777000Y-72054000I0J250000D01*
G01*
X135777000Y-71254000D01*
G75*
G02*
X136027000Y-71004000I250000J0D01*
G01*
X137277000Y-71004000D01*
G75*
G02*
X137527000Y-71254000I0J-250000D01*
G01*
X137527000Y-72054000D01*
G75*
G02*
X137277000Y-72304000I-250000J0D01*
G01*
G37*
%TD*%
%TO.C,R20*%
G36*
G01*
X194828000Y-109814000D02*
X196078000Y-109814000D01*
G75*
G02*
X196328000Y-110064000I0J-250000D01*
G01*
X196328000Y-110864000D01*
G75*
G02*
X196078000Y-111114000I-250000J0D01*
G01*
X194828000Y-111114000D01*
G75*
G02*
X194578000Y-110864000I0J250000D01*
G01*
X194578000Y-110064000D01*
G75*
G02*
X194828000Y-109814000I250000J0D01*
G01*
G37*
G36*
G01*
X194828000Y-112914000D02*
X196078000Y-112914000D01*
G75*
G02*
X196328000Y-113164000I0J-250000D01*
G01*
X196328000Y-113964000D01*
G75*
G02*
X196078000Y-114214000I-250000J0D01*
G01*
X194828000Y-114214000D01*
G75*
G02*
X194578000Y-113964000I0J250000D01*
G01*
X194578000Y-113164000D01*
G75*
G02*
X194828000Y-112914000I250000J0D01*
G01*
G37*
%TD*%
%TO.C,C10*%
G36*
G01*
X165914500Y-70406499D02*
X165914500Y-71706501D01*
G75*
G02*
X165664501Y-71956500I-249999J0D01*
G01*
X164839499Y-71956500D01*
G75*
G02*
X164589500Y-71706501I0J249999D01*
G01*
X164589500Y-70406499D01*
G75*
G02*
X164839499Y-70156500I249999J0D01*
G01*
X165664501Y-70156500D01*
G75*
G02*
X165914500Y-70406499I0J-249999D01*
G01*
G37*
G36*
G01*
X169039500Y-70406499D02*
X169039500Y-71706501D01*
G75*
G02*
X168789501Y-71956500I-249999J0D01*
G01*
X167964499Y-71956500D01*
G75*
G02*
X167714500Y-71706501I0J249999D01*
G01*
X167714500Y-70406499D01*
G75*
G02*
X167964499Y-70156500I249999J0D01*
G01*
X168789501Y-70156500D01*
G75*
G02*
X169039500Y-70406499I0J-249999D01*
G01*
G37*
%TD*%
%TO.C,C11*%
G36*
G01*
X177226000Y-79186801D02*
X177226000Y-77886799D01*
G75*
G02*
X177475999Y-77636800I249999J0D01*
G01*
X178301001Y-77636800D01*
G75*
G02*
X178551000Y-77886799I0J-249999D01*
G01*
X178551000Y-79186801D01*
G75*
G02*
X178301001Y-79436800I-249999J0D01*
G01*
X177475999Y-79436800D01*
G75*
G02*
X177226000Y-79186801I0J249999D01*
G01*
G37*
G36*
G01*
X180351000Y-79186801D02*
X180351000Y-77886799D01*
G75*
G02*
X180600999Y-77636800I249999J0D01*
G01*
X181426001Y-77636800D01*
G75*
G02*
X181676000Y-77886799I0J-249999D01*
G01*
X181676000Y-79186801D01*
G75*
G02*
X181426001Y-79436800I-249999J0D01*
G01*
X180600999Y-79436800D01*
G75*
G02*
X180351000Y-79186801I0J249999D01*
G01*
G37*
%TD*%
%TO.C,C12*%
G36*
G01*
X180351000Y-66753501D02*
X180351000Y-65453499D01*
G75*
G02*
X180600999Y-65203500I249999J0D01*
G01*
X181426001Y-65203500D01*
G75*
G02*
X181676000Y-65453499I0J-249999D01*
G01*
X181676000Y-66753501D01*
G75*
G02*
X181426001Y-67003500I-249999J0D01*
G01*
X180600999Y-67003500D01*
G75*
G02*
X180351000Y-66753501I0J249999D01*
G01*
G37*
G36*
G01*
X177226000Y-66753501D02*
X177226000Y-65453499D01*
G75*
G02*
X177475999Y-65203500I249999J0D01*
G01*
X178301001Y-65203500D01*
G75*
G02*
X178551000Y-65453499I0J-249999D01*
G01*
X178551000Y-66753501D01*
G75*
G02*
X178301001Y-67003500I-249999J0D01*
G01*
X177475999Y-67003500D01*
G75*
G02*
X177226000Y-66753501I0J249999D01*
G01*
G37*
%TD*%
%TO.C,C13*%
G36*
G01*
X177226000Y-69166501D02*
X177226000Y-67866499D01*
G75*
G02*
X177475999Y-67616500I249999J0D01*
G01*
X178301001Y-67616500D01*
G75*
G02*
X178551000Y-67866499I0J-249999D01*
G01*
X178551000Y-69166501D01*
G75*
G02*
X178301001Y-69416500I-249999J0D01*
G01*
X177475999Y-69416500D01*
G75*
G02*
X177226000Y-69166501I0J249999D01*
G01*
G37*
G36*
G01*
X180351000Y-69166501D02*
X180351000Y-67866499D01*
G75*
G02*
X180600999Y-67616500I249999J0D01*
G01*
X181426001Y-67616500D01*
G75*
G02*
X181676000Y-67866499I0J-249999D01*
G01*
X181676000Y-69166501D01*
G75*
G02*
X181426001Y-69416500I-249999J0D01*
G01*
X180600999Y-69416500D01*
G75*
G02*
X180351000Y-69166501I0J249999D01*
G01*
G37*
%TD*%
%TO.C,C14*%
G36*
G01*
X196199800Y-74208401D02*
X196199800Y-72908399D01*
G75*
G02*
X196449799Y-72658400I249999J0D01*
G01*
X197274801Y-72658400D01*
G75*
G02*
X197524800Y-72908399I0J-249999D01*
G01*
X197524800Y-74208401D01*
G75*
G02*
X197274801Y-74458400I-249999J0D01*
G01*
X196449799Y-74458400D01*
G75*
G02*
X196199800Y-74208401I0J249999D01*
G01*
G37*
G36*
G01*
X199324800Y-74208401D02*
X199324800Y-72908399D01*
G75*
G02*
X199574799Y-72658400I249999J0D01*
G01*
X200399801Y-72658400D01*
G75*
G02*
X200649800Y-72908399I0J-249999D01*
G01*
X200649800Y-74208401D01*
G75*
G02*
X200399801Y-74458400I-249999J0D01*
G01*
X199574799Y-74458400D01*
G75*
G02*
X199324800Y-74208401I0J249999D01*
G01*
G37*
%TD*%
%TO.C,C15*%
G36*
G01*
X212714000Y-72908399D02*
X212714000Y-74208401D01*
G75*
G02*
X212464001Y-74458400I-249999J0D01*
G01*
X211638999Y-74458400D01*
G75*
G02*
X211389000Y-74208401I0J249999D01*
G01*
X211389000Y-72908399D01*
G75*
G02*
X211638999Y-72658400I249999J0D01*
G01*
X212464001Y-72658400D01*
G75*
G02*
X212714000Y-72908399I0J-249999D01*
G01*
G37*
G36*
G01*
X215839000Y-72908399D02*
X215839000Y-74208401D01*
G75*
G02*
X215589001Y-74458400I-249999J0D01*
G01*
X214763999Y-74458400D01*
G75*
G02*
X214514000Y-74208401I0J249999D01*
G01*
X214514000Y-72908399D01*
G75*
G02*
X214763999Y-72658400I249999J0D01*
G01*
X215589001Y-72658400D01*
G75*
G02*
X215839000Y-72908399I0J-249999D01*
G01*
G37*
%TD*%
%TO.C,Q3*%
X180136800Y-73491600D03*
X179186800Y-71491600D03*
X181086800Y-71491600D03*
%TD*%
%TO.C,Q5*%
X202742800Y-68900800D03*
X203692800Y-70900800D03*
X201792800Y-70900800D03*
%TD*%
%TO.C,Q6*%
X201691200Y-78368400D03*
X203591200Y-78368400D03*
X202641200Y-76368400D03*
%TD*%
%TO.C,Q7*%
X208396800Y-70900800D03*
X210296800Y-70900800D03*
X209346800Y-68900800D03*
%TD*%
%TO.C,Q8*%
X208346000Y-78419200D03*
X210246000Y-78419200D03*
X209296000Y-76419200D03*
%TD*%
%TO.C,R9*%
G36*
G01*
X164614500Y-76825000D02*
X164614500Y-75575000D01*
G75*
G02*
X164864500Y-75325000I250000J0D01*
G01*
X165664500Y-75325000D01*
G75*
G02*
X165914500Y-75575000I0J-250000D01*
G01*
X165914500Y-76825000D01*
G75*
G02*
X165664500Y-77075000I-250000J0D01*
G01*
X164864500Y-77075000D01*
G75*
G02*
X164614500Y-76825000I0J250000D01*
G01*
G37*
G36*
G01*
X167714500Y-76825000D02*
X167714500Y-75575000D01*
G75*
G02*
X167964500Y-75325000I250000J0D01*
G01*
X168764500Y-75325000D01*
G75*
G02*
X169014500Y-75575000I0J-250000D01*
G01*
X169014500Y-76825000D01*
G75*
G02*
X168764500Y-77075000I-250000J0D01*
G01*
X167964500Y-77075000D01*
G75*
G02*
X167714500Y-76825000I0J250000D01*
G01*
G37*
%TD*%
%TO.C,R10*%
G36*
G01*
X164614500Y-74031000D02*
X164614500Y-72781000D01*
G75*
G02*
X164864500Y-72531000I250000J0D01*
G01*
X165664500Y-72531000D01*
G75*
G02*
X165914500Y-72781000I0J-250000D01*
G01*
X165914500Y-74031000D01*
G75*
G02*
X165664500Y-74281000I-250000J0D01*
G01*
X164864500Y-74281000D01*
G75*
G02*
X164614500Y-74031000I0J250000D01*
G01*
G37*
G36*
G01*
X167714500Y-74031000D02*
X167714500Y-72781000D01*
G75*
G02*
X167964500Y-72531000I250000J0D01*
G01*
X168764500Y-72531000D01*
G75*
G02*
X169014500Y-72781000I0J-250000D01*
G01*
X169014500Y-74031000D01*
G75*
G02*
X168764500Y-74281000I-250000J0D01*
G01*
X167964500Y-74281000D01*
G75*
G02*
X167714500Y-74031000I0J250000D01*
G01*
G37*
%TD*%
%TO.C,R22*%
G36*
G01*
X180351000Y-76825000D02*
X180351000Y-75575000D01*
G75*
G02*
X180601000Y-75325000I250000J0D01*
G01*
X181401000Y-75325000D01*
G75*
G02*
X181651000Y-75575000I0J-250000D01*
G01*
X181651000Y-76825000D01*
G75*
G02*
X181401000Y-77075000I-250000J0D01*
G01*
X180601000Y-77075000D01*
G75*
G02*
X180351000Y-76825000I0J250000D01*
G01*
G37*
G36*
G01*
X177251000Y-76825000D02*
X177251000Y-75575000D01*
G75*
G02*
X177501000Y-75325000I250000J0D01*
G01*
X178301000Y-75325000D01*
G75*
G02*
X178551000Y-75575000I0J-250000D01*
G01*
X178551000Y-76825000D01*
G75*
G02*
X178301000Y-77075000I-250000J0D01*
G01*
X177501000Y-77075000D01*
G75*
G02*
X177251000Y-76825000I0J250000D01*
G01*
G37*
%TD*%
%TO.C,R24*%
G36*
G01*
X196186700Y-69141500D02*
X196186700Y-67891500D01*
G75*
G02*
X196436700Y-67641500I250000J0D01*
G01*
X197236700Y-67641500D01*
G75*
G02*
X197486700Y-67891500I0J-250000D01*
G01*
X197486700Y-69141500D01*
G75*
G02*
X197236700Y-69391500I-250000J0D01*
G01*
X196436700Y-69391500D01*
G75*
G02*
X196186700Y-69141500I0J250000D01*
G01*
G37*
G36*
G01*
X199286700Y-69141500D02*
X199286700Y-67891500D01*
G75*
G02*
X199536700Y-67641500I250000J0D01*
G01*
X200336700Y-67641500D01*
G75*
G02*
X200586700Y-67891500I0J-250000D01*
G01*
X200586700Y-69141500D01*
G75*
G02*
X200336700Y-69391500I-250000J0D01*
G01*
X199536700Y-69391500D01*
G75*
G02*
X199286700Y-69141500I0J250000D01*
G01*
G37*
%TD*%
%TO.C,R25*%
G36*
G01*
X196186700Y-71440200D02*
X196186700Y-70190200D01*
G75*
G02*
X196436700Y-69940200I250000J0D01*
G01*
X197236700Y-69940200D01*
G75*
G02*
X197486700Y-70190200I0J-250000D01*
G01*
X197486700Y-71440200D01*
G75*
G02*
X197236700Y-71690200I-250000J0D01*
G01*
X196436700Y-71690200D01*
G75*
G02*
X196186700Y-71440200I0J250000D01*
G01*
G37*
G36*
G01*
X199286700Y-71440200D02*
X199286700Y-70190200D01*
G75*
G02*
X199536700Y-69940200I250000J0D01*
G01*
X200336700Y-69940200D01*
G75*
G02*
X200586700Y-70190200I0J-250000D01*
G01*
X200586700Y-71440200D01*
G75*
G02*
X200336700Y-71690200I-250000J0D01*
G01*
X199536700Y-71690200D01*
G75*
G02*
X199286700Y-71440200I0J250000D01*
G01*
G37*
%TD*%
%TO.C,R26*%
G36*
G01*
X197486700Y-75765500D02*
X197486700Y-77015500D01*
G75*
G02*
X197236700Y-77265500I-250000J0D01*
G01*
X196436700Y-77265500D01*
G75*
G02*
X196186700Y-77015500I0J250000D01*
G01*
X196186700Y-75765500D01*
G75*
G02*
X196436700Y-75515500I250000J0D01*
G01*
X197236700Y-75515500D01*
G75*
G02*
X197486700Y-75765500I0J-250000D01*
G01*
G37*
G36*
G01*
X200586700Y-75765500D02*
X200586700Y-77015500D01*
G75*
G02*
X200336700Y-77265500I-250000J0D01*
G01*
X199536700Y-77265500D01*
G75*
G02*
X199286700Y-77015500I0J250000D01*
G01*
X199286700Y-75765500D01*
G75*
G02*
X199536700Y-75515500I250000J0D01*
G01*
X200336700Y-75515500D01*
G75*
G02*
X200586700Y-75765500I0J-250000D01*
G01*
G37*
%TD*%
%TO.C,R27*%
G36*
G01*
X200586700Y-78115000D02*
X200586700Y-79365000D01*
G75*
G02*
X200336700Y-79615000I-250000J0D01*
G01*
X199536700Y-79615000D01*
G75*
G02*
X199286700Y-79365000I0J250000D01*
G01*
X199286700Y-78115000D01*
G75*
G02*
X199536700Y-77865000I250000J0D01*
G01*
X200336700Y-77865000D01*
G75*
G02*
X200586700Y-78115000I0J-250000D01*
G01*
G37*
G36*
G01*
X197486700Y-78115000D02*
X197486700Y-79365000D01*
G75*
G02*
X197236700Y-79615000I-250000J0D01*
G01*
X196436700Y-79615000D01*
G75*
G02*
X196186700Y-79365000I0J250000D01*
G01*
X196186700Y-78115000D01*
G75*
G02*
X196436700Y-77865000I250000J0D01*
G01*
X197236700Y-77865000D01*
G75*
G02*
X197486700Y-78115000I0J-250000D01*
G01*
G37*
%TD*%
%TO.C,R28*%
G36*
G01*
X212714000Y-67942300D02*
X212714000Y-69192300D01*
G75*
G02*
X212464000Y-69442300I-250000J0D01*
G01*
X211664000Y-69442300D01*
G75*
G02*
X211414000Y-69192300I0J250000D01*
G01*
X211414000Y-67942300D01*
G75*
G02*
X211664000Y-67692300I250000J0D01*
G01*
X212464000Y-67692300D01*
G75*
G02*
X212714000Y-67942300I0J-250000D01*
G01*
G37*
G36*
G01*
X215814000Y-67942300D02*
X215814000Y-69192300D01*
G75*
G02*
X215564000Y-69442300I-250000J0D01*
G01*
X214764000Y-69442300D01*
G75*
G02*
X214514000Y-69192300I0J250000D01*
G01*
X214514000Y-67942300D01*
G75*
G02*
X214764000Y-67692300I250000J0D01*
G01*
X215564000Y-67692300D01*
G75*
G02*
X215814000Y-67942300I0J-250000D01*
G01*
G37*
%TD*%
%TO.C,R29*%
G36*
G01*
X212714000Y-70241000D02*
X212714000Y-71491000D01*
G75*
G02*
X212464000Y-71741000I-250000J0D01*
G01*
X211664000Y-71741000D01*
G75*
G02*
X211414000Y-71491000I0J250000D01*
G01*
X211414000Y-70241000D01*
G75*
G02*
X211664000Y-69991000I250000J0D01*
G01*
X212464000Y-69991000D01*
G75*
G02*
X212714000Y-70241000I0J-250000D01*
G01*
G37*
G36*
G01*
X215814000Y-70241000D02*
X215814000Y-71491000D01*
G75*
G02*
X215564000Y-71741000I-250000J0D01*
G01*
X214764000Y-71741000D01*
G75*
G02*
X214514000Y-71491000I0J250000D01*
G01*
X214514000Y-70241000D01*
G75*
G02*
X214764000Y-69991000I250000J0D01*
G01*
X215564000Y-69991000D01*
G75*
G02*
X215814000Y-70241000I0J-250000D01*
G01*
G37*
%TD*%
%TO.C,R30*%
G36*
G01*
X214514000Y-77066300D02*
X214514000Y-75816300D01*
G75*
G02*
X214764000Y-75566300I250000J0D01*
G01*
X215564000Y-75566300D01*
G75*
G02*
X215814000Y-75816300I0J-250000D01*
G01*
X215814000Y-77066300D01*
G75*
G02*
X215564000Y-77316300I-250000J0D01*
G01*
X214764000Y-77316300D01*
G75*
G02*
X214514000Y-77066300I0J250000D01*
G01*
G37*
G36*
G01*
X211414000Y-77066300D02*
X211414000Y-75816300D01*
G75*
G02*
X211664000Y-75566300I250000J0D01*
G01*
X212464000Y-75566300D01*
G75*
G02*
X212714000Y-75816300I0J-250000D01*
G01*
X212714000Y-77066300D01*
G75*
G02*
X212464000Y-77316300I-250000J0D01*
G01*
X211664000Y-77316300D01*
G75*
G02*
X211414000Y-77066300I0J250000D01*
G01*
G37*
%TD*%
%TO.C,R31*%
G36*
G01*
X211414000Y-79415800D02*
X211414000Y-78165800D01*
G75*
G02*
X211664000Y-77915800I250000J0D01*
G01*
X212464000Y-77915800D01*
G75*
G02*
X212714000Y-78165800I0J-250000D01*
G01*
X212714000Y-79415800D01*
G75*
G02*
X212464000Y-79665800I-250000J0D01*
G01*
X211664000Y-79665800D01*
G75*
G02*
X211414000Y-79415800I0J250000D01*
G01*
G37*
G36*
G01*
X214514000Y-79415800D02*
X214514000Y-78165800D01*
G75*
G02*
X214764000Y-77915800I250000J0D01*
G01*
X215564000Y-77915800D01*
G75*
G02*
X215814000Y-78165800I0J-250000D01*
G01*
X215814000Y-79415800D01*
G75*
G02*
X215564000Y-79665800I-250000J0D01*
G01*
X214764000Y-79665800D01*
G75*
G02*
X214514000Y-79415800I0J250000D01*
G01*
G37*
%TD*%
%TO.C,U3*%
G36*
G01*
X169714500Y-70889000D02*
X169714500Y-70589000D01*
G75*
G02*
X169864500Y-70439000I150000J0D01*
G01*
X171514500Y-70439000D01*
G75*
G02*
X171664500Y-70589000I0J-150000D01*
G01*
X171664500Y-70889000D01*
G75*
G02*
X171514500Y-71039000I-150000J0D01*
G01*
X169864500Y-71039000D01*
G75*
G02*
X169714500Y-70889000I0J150000D01*
G01*
G37*
G36*
G01*
X169714500Y-72159000D02*
X169714500Y-71859000D01*
G75*
G02*
X169864500Y-71709000I150000J0D01*
G01*
X171514500Y-71709000D01*
G75*
G02*
X171664500Y-71859000I0J-150000D01*
G01*
X171664500Y-72159000D01*
G75*
G02*
X171514500Y-72309000I-150000J0D01*
G01*
X169864500Y-72309000D01*
G75*
G02*
X169714500Y-72159000I0J150000D01*
G01*
G37*
G36*
G01*
X169714500Y-73429000D02*
X169714500Y-73129000D01*
G75*
G02*
X169864500Y-72979000I150000J0D01*
G01*
X171514500Y-72979000D01*
G75*
G02*
X171664500Y-73129000I0J-150000D01*
G01*
X171664500Y-73429000D01*
G75*
G02*
X171514500Y-73579000I-150000J0D01*
G01*
X169864500Y-73579000D01*
G75*
G02*
X169714500Y-73429000I0J150000D01*
G01*
G37*
G36*
G01*
X169714500Y-74699000D02*
X169714500Y-74399000D01*
G75*
G02*
X169864500Y-74249000I150000J0D01*
G01*
X171514500Y-74249000D01*
G75*
G02*
X171664500Y-74399000I0J-150000D01*
G01*
X171664500Y-74699000D01*
G75*
G02*
X171514500Y-74849000I-150000J0D01*
G01*
X169864500Y-74849000D01*
G75*
G02*
X169714500Y-74699000I0J150000D01*
G01*
G37*
G36*
G01*
X174664500Y-74699000D02*
X174664500Y-74399000D01*
G75*
G02*
X174814500Y-74249000I150000J0D01*
G01*
X176464500Y-74249000D01*
G75*
G02*
X176614500Y-74399000I0J-150000D01*
G01*
X176614500Y-74699000D01*
G75*
G02*
X176464500Y-74849000I-150000J0D01*
G01*
X174814500Y-74849000D01*
G75*
G02*
X174664500Y-74699000I0J150000D01*
G01*
G37*
G36*
G01*
X174664500Y-73429000D02*
X174664500Y-73129000D01*
G75*
G02*
X174814500Y-72979000I150000J0D01*
G01*
X176464500Y-72979000D01*
G75*
G02*
X176614500Y-73129000I0J-150000D01*
G01*
X176614500Y-73429000D01*
G75*
G02*
X176464500Y-73579000I-150000J0D01*
G01*
X174814500Y-73579000D01*
G75*
G02*
X174664500Y-73429000I0J150000D01*
G01*
G37*
G36*
G01*
X174664500Y-72159000D02*
X174664500Y-71859000D01*
G75*
G02*
X174814500Y-71709000I150000J0D01*
G01*
X176464500Y-71709000D01*
G75*
G02*
X176614500Y-71859000I0J-150000D01*
G01*
X176614500Y-72159000D01*
G75*
G02*
X176464500Y-72309000I-150000J0D01*
G01*
X174814500Y-72309000D01*
G75*
G02*
X174664500Y-72159000I0J150000D01*
G01*
G37*
G36*
G01*
X174664500Y-70889000D02*
X174664500Y-70589000D01*
G75*
G02*
X174814500Y-70439000I150000J0D01*
G01*
X176464500Y-70439000D01*
G75*
G02*
X176614500Y-70589000I0J-150000D01*
G01*
X176614500Y-70889000D01*
G75*
G02*
X176464500Y-71039000I-150000J0D01*
G01*
X174814500Y-71039000D01*
G75*
G02*
X174664500Y-70889000I0J150000D01*
G01*
G37*
%TD*%
D15*
%TO.C,Q2*%
X170323000Y-78536800D03*
X172323000Y-77586800D03*
X172323000Y-79486800D03*
%TD*%
%TO.C,Q4*%
X183759600Y-61381600D03*
X183759600Y-63281600D03*
X185759600Y-62331600D03*
%TD*%
%TO.C,C16*%
G36*
G01*
X201229000Y-74709201D02*
X201229000Y-72509199D01*
G75*
G02*
X201478999Y-72259200I249999J0D01*
G01*
X202304001Y-72259200D01*
G75*
G02*
X202554000Y-72509199I0J-249999D01*
G01*
X202554000Y-74709201D01*
G75*
G02*
X202304001Y-74959200I-249999J0D01*
G01*
X201478999Y-74959200D01*
G75*
G02*
X201229000Y-74709201I0J249999D01*
G01*
G37*
G36*
G01*
X204354000Y-74709201D02*
X204354000Y-72509199D01*
G75*
G02*
X204603999Y-72259200I249999J0D01*
G01*
X205429001Y-72259200D01*
G75*
G02*
X205679000Y-72509199I0J-249999D01*
G01*
X205679000Y-74709201D01*
G75*
G02*
X205429001Y-74959200I-249999J0D01*
G01*
X204603999Y-74959200D01*
G75*
G02*
X204354000Y-74709201I0J249999D01*
G01*
G37*
%TD*%
%TO.C,C17*%
G36*
G01*
X210809800Y-72509199D02*
X210809800Y-74709201D01*
G75*
G02*
X210559801Y-74959200I-249999J0D01*
G01*
X209734799Y-74959200D01*
G75*
G02*
X209484800Y-74709201I0J249999D01*
G01*
X209484800Y-72509199D01*
G75*
G02*
X209734799Y-72259200I249999J0D01*
G01*
X210559801Y-72259200D01*
G75*
G02*
X210809800Y-72509199I0J-249999D01*
G01*
G37*
G36*
G01*
X207684800Y-72509199D02*
X207684800Y-74709201D01*
G75*
G02*
X207434801Y-74959200I-249999J0D01*
G01*
X206609799Y-74959200D01*
G75*
G02*
X206359800Y-74709201I0J249999D01*
G01*
X206359800Y-72509199D01*
G75*
G02*
X206609799Y-72259200I249999J0D01*
G01*
X207434801Y-72259200D01*
G75*
G02*
X207684800Y-72509199I0J-249999D01*
G01*
G37*
%TD*%
%TO.C,D3*%
G36*
G01*
X223047400Y-67751600D02*
X224297400Y-67751600D01*
G75*
G02*
X224547400Y-68001600I0J-250000D01*
G01*
X224547400Y-68926600D01*
G75*
G02*
X224297400Y-69176600I-250000J0D01*
G01*
X223047400Y-69176600D01*
G75*
G02*
X222797400Y-68926600I0J250000D01*
G01*
X222797400Y-68001600D01*
G75*
G02*
X223047400Y-67751600I250000J0D01*
G01*
G37*
G36*
G01*
X223047400Y-70726600D02*
X224297400Y-70726600D01*
G75*
G02*
X224547400Y-70976600I0J-250000D01*
G01*
X224547400Y-71901600D01*
G75*
G02*
X224297400Y-72151600I-250000J0D01*
G01*
X223047400Y-72151600D01*
G75*
G02*
X222797400Y-71901600I0J250000D01*
G01*
X222797400Y-70976600D01*
G75*
G02*
X223047400Y-70726600I250000J0D01*
G01*
G37*
%TD*%
%TO.C,R21*%
G36*
G01*
X220659800Y-67751600D02*
X221909800Y-67751600D01*
G75*
G02*
X222159800Y-68001600I0J-250000D01*
G01*
X222159800Y-68801600D01*
G75*
G02*
X221909800Y-69051600I-250000J0D01*
G01*
X220659800Y-69051600D01*
G75*
G02*
X220409800Y-68801600I0J250000D01*
G01*
X220409800Y-68001600D01*
G75*
G02*
X220659800Y-67751600I250000J0D01*
G01*
G37*
G36*
G01*
X220659800Y-70851600D02*
X221909800Y-70851600D01*
G75*
G02*
X222159800Y-71101600I0J-250000D01*
G01*
X222159800Y-71901600D01*
G75*
G02*
X221909800Y-72151600I-250000J0D01*
G01*
X220659800Y-72151600D01*
G75*
G02*
X220409800Y-71901600I0J250000D01*
G01*
X220409800Y-71101600D01*
G75*
G02*
X220659800Y-70851600I250000J0D01*
G01*
G37*
%TD*%
%TO.C,R32*%
G36*
G01*
X203802600Y-64304599D02*
X203802600Y-66454601D01*
G75*
G02*
X203552601Y-66704600I-249999J0D01*
G01*
X202927599Y-66704600D01*
G75*
G02*
X202677600Y-66454601I0J249999D01*
G01*
X202677600Y-64304599D01*
G75*
G02*
X202927599Y-64054600I249999J0D01*
G01*
X203552601Y-64054600D01*
G75*
G02*
X203802600Y-64304599I0J-249999D01*
G01*
G37*
G36*
G01*
X200877600Y-64304599D02*
X200877600Y-66454601D01*
G75*
G02*
X200627601Y-66704600I-249999J0D01*
G01*
X200002599Y-66704600D01*
G75*
G02*
X199752600Y-66454601I0J249999D01*
G01*
X199752600Y-64304599D01*
G75*
G02*
X200002599Y-64054600I249999J0D01*
G01*
X200627601Y-64054600D01*
G75*
G02*
X200877600Y-64304599I0J-249999D01*
G01*
G37*
%TD*%
%TO.C,R33*%
G36*
G01*
X210602400Y-66505401D02*
X210602400Y-64355399D01*
G75*
G02*
X210852399Y-64105400I249999J0D01*
G01*
X211477401Y-64105400D01*
G75*
G02*
X211727400Y-64355399I0J-249999D01*
G01*
X211727400Y-66505401D01*
G75*
G02*
X211477401Y-66755400I-249999J0D01*
G01*
X210852399Y-66755400D01*
G75*
G02*
X210602400Y-66505401I0J249999D01*
G01*
G37*
G36*
G01*
X207677400Y-66505401D02*
X207677400Y-64355399D01*
G75*
G02*
X207927399Y-64105400I249999J0D01*
G01*
X208552401Y-64105400D01*
G75*
G02*
X208802400Y-64355399I0J-249999D01*
G01*
X208802400Y-66505401D01*
G75*
G02*
X208552401Y-66755400I-249999J0D01*
G01*
X207927399Y-66755400D01*
G75*
G02*
X207677400Y-66505401I0J249999D01*
G01*
G37*
%TD*%
%TO.C,C1*%
G36*
G01*
X191193601Y-100878600D02*
X188993599Y-100878600D01*
G75*
G02*
X188743600Y-100628601I0J249999D01*
G01*
X188743600Y-99803599D01*
G75*
G02*
X188993599Y-99553600I249999J0D01*
G01*
X191193601Y-99553600D01*
G75*
G02*
X191443600Y-99803599I0J-249999D01*
G01*
X191443600Y-100628601D01*
G75*
G02*
X191193601Y-100878600I-249999J0D01*
G01*
G37*
G36*
G01*
X191193601Y-97753600D02*
X188993599Y-97753600D01*
G75*
G02*
X188743600Y-97503601I0J249999D01*
G01*
X188743600Y-96678599D01*
G75*
G02*
X188993599Y-96428600I249999J0D01*
G01*
X191193601Y-96428600D01*
G75*
G02*
X191443600Y-96678599I0J-249999D01*
G01*
X191443600Y-97503601D01*
G75*
G02*
X191193601Y-97753600I-249999J0D01*
G01*
G37*
%TD*%
%TO.C,C7*%
G36*
G01*
X118279999Y-93914800D02*
X120480001Y-93914800D01*
G75*
G02*
X120730000Y-94164799I0J-249999D01*
G01*
X120730000Y-94989801D01*
G75*
G02*
X120480001Y-95239800I-249999J0D01*
G01*
X118279999Y-95239800D01*
G75*
G02*
X118030000Y-94989801I0J249999D01*
G01*
X118030000Y-94164799D01*
G75*
G02*
X118279999Y-93914800I249999J0D01*
G01*
G37*
G36*
G01*
X118279999Y-90789800D02*
X120480001Y-90789800D01*
G75*
G02*
X120730000Y-91039799I0J-249999D01*
G01*
X120730000Y-91864801D01*
G75*
G02*
X120480001Y-92114800I-249999J0D01*
G01*
X118279999Y-92114800D01*
G75*
G02*
X118030000Y-91864801I0J249999D01*
G01*
X118030000Y-91039799D01*
G75*
G02*
X118279999Y-90789800I249999J0D01*
G01*
G37*
%TD*%
%TO.C,C8*%
G36*
G01*
X118279999Y-67879000D02*
X120480001Y-67879000D01*
G75*
G02*
X120730000Y-68128999I0J-249999D01*
G01*
X120730000Y-68954001D01*
G75*
G02*
X120480001Y-69204000I-249999J0D01*
G01*
X118279999Y-69204000D01*
G75*
G02*
X118030000Y-68954001I0J249999D01*
G01*
X118030000Y-68128999D01*
G75*
G02*
X118279999Y-67879000I249999J0D01*
G01*
G37*
G36*
G01*
X118279999Y-71004000D02*
X120480001Y-71004000D01*
G75*
G02*
X120730000Y-71253999I0J-249999D01*
G01*
X120730000Y-72079001D01*
G75*
G02*
X120480001Y-72329000I-249999J0D01*
G01*
X118279999Y-72329000D01*
G75*
G02*
X118030000Y-72079001I0J249999D01*
G01*
X118030000Y-71253999D01*
G75*
G02*
X118279999Y-71004000I249999J0D01*
G01*
G37*
%TD*%
%TO.C,C18*%
G36*
G01*
X193108399Y-70800800D02*
X195308401Y-70800800D01*
G75*
G02*
X195558400Y-71050799I0J-249999D01*
G01*
X195558400Y-71875801D01*
G75*
G02*
X195308401Y-72125800I-249999J0D01*
G01*
X193108399Y-72125800D01*
G75*
G02*
X192858400Y-71875801I0J249999D01*
G01*
X192858400Y-71050799D01*
G75*
G02*
X193108399Y-70800800I249999J0D01*
G01*
G37*
G36*
G01*
X193108399Y-67675800D02*
X195308401Y-67675800D01*
G75*
G02*
X195558400Y-67925799I0J-249999D01*
G01*
X195558400Y-68750801D01*
G75*
G02*
X195308401Y-69000800I-249999J0D01*
G01*
X193108399Y-69000800D01*
G75*
G02*
X192858400Y-68750801I0J249999D01*
G01*
X192858400Y-67925799D01*
G75*
G02*
X193108399Y-67675800I249999J0D01*
G01*
G37*
%TD*%
%TO.C,C19*%
G36*
G01*
X216679599Y-67726600D02*
X218879601Y-67726600D01*
G75*
G02*
X219129600Y-67976599I0J-249999D01*
G01*
X219129600Y-68801601D01*
G75*
G02*
X218879601Y-69051600I-249999J0D01*
G01*
X216679599Y-69051600D01*
G75*
G02*
X216429600Y-68801601I0J249999D01*
G01*
X216429600Y-67976599D01*
G75*
G02*
X216679599Y-67726600I249999J0D01*
G01*
G37*
G36*
G01*
X216679599Y-70851600D02*
X218879601Y-70851600D01*
G75*
G02*
X219129600Y-71101599I0J-249999D01*
G01*
X219129600Y-71926601D01*
G75*
G02*
X218879601Y-72176600I-249999J0D01*
G01*
X216679599Y-72176600D01*
G75*
G02*
X216429600Y-71926601I0J249999D01*
G01*
X216429600Y-71101599D01*
G75*
G02*
X216679599Y-70851600I249999J0D01*
G01*
G37*
%TD*%
M02*
